<?xml version="1.0" encoding="utf-8"?>
<!-- Generator: Adobe Illustrator 27.3.1, SVG Export Plug-In . SVG Version: 6.00 Build 0)  -->
<svg version="1.1" id="Capa_1" xmlns="http://www.w3.org/2000/svg" xmlns:xlink="http://www.w3.org/1999/xlink" x="0px" y="0px"
	 viewBox="0 0 96 65.1" style="enable-background:new 0 0 96 65.1;" xml:space="preserve">
<style type="text/css">
	.st0{fill:url(#SVGID_1_);}
	.st1{opacity:5.000000e-02;enable-background:new    ;}
	.st2{opacity:7.000000e-02;enable-background:new    ;}
	.st3{fill:#FFFFFF;}
</style>
<g>
	<g transform="scale(5.33333,5.33333)">
		
			<linearGradient id="SVGID_1_" gradientUnits="userSpaceOnUse" x1="-81.6441" y1="18.3957" x2="-72.5551" y2="-14.0446" gradientTransform="matrix(2 0 0 -2 170.8124 37.6304)">
			<stop  offset="0" style="stop-color:#00B3EE"/>
			<stop  offset="1" style="stop-color:#0082D8"/>
		</linearGradient>
		<path class="st0" d="M16.8,0H1.2C0.6,0,0,0.5,0,1.2V11c0,0.6,0.5,1.2,1.2,1.2h15.6c0.6,0,1.2-0.5,1.2-1.2V1.2
			C18,0.5,17.4,0,16.8,0z"/>
		<path class="st1" d="M8.9,7.7c-0.3,0-0.6-0.3-0.6-0.6v0L8.2,7.4C8.1,7.6,7.9,7.7,7.6,7.7H7.2C7,7.7,6.8,7.6,6.7,7.4L6.6,7.1
			c0,0.3-0.3,0.6-0.6,0.6H4.9c-0.2,0-0.5-0.1-0.6-0.4L4.2,7.1H3.4L3.2,7.4C3.1,7.6,2.9,7.7,2.7,7.7H2.2C2,7.7,1.7,7.5,1.7,7.2v0l0,0
			l0-0.1l1.2-2.6C3,4.2,3.2,4.1,3.5,4.1h0.7c0.2,0,0.5,0.1,0.6,0.4l0.4,0.9V4.7c0-0.3,0.3-0.6,0.6-0.6h0.8c0.2,0,0.5,0.1,0.6,0.4
			l0.4,1l0.4-1C8,4.2,8.2,4.1,8.4,4.1h0.8c0.3,0,0.6,0.3,0.6,0.6v2.4c0,0.3-0.3,0.6-0.6,0.6L8.9,7.7z"/>
		<path class="st2" d="M8.9,7.5c-0.2,0-0.4-0.2-0.4-0.4V6.2L8,7.3C7.9,7.4,7.8,7.5,7.6,7.5H7.2c-0.2,0-0.3-0.1-0.4-0.2L6.4,6.2v0.9
			c0,0.2-0.2,0.4-0.4,0.4H4.9c-0.2,0-0.3-0.1-0.4-0.2L4.4,6.9H3.2L3.1,7.3C3,7.4,2.8,7.5,2.7,7.5H2.2c-0.2,0-0.3-0.1-0.3-0.3v0
			l0-0.1l1.1-2.6c0.1-0.1,0.2-0.2,0.4-0.2h0.7c0.2,0,0.3,0.1,0.4,0.2l0.8,1.7V4.7c0-0.2,0.2-0.4,0.4-0.4h0.8c0.2,0,0.3,0.1,0.4,0.2
			l0.6,1.4l0.6-1.4c0.1-0.1,0.2-0.2,0.4-0.2h0.8c0.2,0,0.4,0.2,0.4,0.4v2.4c0,0.2-0.2,0.4-0.4,0.4L8.9,7.5z M3.9,5.9L3.8,5.6
			L3.7,5.9H3.9z"/>
		<path class="st3" d="M9.2,4.5H8.4c-0.1,0-0.2,0-0.2,0.1L7.4,6.4L6.6,4.6c0-0.1-0.1-0.1-0.2-0.1H5.7c-0.1,0-0.2,0.1-0.2,0.2v2.5
			L4.3,4.6c0-0.1-0.1-0.1-0.2-0.1H3.5c-0.1,0-0.2,0-0.2,0.1L2.1,7.2c0,0,0,0,0,0c0,0.1,0,0.1,0.1,0.1l0,0h0.4c0.1,0,0.2,0,0.2-0.1
			l0.2-0.5h1.4l0.2,0.5c0,0.1,0.1,0.1,0.2,0.1H6c0.1,0,0.2-0.1,0.2-0.2V5.2l0.9,2c0,0.1,0.1,0.1,0.2,0.1h0.4c0.1,0,0.2,0,0.2-0.1
			l0.9-2v1.9c0,0.1,0.1,0.2,0.2,0.2h0.3c0.1,0,0.2-0.1,0.2-0.2V4.7C9.4,4.6,9.3,4.5,9.2,4.5z M3.4,6.1l0.4-1l0.4,1H3.4z"/>
		<path class="st1" d="M15.1,7.7c-0.2,0-0.3-0.1-0.5-0.2L14.2,7l-0.5,0.5c-0.1,0.1-0.3,0.2-0.5,0.2h-2.4c-0.3,0-0.6-0.3-0.6-0.6V4.7
			c0-0.3,0.3-0.6,0.6-0.6h2.8l0.6,0.7l0.5-0.6l0,0c0.1,0,0.2-0.1,0.3-0.1h0.6c0.3,0,0.5,0.2,0.5,0.5c0,0.1,0,0.2-0.1,0.3l-0.9,1
			l1,1.2l0,0.1c0,0,0,0,0,0c0,0.3-0.2,0.5-0.5,0.5H15.1z"/>
		<path class="st2" d="M15.1,7.5c-0.1,0-0.2-0.1-0.3-0.1l-0.6-0.7l-0.6,0.7c-0.1,0.1-0.2,0.1-0.3,0.1h-2.4c-0.2,0-0.4-0.2-0.4-0.4
			V4.7c0-0.2,0.2-0.4,0.4-0.4h2.7l0.7,0.8l0.7-0.7l0,0c0.1,0,0.1-0.1,0.2-0.1h0.6c0.2,0,0.3,0.1,0.3,0.3c0,0,0,0.1-0.1,0.2l-1,1.1
			L16,7.1l0,0c0,0,0,0,0,0.1c0,0.2-0.1,0.3-0.3,0.3L15.1,7.5L15.1,7.5z M12.9,6.5L13,6.4h-1.5v0.2H12.9z M13.1,6.3l0.4-0.4l-0.4-0.4
			V6.3z M13.1,5.4L13,5.3l-1.4,0v0.1L13.1,5.4L13.1,5.4z"/>
		<path class="st3" d="M15.8,7.2L15.8,7.2l-1.1-1.3l1.1-1.2c0,0,0,0,0-0.1c0-0.1,0-0.1-0.1-0.1c0,0-0.6,0-0.6,0c0,0-0.1,0-0.1,0l0,0
			l-0.8,0.8l-0.8-0.9h-2.6c-0.1,0-0.2,0.1-0.2,0.2v2.4c0,0.1,0.1,0.2,0.2,0.2h2.4c0.1,0,0.1,0,0.2-0.1l0.8-0.9L15,7.3
			c0,0,0.1,0.1,0.2,0.1h0.6C15.7,7.3,15.8,7.3,15.8,7.2C15.8,7.2,15.8,7.2,15.8,7.2z M13,6.7h-1.6V6.2h1.6V5.6h-1.6V5.1l1.7,0
			l0.7,0.8L13,6.7z"/>
	</g>
</g>
</svg>
