<svg xmlns="http://www.w3.org/2000/svg" width="16.762" height="14.667" viewBox="0 0 16.762 14.667">
  <path id="Icon_awesome-bars" data-name="Icon awesome-bars" d="M.6,6.913H16.164a.6.6,0,0,0,.6-.6v-1.5a.6.6,0,0,0-.6-.6H.6a.6.6,0,0,0-.6.6v1.5A.6.6,0,0,0,.6,6.913ZM.6,12.9H16.164a.6.6,0,0,0,.6-.6V10.8a.6.6,0,0,0-.6-.6H.6a.6.6,0,0,0-.6.6v1.5A.6.6,0,0,0,.6,12.9Zm0,5.987H16.164a.6.6,0,0,0,.6-.6v-1.5a.6.6,0,0,0-.6-.6H.6a.6.6,0,0,0-.6.6v1.5A.6.6,0,0,0,.6,18.886Z" transform="translate(0 -4.219)" fill="#fff"/>
</svg>
