<svg id="icono_baños" data-name="icono baños" xmlns="http://www.w3.org/2000/svg" width="100%" height="100%" viewBox="0 0 35.597 48.223">
  <path id="Trazado_537" data-name="Trazado 537" d="M34.677,21.668H27.6a.92.92,0,0,1-.92-.92V.919A.919.919,0,0,1,27.6,0h7.08a.919.919,0,0,1,.92.919V20.748a.92.92,0,0,1-.92.92m-6.161-1.84h5.241V1.839H28.516Z" fill="#005fc5"/>
  <path id="Trazado_538" data-name="Trazado 538" d="M27.6,19.229H.92a.92.92,0,0,1,0-1.84H27.6a.92.92,0,0,1,0,1.84" fill="#005fc5"/>
  <path id="Trazado_539" data-name="Trazado 539" d="M34.677,48.223H19.257a.92.92,0,0,1-.794-1.385l1.613-2.752a6.409,6.409,0,0,0,.41-5.684A21.435,21.435,0,0,1,.016,20.918a.919.919,0,0,1,.9-1.089H34.677a.92.92,0,0,1,.92.92V47.3a.92.92,0,0,1-.92.92m-13.815-1.84h12.9V21.669H2.06a19.6,19.6,0,0,0,19.019,14.9.92.92,0,0,1,.82.5,8.245,8.245,0,0,1-.236,7.943Z" fill="#005fc5"/>
  <path id="Trazado_540" data-name="Trazado 540" d="M27.6,38.41H21.71a.92.92,0,0,1,0-1.84H27.6a.92.92,0,1,1,0,1.84" fill="#005fc5"/>
</svg>
