<svg id="icono_carrito" data-name="icono carrito" xmlns="http://www.w3.org/2000/svg" xmlns:xlink="http://www.w3.org/1999/xlink" width="35.515" height="30.315" viewBox="0 0 35.515 30.315">
  <defs>
    <clipPath id="clip-path">
      <rect id="Rectángulo_922" data-name="Rectángulo 922" width="35.515" height="30.315" fill="none"/>
    </clipPath>
  </defs>
  <g id="Grupo_85" data-name="Grupo 85" transform="translate(0 0)" clip-path="url(#clip-path)">
    <path id="Trazado_525" data-name="Trazado 525" d="M29.4,1.881a5.174,5.174,0,0,1,.136,2.032l-.111,1.144,4.109-.051.122-1.267a1.591,1.591,0,0,0,.009-.191A1.756,1.756,0,0,0,33.2,2.39a1.6,1.6,0,0,0-1.008-.536,1.133,1.133,0,0,0-.14-.006ZM26.3,13.964,14.592,15.117,12.75,6.676a.919.919,0,0,0,.722.313l4.538-.143A.924.924,0,0,0,17.952,5l-4.538.143a.925.925,0,0,0-.856.657L11.751,2.1l14.62-.185.186.014C27.3,2,27.832,2.362,27.7,3.739l-.13,1.342-4.857.061a.924.924,0,0,0,.022,1.847L27.39,6.93l-.253,2.607-10.731.087a.924.924,0,1,0,.015,1.847l10.537-.085-.012.125a7.052,7.052,0,0,1-.646,2.453m6.146-.676a10.44,10.44,0,0,1-1.241.193l-2.833.279a9.911,9.911,0,0,0,.414-2.075l.03-.314,4.083-.033a9.846,9.846,0,0,1-.453,1.95m1.843-6.466-.062.644h0a.924.924,0,0,0-1.007.833L33.1,9.489,29,9.522l.253-2.615,4.843-.061a.925.925,0,0,0,.2-.024" transform="translate(0 0)" fill="#fc0" fill-rule="evenodd"/>
    <path id="Trazado_526" data-name="Trazado 526" d="M27.266,24.37H26.9a2.051,2.051,0,1,0,.365,0m-14.543.592a2.051,2.051,0,1,0,.6,1.45,2.048,2.048,0,0,0-.6-1.45m.749-17.974a.923.923,0,0,1-.058-1.846L17.952,5a.924.924,0,0,1,.058,1.847ZM29.4,1.881a5.17,5.17,0,0,1,.136,2.031l-.111,1.145L33.537,5l.122-1.266a1.617,1.617,0,0,0,.009-.192A1.753,1.753,0,0,0,33.2,2.39a1.6,1.6,0,0,0-1.008-.536,1.38,1.38,0,0,0-.14-.007ZM27.179,16l.992-.1c1.844-.181,2.969-.624,3.642-1.451A6.32,6.32,0,0,0,32.9,11.337l-4.083.033-.03.314A7.893,7.893,0,0,1,27.179,16m6.039-7.7a.924.924,0,0,1,1.84.174l-.185,1.912c-.228,2.352-.647,4.03-1.625,5.232-1.013,1.244-2.523,1.891-4.9,2.125L12.186,19.333a.931.931,0,0,1-.191.02h-.011l-.173.016a1.2,1.2,0,0,0-.67.4,1.845,1.845,0,0,0,0,2.327,1.144,1.144,0,0,0,.854.418h14.38c2.509,0,4.612,1.114,4.612,3.9a3.9,3.9,0,1,1-7.231-2.042H14.6a3.9,3.9,0,1,1-5.129-1.422,3.68,3.68,0,0,1,.278-4.394,3.211,3.211,0,0,1,.824-.677L9.225,11.7a.926.926,0,0,1,1.811-.391l1.342,6.15,9.823-.967h.009a4.964,4.964,0,0,0,3.526-1.65,6.067,6.067,0,0,0,1.21-3.327l.012-.126-10.537.086a.924.924,0,0,1-.015-1.847l10.731-.087L27.39,6.93l-4.656.058a.923.923,0,1,1-.022-1.846l4.857-.062.13-1.341c.133-1.378-.4-1.734-1.142-1.806-.06-.006-.122-.011-.186-.014L9.034,2.137l.933,4.277a.926.926,0,1,1-1.81.391L7.123,2.068.934,2.152A.924.924,0,1,1,.913.3C11.278.165,21.66.131,32.031,0a3.061,3.061,0,0,1,.336.014,3.46,3.46,0,0,1,2.2,1.13,3.605,3.605,0,0,1,.945,2.381,3.3,3.3,0,0,1-.016.387l-.188,1.949a.926.926,0,0,1-.688.808.916.916,0,0,1-.532.176l-4.842.061L29,9.522,33.1,9.488Z" transform="translate(0 0)" fill="#fff"/>
  </g>
</svg>
