<svg xmlns="http://www.w3.org/2000/svg" xmlns:xlink="http://www.w3.org/1999/xlink" width="24" height="24" viewBox="0 0 34.867 30.256">
  <defs>
    <clipPath id="clip-path">
      <rect id="Rectángulo_8729" data-name="Rectángulo 8729" width="34.867" height="30.256" fill="none"/>
    </clipPath>
  </defs>
  <g id="icon-cart" transform="translate(0 0)">
    <g id="Grupo_15924" data-name="Grupo 15924" transform="translate(0 0)" clip-path="url(#clip-path)">
      <path id="Trazado_69388" data-name="Trazado 69388" d="M33.55,23.177H9.236l-.231-2.305H28.941a1.154,1.154,0,0,0,1.108-.836L34.659,3.9A1.153,1.153,0,0,0,33.55,2.43H7.161L7.036,1.163A1.154,1.154,0,0,0,5.888.125H1.278a1.153,1.153,0,1,0,0,2.305H4.846l2.2,22.014a1.153,1.153,0,0,0,1.148,1.038H9.558a3.414,3.414,0,0,0-.212,1.152,3.458,3.458,0,0,0,6.915,0,3.414,3.414,0,0,0-.212-1.152H25.7a3.415,3.415,0,0,0-.213,1.152,3.458,3.458,0,0,0,6.916,0,3.414,3.414,0,0,0-.212-1.152H33.55a1.153,1.153,0,1,0,0-2.305M32.022,4.736,28.071,18.567H8.775L7.392,4.736Zm-18.066,21.9A1.153,1.153,0,1,1,12.8,25.483a1.154,1.154,0,0,1,1.153,1.152m16.136,0a1.153,1.153,0,1,1-1.152-1.152,1.153,1.153,0,0,1,1.152,1.152" transform="translate(0.019 0.019)" fill="#0071ce"/>
      <path id="Trazado_69389" data-name="Trazado 69389" d="M33.55,23.177H9.236l-.231-2.305H28.941a1.154,1.154,0,0,0,1.108-.836L34.659,3.9A1.153,1.153,0,0,0,33.55,2.43H7.161L7.036,1.163A1.154,1.154,0,0,0,5.888.125H1.278a1.153,1.153,0,1,0,0,2.305H4.846l2.2,22.014a1.153,1.153,0,0,0,1.148,1.038H9.558a3.414,3.414,0,0,0-.212,1.152,3.458,3.458,0,0,0,6.915,0,3.414,3.414,0,0,0-.212-1.152H25.7a3.415,3.415,0,0,0-.213,1.152,3.458,3.458,0,0,0,6.916,0,3.414,3.414,0,0,0-.212-1.152H33.55a1.153,1.153,0,1,0,0-2.305ZM32.022,4.736,28.071,18.567H8.775L7.392,4.736Zm-18.066,21.9A1.153,1.153,0,1,1,12.8,25.483,1.154,1.154,0,0,1,13.957,26.635Zm16.136,0a1.153,1.153,0,1,1-1.152-1.152A1.153,1.153,0,0,1,30.093,26.635Z" transform="translate(0.019 0.019)" fill="none" stroke="#1c355e" stroke-width="0.25"/>
      <path id="Trazado_69390" data-name="Trazado 69390" d="M25.256,9.425H10.272a1.153,1.153,0,0,1,0-2.305H25.256a1.153,1.153,0,0,1,0,2.305" transform="translate(1.398 1.092)" fill="#1c355e"/>
      <path id="Trazado_69391" data-name="Trazado 69391" d="M24.1,13.423H10.271a1.153,1.153,0,0,1,0-2.305H24.1a1.153,1.153,0,0,1,0,2.305" transform="translate(1.398 1.705)" fill="#1c355e"/>
    </g>
  </g>
</svg>
