<?xml version="1.0" encoding="utf-8"?>
<!-- Generator: Adobe Illustrator 28.1.0, SVG Export Plug-In . SVG Version: 6.00 Build 0)  -->
<svg version="1.1" id="Layer_1" xmlns="http://www.w3.org/2000/svg" xmlns:xlink="http://www.w3.org/1999/xlink" x="0px" y="0px"
	 viewBox="0 0 159.9 141.1" style="enable-background:new 0 0 159.9 141.1;" xml:space="preserve">
<style type="text/css">
	.st0{fill:#FFFFFF;}
	.st1{fill:#39BBD8;}
</style>
<g>
	<g>
		<path class="st0" d="M149.5,137.1H10.1c-3.3,0-6.1-2.7-6.1-6.1V9.8c0-3.3,2.7-6.1,6.1-6.1h139.4c3.4,0,6.1,2.7,6.1,6.1v121.3
			C155.5,134.4,152.8,137.1,149.5,137.1z M16.1,125h127.2V15.8H16.1V125z"/>
	</g>
</g>
<path class="st0" d="M74.8,112.5V26.3c0-3.1,2.5-5.5,5.5-5.5c3.1,0,5.5,2.5,5.5,5.5v86.2c0,3.1-2.5,5.5-5.5,5.5
	C77.2,118,74.8,115.5,74.8,112.5z"/>
<path class="st1" d="M40.5,62.4c-1.5,0-2.9-0.6-3.9-1.6L31,55.2c-2.2-2.2-2.2-5.7,0-7.8c2.2-2.2,5.7-2.2,7.8,0l1,1l12.8-17
	c1.8-2.4,5.3-2.9,7.7-1.1c2.4,1.8,2.9,5.3,1.1,7.7L44.9,60.1c-1,1.3-2.4,2.1-4,2.2C40.7,62.3,40.6,62.4,40.5,62.4z"/>
<path class="st1" d="M40.5,106.6c-1.5,0-2.9-0.6-3.9-1.6L31,99.4c-2.2-2.2-2.2-5.7,0-7.8c2.2-2.2,5.7-2.2,7.8,0l1,1l12.8-17
	c1.8-2.4,5.3-2.9,7.7-1.1c2.4,1.8,2.9,5.3,1.1,7.7l-16.6,22.1c-1,1.3-2.4,2.1-4,2.2C40.7,106.6,40.6,106.6,40.5,106.6z"/>
<path class="st1" d="M109,62.4c-1.5,0-2.9-0.6-3.9-1.6l-5.5-5.5c-2.2-2.2-2.2-5.7,0-7.8s5.7-2.2,7.8,0l1,1l12.8-17
	c1.8-2.4,5.3-2.9,7.7-1.1c2.4,1.8,2.9,5.3,1.1,7.7l-16.6,22.1c-1,1.3-2.4,2.1-4,2.2C109.3,62.3,109.2,62.4,109,62.4z"/>
<path class="st1" d="M113.5,104l16.6-22.1c1.8-2.4,1.3-5.9-1.1-7.7c-2.4-1.8-5.9-1.3-7.7,1.1l-12.8,17l-4.3,5.7c0,0-4,4.6,0.5,8.1
	C104.7,106,109.8,109.3,113.5,104z"/>
<path class="st1" d="M121.2,104l-16.6-22.1c-1.8-2.4-1.3-5.9,1.1-7.7c2.4-1.8,5.9-1.3,7.7,1.1l12.8,17l4.3,5.7c0,0,4,4.6-0.5,8.1
	C130,106,124.8,109.3,121.2,104z"/>
</svg>
