<svg width="11" height="12" viewBox="0 0 11 12" fill="none" xmlns="http://www.w3.org/2000/svg">
<path d="M3.22166 5.04506C3.9521 4.31461 5.22603 4.31461 5.95648 5.04506L6.41228 5.50086L7.32389 4.58926L6.86809 4.13345C6.26013 3.52485 5.45039 3.18896 4.58907 3.18896C3.72775 3.18896 2.918 3.52485 2.31005 4.13345L0.941991 5.50086C0.33874 6.10606 0 6.92571 0 7.78021C0 8.63471 0.33874 9.45436 0.941991 10.0595C1.24105 10.359 1.59634 10.5965 1.98745 10.7582C2.37856 10.92 2.79777 11.0029 3.22101 11.0021C3.64436 11.003 4.06371 10.9202 4.45494 10.7584C4.84617 10.5966 5.20156 10.3591 5.50068 10.0595L5.95648 9.60374L5.04487 8.69214L4.58907 9.14794C4.22576 9.50962 3.73398 9.71268 3.22133 9.71268C2.70869 9.71268 2.21691 9.50962 1.8536 9.14794C1.4916 8.7848 1.28833 8.29296 1.28833 7.78021C1.28833 7.26745 1.4916 6.77561 1.8536 6.41247L3.22166 5.04506Z" fill="#fff"/>
<path d="M5.50022 0.942523L5.04441 1.39833L5.95602 2.30993L6.41183 1.85413C6.77513 1.49245 7.26691 1.28939 7.77956 1.28939C8.29221 1.28939 8.78399 1.49245 9.14729 1.85413C9.50929 2.21727 9.71256 2.70911 9.71256 3.22187C9.71256 3.73462 9.50929 4.22646 9.14729 4.5896L7.77924 5.95701C7.04879 6.68746 5.77486 6.68746 5.04441 5.95701L4.58861 5.50121L3.677 6.41281L4.13281 6.86862C4.74076 7.47722 5.5505 7.81311 6.41183 7.81311C7.27315 7.81311 8.08289 7.47722 8.69085 6.86862L10.0589 5.50121C10.6622 4.89602 11.0009 4.07636 11.0009 3.22187C11.0009 2.36737 10.6622 1.54771 10.0589 0.942523C9.45388 0.338957 8.63416 0 7.77956 0C6.92496 0 6.10524 0.338957 5.50022 0.942523Z" fill="#fff"/>
</svg>
