<?xml version="1.0" encoding="utf-8"?>
<!-- Generator: Adobe Illustrator 26.1.0, SVG Export Plug-In . SVG Version: 6.00 Build 0)  -->
<svg version="1.1" id="Capa_1" xmlns="http://www.w3.org/2000/svg" xmlns:xlink="http://www.w3.org/1999/xlink" x="0px" y="0px"
	 viewBox="0 0 539 502" style="enable-background:new 0 0 539 502;" xml:space="preserve">
<style type="text/css">
	.st0{fill:#0373BA;}
	.st1{fill:#FDFEFE;}
	.st2{fill:#5DCBF4;}
</style>
<g>
	<path class="st0" d="M415.5,162.2c1.8,84.5-63.4,152.5-148.5,153.1C184.8,316,119.2,250.4,117.5,169
		c-1.7-82,64.3-150.3,146.7-151.8C345.5,15.8,413.8,81.2,415.5,162.2z M358,69c0,0.2,0.1,0.5,0.1,0.7c0.2-0.1,0.4-0.2,0.5-0.3
		c-0.2-0.1-0.5-0.2-0.7-0.4c0.1-0.7-0.3-1-0.9-1.1c-0.9-1-1.7-2-2.7-2.8C329.2,43.7,300,32.4,267,32.4
		c-34.1-0.1-64.2,11.5-89.8,34.2C165.6,77,155.6,88.7,149,103c-0.2,0.2-0.4,0.4-0.6,0.5c0.4,0,0.8,0,1.2-0.1
		c6.9-0.6,13.5-1.8,18.7-7.1c0.9-0.9,2.2-1.6,3.4-2c7.8-2.7,14.3-7.7,21.5-11.4c5.6-2.8,9.9-2.2,12.1,3.6c1.2,3.2,2.4,3,5.1,1.9
		c7.4-2.9,15.5-3.2,22.8-1.4c13.3,3.2,23,21.6,20,35.1c-1.7,7.8-5.9,14.8-6.8,22.9c-0.4,3.4-3.4,5.5-6.8,6.6
		c-3.9,1.3-6.6,6.2-5.9,10.2c0.4,2,0.9,3.9,1.1,5.9c1.5,13.9-6.6,26.8-18.2,29.3c-4.1,0.9-7.9-0.5-11.8-1.2
		c-10.7-2.1-20.6-1-29.4,6.2c-5.4,4.4-12.1,6.1-18.9,7.1c-4.4,0.7-8.4-1-11-4.6c-1.9-2.7-4.5-3.5-6.8-2.1c-2,1.2,0,3.6,0.5,5.3
		c20,62.4,83.8,101.5,148.6,91c81.6-13.2,132-96.4,106-174.9c-3.3-9.8-3.8-10.1-13.5-7.7c-0.1,0-0.2,0.2-0.6,0.7
		c2.6,3.8,5.1,7.9,7.9,11.8c2.5,3.6,3.6,7.5,3.5,11.7c-0.2,8.5-10.6,14.5-18.2,10.5c-10.8-5.7-20.8-13-33.6-13.6
		c-0.7,0-1.3-0.2-1.9-0.4c-3.2-1.1-6.3-0.8-10-0.7c3.1,3.2,6.2,5.5,8.7,8.2c3,3.2,5.6,4.1,9.9,3c5.9-1.5,10.5,1.2,13.8,6.5
		c3.2,5.1,1.9,10.3,1,15.5c-0.8,4.2-0.5,7.7,2.2,11.2c2.3,2.8,4.2,6,5.9,9.2c2.3,4.4,1.9,8.5-0.6,13.2c-3,5.6-7.1,8.8-13.1,10.3
		c-2.7,0.7-5.1,2.4-7.5,3.8c-5.8,3.5-8.9,8.2-8,15.5c1,8.2-1.3,15.6-6.9,22.2c-6.3,7.3-13.3,14.1-19.3,21.5
		c-8.9,10.9-20.6,15.9-33.1,19.9c-5.6,1.8-11.5,1.7-17.2,0c-4.8-1.5-3.8-6.5-5.3-10c-0.1-0.3-0.3-0.6-0.5-0.9
		c-2.3-5.4-1.6-9.4,3-12.8c2.4-1.8,2.5-3.4,1.6-5.9c-1.3-4-1-7.6,1.6-11.3c2.8-4,3.4-8.9,2.9-13.9c-0.3-3.5-0.9-7-0.7-10.4
		c0.3-4.5-1-8-3.8-11.4c-7.1-8.7-9.8-18.7-8.7-29.8c1-10.1,3.8-19.1,12.9-25.1c4.6-3,8.6-6.9,12.7-10.5c7.3-6.3,15.6-10.1,25.2-10.9
		c3.3-0.3,6.3-1.5,9-3.9c-15.4-1.6-24-10.3-25.9-25.4c-1.4-11.2,0.9-20.6,11.5-26.4c5.4-3,8.3-8.1,10.9-13.3
		c3.3-6.8,8.8-9.4,15.9-10.4c6.6-0.9,13.2,0.2,19.8-1.5c2.3-0.6,4.4,0.9,6.3,2.5c1.6,1.4,3.4,2.6,5.2,3.9
		C356.9,69,357.4,69.5,358,69z M132.5,166.2c0.2,4.6,0.4,9.3,0.8,13.9c0.6,6.9,0.7,6.8,7.7,6.8c4.9,0,10.6-0.7,13.9,3.7
		c2.2,3,3.9,2.4,6.5,1.6c2.3-0.7,4.2-2,6.1-3.3c4.3-3,8.4-7.1,13.8-7.6c9.8-0.8,19.6-4.4,29.4,0.2c2.1,1,5.1,1,6.4-2
		c1.8-3.9,3.4-7.9,2.2-12.5c-3.2-12.4,1.9-21.6,11.4-29c0.8-0.6,1.9-0.9,2-2c0.5-4.5,2.6-8.5,4.1-12.8c1.7-5,1-10.1-0.8-15.1
		c-1.4-3.9-4.3-6.6-8.4-6.7c-8-0.2-15.8,1.8-23.3,4.2c-4.9,1.5-8.7,0.8-12.4-2.4c-0.8-0.7-1.3-1.9-2.8-1c-4.6,2.6-9.5,4.7-13.8,7.8
		c-4.7,3.4-9.7,5.7-15.3,6.8c-5.1,0.9-10.1,2.1-15.2,2.9c-3.2,0.5-4.8,1.9-5.8,5C134.9,138.5,132.6,152.1,132.5,166.2z M273.6,281.9
		c8.2-2.7,17.2-4,23.2-10.6c5.1-5.7,10.9-10.7,16-16.4c7.4-8.3,14.3-16.7,11.2-29.2c-0.7-3,0.8-6.1,2.5-8.9
		c5.4-8.8,13.6-13.9,22.8-17.7c5.4-2.2,5.9-3.1,2.2-7.8c-6.1-7.5-8.5-15.6-5.8-25.1c0.7-2.4,0.1-3.8-2.9-3.1
		c-6.5,1.5-11.7-0.6-15.8-5.9c-2.7-3.5-6-5.3-10.6-2.3c-2.4,1.6-5.5,2.8-8.4,2.9c-16.9,0.6-25.7,14-37.4,22.9
		c-0.4,0.3-0.6,0.8-0.7,1.2c-3,10.2-3.7,20,4,28.7c4.5,5.1,6.7,11.1,6.7,17.8c0,3.2-0.1,6.3,0.3,9.4c1,7.8-0.2,15.2-3.3,22.4
		c-0.7,1.6-1.4,3.1-0.6,4.8C280,271.5,278,276.7,273.6,281.9z M383,99.8c-2.8-4.2-5.5-8.2-8.1-12.2c-1.3-2-2.5-2.4-4.9-1.6
		c-7.5,2.3-14.7,0.8-20.8-3.9c-4.3-3.4-9.1-3.6-14-3.7c-2.1,0-4.3,0.3-6.4,0.3c-3,0.1-5.2,1-6.8,4c-3.9,7.5-8.7,14.2-16.3,18.4
		c-3.4,1.9-4.2,4.8-3.9,8.4c0.2,2.7,0.7,5.3,1.6,7.8c2.3,5.8,6.2,7.9,12.2,6.1c7.8-2.3,15.7-3.2,23.6-1.3c6.3,1.6,12.7,2.5,19.2,2.9
		c3.6,0.2,6.8,1.2,10.1,5c-1.4-6-4.8-9.3-7.2-13.1c-3.2-5-2.1-10,2.9-12.7c2.2-1.2,4.7-1.6,7.1-2.1
		C374.9,101.1,378.8,101.5,383,99.8z"/>
	<path class="st0" d="M435.2,394.8c8.7,0,16.3-0.1,24,0c6.3,0.1,8.9,2.6,8.9,8.8c0.1,20.2,0.1,40.3,0,60.5c0,6.5-2.6,8.9-9.2,8.9
		c-53.3,0-106.6,0-159.9,0c-6.9,0-9.5-2.4-9.5-9.2c-0.1-20-0.1-40,0-60c0-6.4,2.8-8.8,9.3-9c4-0.1,9,1.7,11.6-0.8
		c2.2-2.2,1.6-7.2,2.3-10.9c0.4-2.6,1.2-5.3,1.1-7.9c-0.2-9.2,4.2-15.8,10.9-21.8c9.1-8.3,17.7-17.2,26.2-26.1
		c7.8-8.2,17-11.4,28-8.4c2.7,0.7,4-0.8,5.5-2.3c13.1-13.1,26.2-26,39.2-39.3c7.9-8.1,17-11.4,28-8.6c3.2,0.8,3.2-1,3.5-3.1
		c3-18.3,1.8-36.5-0.8-54.7c-2.6-18.7,0.6-35.4,13.6-49.6c4.1-4.5,8.8-8.1,14.1-11c9.2-4.8,19.2-0.7,21.8,9.2
		c9.2,36,15,72.3,11.1,109.6c-1.1,10.8-3.7,21.2-7.6,31.4c-2.7,7.1-8,12.2-12.4,18C476,342.6,457,366.6,438,390.7
		C437.2,391.8,436.5,392.9,435.2,394.8z M371,394.6c13.2,0,26.3-0.1,39.5,0.1c3.7,0.1,6.1-1,8.4-3.9c22.8-29.1,45.7-58.1,68.6-87.1
		c2.4-3,4.9-5.8,6.2-9.6c3.2-9,5.3-18.2,6.3-27.7c3.4-33.8-1.9-66.7-9.8-99.4c-0.8-3.5-2-3-4.2-1.5c-9.6,6.8-15.6,15.8-17.2,27.5
		c-1.3,9,1,17.9,1.7,26.8c1.5,19.5,2.3,38.9-2.8,58c-0.6,2.2,0,3.8,0.8,5.6c4.1,10,3.3,19.8-4.1,27.5c-16,16.8-32.6,32.9-49,49.3
		c-3,3-6.6,3-10,0.5c-3.8-2.8-3.5-8.1,0.5-12.1c15.2-15.2,30.4-30.4,45.6-45.6c5.6-5.7,5.7-12.2,0.5-17.2c-4.6-4.5-11.4-4-16.8,1.3
		c-14.3,14.2-28.7,28.3-42.7,42.9c-4.9,5.2-9.6,6.9-16.3,3.9c-4.8-2.2-9.4-1.3-13.2,2.6c-10.4,10.5-20.9,21-31.4,31.5
		c-1.4,1.3-2.2,2.8-2.5,4.7c-0.7,5.9-1.3,11.9-2.4,17.8c-0.7,3.7,0.6,4.2,3.8,4.2C344,394.5,357.5,394.6,371,394.6z M378.9,409.9
		c-23.1,0-46.3,0.1-69.4-0.1c-3.8,0-4.8,1.1-4.8,4.8c0.2,13,0.2,26,0,38.9c-0.1,3.6,1.1,4.5,4.6,4.5c46.4-0.1,92.9-0.1,139.3,0
		c3.5,0,4.5-1,4.5-4.5c-0.2-12.8-0.2-25.6,0-38.4c0.1-4.2-1.2-5.3-5.3-5.3C424.8,410,401.9,409.9,378.9,409.9z"/>
	<path class="st0" d="M110.7,394.8c-11.2-14.2-21.7-27.6-32.2-40.9c-11.6-14.8-23.3-29.5-34.9-44.3c-7.1-9.1-9.4-20.1-11.4-31
		c-5.6-31-2.2-61.7,3.5-92.2c1.6-8.3,3.5-16.6,5.5-24.8c3.1-12.6,13.2-16.7,24.4-10c19.1,11.4,29.1,32.9,26.1,55.3
		c-2.5,18.5-4,37.1-1.6,55.7c0.5,4.2,0.6,7.1,6.8,5.6c8.9-2.2,17,1,23.6,7.6c13.5,13.6,27.1,27.1,40.6,40.7c2.1,2.1,3.8,2.7,6.9,2
		c9.1-2.1,17.6-0.2,24.4,6.6c11.8,11.6,23.3,23.3,35,34.9c2.3,2.3,3,5.1,3.4,8.1c1,7.7,2.2,15.5,3.1,23.2c0.3,2.7,1.4,3.8,4.1,3.6
		c3.3-0.2,6.7-0.2,10,0c5,0.2,7.8,2.9,7.8,7.8c0.1,20.8,0.1,41.6,0,62.4c0,5.2-3,7.8-8.3,7.8c-54,0-107.9,0-161.9,0
		c-5.5,0-8.5-2.7-8.5-8.2c-0.1-20.5-0.1-41,0-61.4c0-5.8,3-8.4,8.8-8.5C93.9,394.7,101.7,394.8,110.7,394.8z M174,394.6
		c13.7,0,27.3-0.1,41,0.1c3.7,0.1,4.6-1.2,3.9-4.6c-0.9-4.9-1.5-9.9-2.1-14.8c-0.4-3.6-1.8-6.4-4.5-9c-9.6-9.3-19.1-18.6-28.2-28.3
		c-4.8-5.1-9.9-6.6-16.1-3.8c-5.6,2.5-9.6,1.1-13.7-3.1c-14.4-14.8-29.2-29.3-43.7-43.9c-2-2-4.1-3.8-7.1-4.3
		c-5.2-0.7-9.7,1.4-12.1,6c-2.3,4.3-1.5,9.4,2.3,13.2c15.4,15.5,30.9,30.8,46.3,46.3c4.1,4.1,4.3,8.6,0.8,11.8
		c-3.3,3.2-7.6,2.9-11.5-1c-15.6-15.5-31.1-31.1-46.6-46.7c-6.6-6.7-9.6-15.1-6.8-23.8c2.4-7.5,1.6-14.2,0-21.3
		c-0.3-1.3-0.4-2.6-0.5-3.9c-2.3-19.5-0.9-38.9,1.6-58.2c2-15.3-2.6-27.9-14.4-37.8c-5.9-4.9-6-4.9-7.8,2.7
		c-0.3,1.3-0.6,2.6-0.9,3.9c-7,31.8-12,63.8-7.4,96.5c1.4,10.2,2.7,20.8,9.2,29.2c23.8,30.6,48,61,71.9,91.5
		c1.8,2.3,3.8,3.2,6.7,3.2C147.3,394.5,160.6,394.6,174,394.6z M166.4,457.9c23.2,0,46.3-0.1,69.5,0.1c4.2,0,5.3-1.2,5.2-5.3
		c-0.3-12.7-0.2-25.3,0-38c0-3.5-0.6-5-4.6-4.9c-46.6,0.1-93.3,0.1-139.9,0c-3.6,0-4.5,1.1-4.5,4.6c0.2,13,0.2,26,0,39
		c-0.1,3.9,1.3,4.7,4.9,4.6C120.1,457.8,143.3,457.9,166.4,457.9z"/>
	<path class="st1" d="M357,68c0.6,0.1,1,0.4,0.9,1.1L358,69c-0.7,0.5-1.1,0-1.6-0.3C356.6,68.4,356.8,68.2,357,68z"/>
	<path class="st1" d="M357.9,69.1c0.2,0.1,0.5,0.2,0.7,0.4c-0.2,0.1-0.4,0.2-0.5,0.3c0-0.2-0.1-0.5-0.1-0.7
		C358,69,357.9,69.1,357.9,69.1z"/>
	<path class="st1" d="M149.5,103.5c-0.4,0-0.8,0-1.2,0.1c0.2-0.2,0.4-0.4,0.6-0.5C149.2,103.2,149.4,103.3,149.5,103.5z"/>
	<path class="st2" d="M378.9,409.9c23,0,45.9,0.1,68.9-0.1c4.1,0,5.4,1.1,5.3,5.3c-0.3,12.8-0.2,25.6,0,38.4c0,3.5-1,4.5-4.5,4.5
		c-46.4-0.1-92.9-0.1-139.3,0c-3.4,0-4.6-0.9-4.6-4.5c0.2-13,0.2-26,0-38.9c-0.1-3.7,1-4.8,4.8-4.8
		C332.6,409.9,355.8,409.9,378.9,409.9z"/>
	<path class="st2" d="M166.4,457.9c-23.2,0-46.3-0.1-69.5,0.1c-3.6,0-5-0.7-4.9-4.6c0.2-13,0.2-26,0-39c0-3.4,0.9-4.6,4.5-4.6
		c46.6,0.1,93.3,0.1,139.9,0c4,0,4.6,1.4,4.6,4.9c-0.2,12.7-0.2,25.3,0,38c0.1,4.1-1,5.4-5.2,5.3
		C212.7,457.8,189.6,457.9,166.4,457.9z"/>
</g>
</svg>
