<?xml version="1.0" encoding="utf-8"?>
<!-- Generator: Adobe Illustrator 26.1.0, SVG Export Plug-In . SVG Version: 6.00 Build 0)  -->
<svg version="1.1" id="Capa_1" xmlns="http://www.w3.org/2000/svg" xmlns:xlink="http://www.w3.org/1999/xlink" x="0px" y="0px"
	 viewBox="0 0 481 468" style="enable-background:new 0 0 481 468;" xml:space="preserve">
<style type="text/css">
	.st0{fill:#0373BA;}
	.st1{fill:#FDFEFE;}
	.st2{fill:#5DCBF4;}
	.st3{fill:#4683C0;}
	.st4{fill:#0171B9;}
	.st5{fill:#FCF7E3;}
	.st6{fill:#1B365E;}
	.st7{fill:#444E71;}
	.st8{fill:#FAF6E3;}
	.st9{fill:#B8BA56;}
	.st10{fill:#B7B958;}
	.st11{fill:#999853;}
	.st12{fill:#B7BB68;}
	.st13{fill:#FAF5DE;}
	.st14{fill:#A8AE38;}
	.st15{fill:#85873A;}
	.st16{fill:#A8AE39;}
	.st17{fill:#FBFBF8;}
</style>
<g>
	<path class="st0" d="M-288.5,172.2c1.8,84.5-63.4,152.5-148.5,153.1c-82.2,0.6-147.8-64.9-149.5-146.3
		C-588.2,97-522.2,28.7-439.8,27.2C-358.5,25.8-290.2,91.2-288.5,172.2z M-346,79c0,0.2,0.1,0.5,0.1,0.7c0.2-0.1,0.4-0.2,0.5-0.3
		c-0.2-0.1-0.5-0.2-0.7-0.4c0.1-0.7-0.3-1-0.9-1.1c-0.9-1-1.7-2-2.7-2.8C-374.8,53.7-404,42.4-437,42.4
		c-34.1-0.1-64.2,11.5-89.8,34.2C-538.4,87-548.4,98.7-555,113c-0.2,0.2-0.4,0.4-0.6,0.5c0.4,0,0.8,0,1.2-0.1
		c6.9-0.6,13.5-1.8,18.7-7.1c0.9-0.9,2.2-1.6,3.4-2c7.8-2.7,14.3-7.7,21.5-11.4c5.6-2.8,9.9-2.2,12.1,3.6c1.2,3.2,2.4,3,5.1,1.9
		c7.4-2.9,15.5-3.2,22.8-1.4c13.3,3.2,23,21.6,20,35.1c-1.7,7.8-5.9,14.8-6.8,22.9c-0.4,3.4-3.4,5.5-6.8,6.6
		c-3.9,1.3-6.6,6.2-5.9,10.2c0.4,2,0.9,3.9,1.1,5.9c1.5,13.9-6.6,26.8-18.2,29.3c-4.1,0.9-7.9-0.5-11.8-1.2
		c-10.7-2.1-20.6-1-29.4,6.2c-5.4,4.4-12.1,6.1-18.9,7.1c-4.4,0.7-8.4-1-11-4.6c-1.9-2.7-4.5-3.5-6.8-2.1c-2,1.2,0,3.6,0.5,5.3
		c20,62.4,83.8,101.5,148.6,91c81.6-13.2,132-96.4,106-174.9c-3.3-9.8-3.8-10.1-13.5-7.7c-0.1,0-0.2,0.2-0.6,0.7
		c2.6,3.8,5.1,7.9,7.9,11.8c2.5,3.6,3.6,7.5,3.5,11.7c-0.2,8.5-10.6,14.5-18.2,10.5c-10.8-5.7-20.8-13-33.6-13.6
		c-0.7,0-1.3-0.2-1.9-0.4c-3.2-1.1-6.3-0.8-10-0.7c3.1,3.2,6.2,5.5,8.7,8.2c3,3.2,5.6,4.1,9.9,3c5.9-1.5,10.5,1.2,13.8,6.5
		c3.2,5.1,1.9,10.3,1,15.5c-0.8,4.2-0.5,7.7,2.2,11.2c2.3,2.8,4.2,6,5.9,9.2c2.3,4.4,1.9,8.5-0.6,13.2c-3,5.6-7.1,8.8-13.1,10.3
		c-2.7,0.7-5.1,2.4-7.5,3.8c-5.8,3.5-8.9,8.2-8,15.5c1,8.2-1.3,15.6-6.9,22.2c-6.3,7.3-13.3,14.1-19.3,21.5
		c-8.9,10.9-20.6,15.9-33.1,19.9c-5.6,1.8-11.5,1.7-17.2,0c-4.8-1.5-3.8-6.5-5.3-10c-0.1-0.3-0.3-0.6-0.5-0.9
		c-2.3-5.4-1.6-9.4,3-12.8c2.4-1.8,2.5-3.4,1.6-5.9c-1.3-4-1-7.6,1.6-11.3c2.8-4,3.4-8.9,2.9-13.9c-0.3-3.5-0.9-7-0.7-10.4
		c0.3-4.5-1-8-3.8-11.4c-7.1-8.7-9.8-18.7-8.7-29.8c1-10.1,3.8-19.1,12.9-25.1c4.6-3,8.6-6.9,12.7-10.5c7.3-6.3,15.6-10.1,25.2-10.9
		c3.3-0.3,6.3-1.5,9-3.9c-15.4-1.6-24-10.3-25.9-25.4c-1.4-11.2,0.9-20.6,11.5-26.4c5.4-3,8.3-8.1,10.9-13.3
		c3.3-6.8,8.8-9.4,15.9-10.4c6.6-0.9,13.2,0.2,19.8-1.5c2.3-0.6,4.4,0.9,6.3,2.5c1.6,1.4,3.4,2.6,5.2,3.9
		C-347.1,79-346.6,79.5-346,79z M-571.5,176.2c0.2,4.6,0.4,9.3,0.8,13.9c0.6,6.9,0.7,6.8,7.7,6.8c4.9,0,10.6-0.7,13.9,3.7
		c2.2,3,3.9,2.4,6.5,1.6c2.3-0.7,4.2-2,6.1-3.3c4.3-3,8.4-7.1,13.8-7.6c9.8-0.8,19.6-4.4,29.4,0.2c2.1,1,5.1,1,6.4-2
		c1.8-3.9,3.4-7.9,2.2-12.5c-3.2-12.4,1.9-21.6,11.4-29c0.8-0.6,1.9-0.9,2-2c0.5-4.5,2.6-8.5,4.1-12.8c1.7-5,1-10.1-0.8-15.1
		c-1.4-3.9-4.3-6.6-8.4-6.7c-8-0.2-15.8,1.8-23.3,4.2c-4.9,1.5-8.7,0.8-12.4-2.4c-0.8-0.7-1.3-1.9-2.8-1c-4.6,2.6-9.5,4.7-13.8,7.8
		c-4.7,3.4-9.7,5.7-15.3,6.8c-5.1,0.9-10.1,2.1-15.2,2.9c-3.2,0.5-4.8,1.9-5.8,5C-569.1,148.5-571.4,162.1-571.5,176.2z
		 M-430.4,291.9c8.2-2.7,17.2-4,23.2-10.6c5.1-5.7,10.9-10.7,16-16.4c7.4-8.3,14.3-16.7,11.2-29.2c-0.7-3,0.8-6.1,2.5-8.9
		c5.4-8.8,13.6-13.9,22.8-17.7c5.4-2.2,5.9-3.1,2.2-7.8c-6.1-7.5-8.5-15.6-5.8-25.1c0.7-2.4,0.1-3.8-2.9-3.1
		c-6.5,1.5-11.7-0.6-15.8-5.9c-2.7-3.5-6-5.3-10.6-2.3c-2.4,1.6-5.5,2.8-8.4,2.9c-16.9,0.6-25.7,14-37.4,22.9
		c-0.4,0.3-0.6,0.8-0.7,1.2c-3,10.2-3.7,20,4,28.7c4.5,5.1,6.7,11.1,6.7,17.8c0,3.2-0.1,6.3,0.3,9.4c1,7.8-0.2,15.2-3.3,22.4
		c-0.7,1.6-1.4,3.1-0.6,4.8C-424,281.5-426,286.7-430.4,291.9z M-321,109.8c-2.8-4.2-5.5-8.2-8.1-12.2c-1.3-2-2.5-2.4-4.9-1.6
		c-7.5,2.3-14.7,0.8-20.8-3.9c-4.3-3.4-9.1-3.6-14-3.7c-2.1,0-4.3,0.3-6.4,0.3c-3,0.1-5.2,1-6.8,4c-3.9,7.5-8.7,14.2-16.3,18.4
		c-3.4,1.9-4.2,4.8-3.9,8.4c0.2,2.7,0.7,5.3,1.6,7.8c2.3,5.8,6.2,7.9,12.2,6.1c7.8-2.3,15.7-3.2,23.6-1.3c6.3,1.6,12.7,2.5,19.2,2.9
		c3.6,0.2,6.8,1.2,10.1,5c-1.4-6-4.8-9.3-7.2-13.1c-3.2-5-2.1-10,2.9-12.7c2.2-1.2,4.7-1.6,7.1-2.1
		C-329.1,111.1-325.2,111.5-321,109.8z"/>
	<path class="st0" d="M-268.8,404.8c8.7,0,16.3-0.1,24,0c6.3,0.1,8.9,2.6,8.9,8.8c0.1,20.2,0.1,40.3,0,60.5c0,6.5-2.6,8.9-9.2,8.9
		c-53.3,0-106.6,0-159.9,0c-6.9,0-9.5-2.4-9.5-9.2c-0.1-20-0.1-40,0-60c0-6.4,2.8-8.8,9.3-9c4-0.1,9,1.7,11.6-0.8
		c2.2-2.2,1.6-7.2,2.3-10.9c0.4-2.6,1.2-5.3,1.1-7.9c-0.2-9.2,4.2-15.8,10.9-21.8c9.1-8.3,17.7-17.2,26.2-26.1
		c7.8-8.2,17-11.4,28-8.4c2.7,0.7,4-0.8,5.5-2.3c13.1-13.1,26.2-26,39.2-39.3c7.9-8.1,17-11.4,28-8.6c3.2,0.8,3.2-1,3.5-3.1
		c3-18.3,1.8-36.5-0.8-54.7c-2.6-18.7,0.6-35.4,13.6-49.6c4.1-4.5,8.8-8.1,14.1-11c9.2-4.8,19.2-0.7,21.8,9.2
		c9.2,36,15,72.3,11.1,109.6c-1.1,10.8-3.7,21.2-7.6,31.4c-2.7,7.1-8,12.2-12.4,18c-18.9,24.1-37.9,48.1-56.9,72.2
		C-266.8,401.8-267.5,402.9-268.8,404.8z M-333,404.6c13.2,0,26.3-0.1,39.5,0.1c3.7,0.1,6.1-1,8.4-3.9
		c22.8-29.1,45.7-58.1,68.6-87.1c2.4-3,4.9-5.8,6.2-9.6c3.2-9,5.3-18.2,6.3-27.7c3.4-33.8-1.9-66.7-9.8-99.4c-0.8-3.5-2-3-4.2-1.5
		c-9.6,6.8-15.6,15.8-17.2,27.5c-1.3,9,1,17.9,1.7,26.8c1.5,19.5,2.3,38.9-2.8,58c-0.6,2.2,0,3.8,0.8,5.6c4.1,10,3.3,19.8-4.1,27.5
		c-16,16.8-32.6,32.9-49,49.3c-3,3-6.6,3-10,0.5c-3.8-2.8-3.5-8.1,0.5-12.1c15.2-15.2,30.4-30.4,45.6-45.6
		c5.6-5.7,5.7-12.2,0.5-17.2c-4.6-4.5-11.4-4-16.8,1.3c-14.3,14.2-28.7,28.3-42.7,42.9c-4.9,5.2-9.6,6.9-16.3,3.9
		c-4.8-2.2-9.4-1.3-13.2,2.6c-10.4,10.5-20.9,21-31.4,31.5c-1.4,1.3-2.2,2.8-2.5,4.7c-0.7,5.9-1.3,11.9-2.4,17.8
		c-0.7,3.7,0.6,4.2,3.8,4.2C-360,404.5-346.5,404.6-333,404.6z M-325.1,419.9c-23.1,0-46.3,0.1-69.4-0.1c-3.8,0-4.8,1.1-4.8,4.8
		c0.2,13,0.2,26,0,38.9c-0.1,3.6,1.1,4.5,4.6,4.5c46.4-0.1,92.9-0.1,139.3,0c3.5,0,4.5-1,4.5-4.5c-0.2-12.8-0.2-25.6,0-38.4
		c0.1-4.2-1.2-5.3-5.3-5.3C-279.2,420-302.1,419.9-325.1,419.9z"/>
	<path class="st0" d="M-593.3,404.8c-11.2-14.2-21.7-27.6-32.2-40.9c-11.6-14.8-23.3-29.5-34.9-44.3c-7.1-9.1-9.4-20.1-11.4-31
		c-5.6-31-2.2-61.7,3.5-92.2c1.6-8.3,3.5-16.6,5.5-24.8c3.1-12.6,13.2-16.7,24.4-10c19.1,11.4,29.1,32.9,26.1,55.3
		c-2.5,18.5-4,37.1-1.6,55.7c0.5,4.2,0.6,7.1,6.8,5.6c8.9-2.2,17,1,23.6,7.6c13.5,13.6,27.1,27.1,40.6,40.7c2.1,2.1,3.8,2.7,6.9,2
		c9.1-2.1,17.6-0.2,24.4,6.6c11.8,11.6,23.3,23.3,35,34.9c2.3,2.3,3,5.1,3.4,8.1c1,7.7,2.2,15.5,3.1,23.2c0.3,2.7,1.4,3.8,4.1,3.6
		c3.3-0.2,6.7-0.2,10,0c5,0.2,7.8,2.9,7.8,7.8c0.1,20.8,0.1,41.6,0,62.4c0,5.2-3,7.8-8.3,7.8c-54,0-107.9,0-161.9,0
		c-5.5,0-8.5-2.7-8.5-8.2c-0.1-20.5-0.1-41,0-61.4c0-5.8,3-8.4,8.8-8.5C-610.1,404.7-602.3,404.8-593.3,404.8z M-530,404.6
		c13.7,0,27.3-0.1,41,0.1c3.7,0.1,4.6-1.2,3.9-4.6c-0.9-4.9-1.5-9.9-2.1-14.8c-0.4-3.6-1.8-6.4-4.5-9c-9.6-9.3-19.1-18.6-28.2-28.3
		c-4.8-5.1-9.9-6.6-16.1-3.8c-5.6,2.5-9.6,1.1-13.7-3.1c-14.4-14.8-29.2-29.3-43.7-43.9c-2-2-4.1-3.8-7.1-4.3
		c-5.2-0.7-9.7,1.4-12.1,6c-2.3,4.3-1.5,9.4,2.3,13.2c15.4,15.5,30.9,30.8,46.3,46.3c4.1,4.1,4.3,8.6,0.8,11.8
		c-3.3,3.2-7.6,2.9-11.5-1c-15.6-15.5-31.1-31.1-46.6-46.7c-6.6-6.7-9.6-15.1-6.8-23.8c2.4-7.5,1.6-14.2,0-21.3
		c-0.3-1.3-0.4-2.6-0.5-3.9c-2.3-19.5-0.9-38.9,1.6-58.2c2-15.3-2.6-27.9-14.4-37.8c-5.9-4.9-6-4.9-7.8,2.7
		c-0.3,1.3-0.6,2.6-0.9,3.9c-7,31.8-12,63.8-7.4,96.5c1.4,10.2,2.7,20.8,9.2,29.2c23.8,30.6,48,61,71.9,91.5
		c1.8,2.3,3.8,3.2,6.7,3.2C-556.7,404.5-543.4,404.6-530,404.6z M-537.6,467.9c23.2,0,46.3-0.1,69.5,0.1c4.2,0,5.3-1.2,5.2-5.3
		c-0.3-12.7-0.2-25.3,0-38c0-3.5-0.6-5-4.6-4.9c-46.6,0.1-93.3,0.1-139.9,0c-3.6,0-4.5,1.1-4.5,4.6c0.2,13,0.2,26,0,39
		c-0.1,3.9,1.3,4.7,4.9,4.6C-583.9,467.8-560.7,467.9-537.6,467.9z"/>
	<path class="st1" d="M-347,78c0.6,0.1,1,0.4,0.9,1.1l0.1-0.1c-0.7,0.5-1.1,0-1.6-0.3C-347.4,78.4-347.2,78.2-347,78z"/>
	<path class="st1" d="M-346.1,79.1c0.2,0.1,0.5,0.2,0.7,0.4c-0.2,0.1-0.4,0.2-0.5,0.3c0-0.2-0.1-0.5-0.1-0.7
		C-346,79-346.1,79.1-346.1,79.1z"/>
	<path class="st1" d="M-554.5,113.5c-0.4,0-0.8,0-1.2,0.1c0.2-0.2,0.4-0.4,0.6-0.5C-554.8,113.2-554.6,113.3-554.5,113.5z"/>
	<path class="st2" d="M-325.1,419.9c23,0,45.9,0.1,68.9-0.1c4.1,0,5.4,1.1,5.3,5.3c-0.3,12.8-0.2,25.6,0,38.4c0,3.5-1,4.5-4.5,4.5
		c-46.4-0.1-92.9-0.1-139.3,0c-3.4,0-4.6-0.9-4.6-4.5c0.2-13,0.2-26,0-38.9c-0.1-3.7,1-4.8,4.8-4.8
		C-371.4,419.9-348.2,419.9-325.1,419.9z"/>
	<path class="st2" d="M-537.6,467.9c-23.2,0-46.3-0.1-69.5,0.1c-3.6,0-5-0.7-4.9-4.6c0.2-13,0.2-26,0-39c0-3.4,0.9-4.6,4.5-4.6
		c46.6,0.1,93.3,0.1,139.9,0c4,0,4.6,1.4,4.6,4.9c-0.2,12.7-0.2,25.3,0,38c0.1,4.1-1,5.4-5.2,5.3
		C-491.3,467.8-514.4,467.9-537.6,467.9z"/>
</g>
<g>
	<path class="st3" d="M404.6,213.2c8.8,0.7,8.8,0.7,8.8,10c0,3.2,0.1,6.4,0.1,9.6c0,28.1-0.1,56.1-0.1,84.2c0,9.5,0,9.5-9.6,9.7
		c-3.8,0.1-7.6,0.2-11.4,0.3c-7.1-0.4-14.2-0.4-21.3,0c-1.7,0-3.4,0-5.1,0c-9.8-0.1-19.7-0.2-29.5-0.2c-30.9-0.1-61.7-0.1-92.6-0.2
		c0-37.6,0-75.3,0-112.9c3.2-0.1,6.5-0.2,9.7-0.4c15.6,0.4,31.2,0.4,46.9,0c22,0.1,44,0.2,66,0.2c8.6,0,17.3-0.1,25.9-0.2
		C396.5,213.6,400.6,213.6,404.6,213.2z M350.7,236.7c-3.2,0-6.5,0.2-9.7-0.2c-3.8-0.4-4.9,1-5.4,4.7c-2.6,19.2-5.5,38.3-8.3,57.5
		c-0.2-1.4-0.5-2.9-0.5-4.3c0.1-6.3,0.9-12.9-1.5-18.7c-1.9-4.7-2.2-7.8,0.1-12.6c2.8-5.9,1.8-12.9-0.1-19.4c-1.4-4.7-4.4-7-9.3-7.2
		c-2.2-0.1-4.4,0.1-6.6,0.1c-5.9,0-11.8,0.1-17.6-0.2c-3.6-0.2-4.7,0.8-4.7,4.5c0.2,18.3,0.1,36.7,0.1,55c0,10.6,0,10.6,10.6,10.1
		c8.8,0.4,8.8,0.4,9-8.1c1.5,2.5-1.3,6.5,1.8,7.9c2.4,1.1,5.7,0.3,8.6,0.3c0.3,0,0.6-0.1,0.9-0.1c2.9,0,5.7,0,8.6,0
		c3.3,0,6.7,0,10,0c8.6,0.4,8.6,0.4,9.8-8.2c0.2-1.3,0.4-2.6,0.6-3.9c2.7-0.7,2.7,1.2,2.9,3c1.3,9.5,1.3,9.5,10.8,9.1
		c0.1,0,0.3,0,0.4-0.1c2.1,0,4.1,0,6.2,0.1c2.2,0.1,2.8-0.8,2.5-2.9c-3.1-19.5-6-39-9.2-58.5C359.3,236.3,359.1,236.3,350.7,236.7z
		 M275.7,306.2c1.3,0,2.7,0,3.9,0.2c3.7,0.5,5.2-0.6,4.9-4.7c-0.6-7.7-0.6-15.5-0.9-23.2c-0.1-2.8-0.8-5.5-3-7.6
		c-0.7-0.6-2.1-1.4-0.9-2.4c5.2-4.4,3.8-10.4,3.9-16c0.1-13.5-3-16.4-16.7-15.8c-5.9,0-11.8,0.1-17.6-0.2c-3.6-0.2-4.7,0.8-4.7,4.5
		c0.2,18.3,0.1,36.7,0.1,55c0,10.6,0,10.6,10.6,10.1c8.8,0.4,8.8,0.4,9-8.1c1.5,2.5-1.3,6.5,1.8,7.9c2.4,1.1,5.7,0.3,8.6,0.3
		C275.1,306.3,275.4,306.2,275.7,306.2z"/>
	<path class="st4" d="M243.9,213.7c0,37.6,0,75.3,0,112.9c-0.3,0.1-0.5,0.3-0.6,0.6c-1.6,0-3.2,0-4.8,0c-48.2,0-96.4-0.1-144.6-0.1
		c-3.3-0.1-6.7-0.7-10,0.3c-0.1-0.2-0.2-0.4-0.4-0.5c-1.3-0.1-2.7-0.3-4-0.1c-4.3,0.7-5.9-1.1-5.3-5.3c0.2-1.1,0-2.3,0-3.5
		c-0.1-28.3-0.1-56.7-0.2-85c0-5,0.3-10,0-14.9c-0.3-3.9,1.2-4.9,4.7-4.4c1.4,0.2,2.9-0.1,4.4-0.2c3.9,0,7.9,0,11.8,0
		c0.5,0,1,0,1.6,0c19.1,0.1,38.2,0.2,57.4,0.2c30,0,60-0.1,90-0.1L243.9,213.7z M136.1,294.1c2.5-0.2,1.8,1.8,2,3
		c1.4,9.6,1.4,9.6,11.3,9c3.3,0,6.5,0,9.8,0c3.5,0,7.1,0,10.6,0c1.2,0,2.4,0,3.5,0.2c4.4,0.8,5.7-0.9,5.5-5.4
		c-0.4-9-0.1-18.1-0.1-27.1c1.5,0.9,0.7,2.4,0.7,3.6c0.1,6.3,0,12.6,0,18.9c0,10.4,0,10.4,10.7,9.9c1,0,2,0.1,3.1,0.1
		c6.7-0.1,5.8,0.7,5.8-5.9c0-18.5,0-36.9,0-55.4c0-8.8,0-8.8-8.9-8.4c-2.6,0-5.3,0-7.9-0.2c-2.4-0.2-2.9,0.9-2.9,3
		c0.1,5.3,0.2,10.5,0,15.8c-0.1,3.1,0.9,6.3-0.7,9.3c0-6.6,0-13.1,0-19.7c0-8.7,0-8.7-8.9-8.3c-1.8,0-3.5,0.1-5.3-0.2
		c-4.3-0.7-5.5,0.8-5.5,5.3c0.2,20.3,0,40.7,0,61c-0.2-0.4-0.5-0.8-0.5-1.2c-3-18.9-6-37.8-8.9-56.7c-1.3-8.7-1.2-8.7-10.7-8.2
		c-3.8,0-7.6,0.1-11.4-0.2c-2.6-0.2-3.1,1.1-3.4,3.3c-2.7,19-5.4,38-8.1,57c-1.4,9.9-1.4,9.9,8.9,9.4c9.4,0.5,9.4,0.5,10.9-8.6
		C135.8,296.4,135.9,295.3,136.1,294.1z M222.3,236c-13.6-1.5-20.2,3.5-20.6,16.2c-0.4,12.8-0.4,25.5,0.1,38.3
		c0.5,12.9,7.3,18.1,20,16.3c12.3,1.5,19.1-2.4,20.2-12.6c1.6-15.3,1.6-30.8,0-46.1c-0.8-8.3-6.1-12.3-14.4-12.3
		C225.8,235.7,224,235.9,222.3,236z"/>
	<path class="st5" d="M95,213.3c-3.9,0-7.9,0-11.8,0c0-47.9,0.1-95.9-0.1-143.8c0-3.9,1.3-5.2,4.9-6.1c29.7-7.1,59.4-14.4,89.1-21.6
		c21.2-5.1,42.4-10.2,63.5-15.3c2.2-0.5,4.3-0.5,6.4,0c21,5.2,42,10.3,63.1,15.4c29.8,7.2,59.7,14.5,89.6,21.5
		c4,0.9,4.9,2.7,4.9,6.5c-0.1,47.8-0.1,95.6-0.1,143.4c-4.1,0.4-8.2,0.4-12.2,0c0-43.6-0.1-87.3,0.1-130.9c0-4.4-1.5-5.6-5.4-6.5
		c-36.1-8.7-72.1-17.5-108.1-26.3c-11.7-2.8-23.4-5.4-35.1-8.1c-1.6-0.2-3.2,0.3-4.8,0.7c-12.5,3.1-25.1,6.1-37.6,9.2
		c-34.1,8.3-68.2,16.6-102.2,24.8c-2.4,0.6-4.1,1.2-4.1,4.4C95.2,124.8,95.1,169,95,213.3z"/>
	<path class="st6" d="M74.2,232.8c0.1,28.3,0.1,56.7,0.2,85c0,1.2,0.2,2.4,0,3.5c-0.7,4.2,0.9,6,5.3,5.3c1.3-0.2,2.6,0.1,4,0.1
		c0,0.3,0.1,0.4,0.4,0.5c-0.6,2.5-0.9,5,0.2,7.5l-0.1,0l0.2,0c5,3.7,10,7.3,15,11c-4.8,0.1-9.7,0.3-14.5,0.3c-20.9,0-41.8,0-62.7,0
		c-1.6,0-3.1,0-4.7,0c-0.1-2.2,1.1-3.4,1.9-4.7c9.2-16.2,18.5-32.4,27.9-48.5c1.4-2.5,1.4-4.3,0-6.8c-9.6-16.5-19-33.1-28.6-49.6
		c-1.7-2.9-1.6-3.8,2.1-3.8C38.3,232.9,56.2,232.8,74.2,232.8z"/>
	<path class="st7" d="M403.8,326.7c9.6-0.2,9.6-0.2,9.6-9.7c0-28.1,0.1-56.1,0.1-84.2c19,0,37.9,0,56.9,0c0.5,2.1-0.9,3.2-1.6,4.5
		c-9.4,16.5-18.7,32.9-28.3,49.3c-1.3,2.2-1.3,3.7,0,5.9c9.4,16.3,18.7,32.6,28.1,48.9c0.8,1.4,1.9,2.6,2,4.7c-27.4,0-54.7,0-82,0
		c2.6-3,6-5.2,9.4-7C403.5,336.4,405,332.3,403.8,326.7z"/>
	<path class="st8" d="M403.8,326.7c1.2,5.6-0.4,9.7-5.8,12.5c-3.4,1.8-6.8,4-9.4,7c-8.8,6-17.7,11.9-26.4,18
		c-15.2,10.7-30.4,21.5-45.6,32.2c-22.5,15.8-45.1,31.5-67.6,47.5c-4,2.8-6.6,2.9-10.7-0.1c-20.2-14.6-40.7-28.6-61.1-42.9
		c-24.1-16.9-48.1-33.9-72.2-50.8c-2-1.4-4.1-2.8-6.1-4.1c-5-3.7-10-7.3-15-11c0,0,0-0.1,0-0.1c-1.1-2.5-0.8-5-0.2-7.5
		c0,0,0.1-0.1,0.1-0.1c3.3-1.1,6.6-0.5,10-0.3c0.4,0.2,0.8,0.4,1.2,0.5c1,0.9,1.9,1.8,3,2.5c47.2,33.2,94.4,66.3,141.6,99.4
		c1.3,0.9,2.3,2.3,4.2,2.2c1.1-0.6,2.3-1.2,3.4-1.9c46.1-32.3,92.1-64.6,138.1-97c2.4-1.7,5.6-2.7,6.9-5.8
		C396.2,326.9,400,326.8,403.8,326.7z"/>
	<path class="st9" d="M243.9,41.4c11.7,2.7,23.4,5.3,35.1,8.1c36,8.7,72,17.6,108.1,26.3c3.8,0.9,5.4,2.2,5.4,6.5
		c-0.2,43.6-0.1,87.3-0.1,130.9c-8.6,0.1-17.3,0.2-25.9,0.2c-22,0-44-0.1-66-0.2c-0.2-0.5-0.4-0.9-0.6-1.4c0-4.3-0.2-8.5,0-12.8
		c0.1-2.5-1-3.4-3-3.9c0-0.4,0-0.8,0-1.2c2.7-3.6,5.3-7.4,8.2-10.9c7-8.5,9.1-19.1,10.9-29.3c1.5-8.7,0.1-17.9,0.2-26.8
		c0-3.2-1.6-4.1-4.4-4.1c-4.7-0.1-7.9,2.6-8.9,7.4c-1,5.2-0.4,10.5-0.5,15.8c-0.1,2.3-0.5,3.7-3.3,3.1c-3.6-0.8-6.6,0.6-9.2,3
		c-4.1,3.8-7.8,8.3-12.5,11c-11.4,6.4-16.7,15.6-16.2,28.4c0.1,2.4-0.3,4-3.3,3.8c-3-0.3-3.6,1.5-3.5,4.1c0.1,4.1,0,8.2-0.1,12.3
		c-0.2,0.5-0.4,0.9-0.5,1.4c-3.2,0.1-6.5,0.2-9.7,0.4c0,0,0.1-0.3,0.1-0.3c0-0.2-0.1-0.4-0.1-0.7c0-15.9,0.1-31.9,0.1-47.8
		c2.9-0.1,5.9,0.2,8.8-0.3c20.3-3.4,31.7-21.6,26.1-42.2c-5.5-20.1-17.9-36.2-30.6-52.1c-1.9-2.4-2.9-0.5-4.1,0.6
		c-1-3.1,1.1-6.7-1.6-9.6c0.5-0.9,0.5-1.9,0.1-2.9c1.7-1.1,1.2-2.8,1.3-4.4C244,49.9,243.9,45.7,243.9,41.4z M345.4,145.6
		c4.5-3.1,8.9-4.5,13.3,0.2c0.1,0.1,0.4-0.1,0.6-0.2c-1.6-6.6-1.6-6.6,4-12.8c-7.3,2.2-9.7-1.9-11.1-7.7c-1.1,6.4-4.1,9.6-11.5,8.3
		c7.4,2.3,6.4,6.9,4.7,11.7C345.4,145.4,345.5,145.5,345.4,145.6c0,0.2-0.1,0.3-0.2,0.4C345.3,145.8,345.4,145.7,345.4,145.6z
		 M381.7,91.7c-0.1-1.4-1-2.9-3-3.1c-1-0.1-2.4,0.8-2.2,2.2c0.3,1.9,1.1,3.9,3.1,4.3C381.1,95.3,381.7,93.8,381.7,91.7z
		 M381.7,139.9c0-1.6,0.1-3.7-2-3.7c-2,0-2.3,1.9-2.4,3.5c-0.1,1.7,0.5,3,2.3,3.2C381.7,143.1,381.7,141.4,381.7,139.9z M273.7,65.7
		c-0.8-1.7-1.8-3.1-3.9-3c-1.7,0-2.4,1.2-2.4,2.6c0,2.2,2,2.3,3.5,2.5C272.1,68,273.4,67.3,273.7,65.7z M377.2,107.4
		c0.1,1.4-0.4,3.4,1.9,3.6c2.2,0.2,2.5-1.5,2.5-3.3c0-1.7,0-3.5-2.2-3.6C377.4,104.2,377.2,105.7,377.2,107.4z M377.2,203.8
		c0.1,1.6-0.2,3.6,2.2,3.5c2.2,0,2.2-1.9,2.2-3.5c0-1.5-0.1-3.1-2.1-3.3C377.2,200.3,377.3,202.1,377.2,203.8z M381.7,123.5
		c0-1.7-0.1-3.4-2.4-3.4c-2.1,0.1-2,1.7-2,3.2c0,1.6-0.3,3.6,2.1,3.6C381.6,127,381.7,125.2,381.7,123.5z M320.7,76.9
		c-0.5-1.9-1.6-2.9-3.7-2.8c-1.6,0.1-2.5,0.5-2.4,2.3c0.1,2.7,2.4,2.1,3.9,2.5C319.8,79.2,320.6,78.4,320.7,76.9z M363.5,84.7
		c-1.4,0-2.2,0.7-2.1,2.1c0.1,1.9,1.3,2.9,3.1,3c1.3,0,2.9-0.6,2.7-2.1C366.9,86,365.5,84.8,363.5,84.7z M333.3,82.1
		c1.4-0.2,3.4-0.1,3.1-2.1c-0.3-2-2.6-2-4.3-2.3c-1.3-0.2-2.5,0.4-2.3,1.9C330.1,81.4,331.4,82.3,333.3,82.1z M381.7,187.8
		c-0.1-1.4,0.3-3.2-1.9-3.2c-1.8,0-2.5,1.3-2.5,3c0,1.7,0.7,2.9,2.5,3C381.6,190.6,381.7,189.2,381.7,187.8z M381.7,171.7
		c0-1.5,0-3.2-2.2-3c-1.5,0.1-2.2,1.3-2.3,2.8c-0.1,1.7,0.5,3,2.3,3.2C381.7,174.9,381.7,173.2,381.7,171.7z M381.7,156
		c-0.1-1.4,0.2-3.2-2-3.2c-1.8,0-2.5,1.3-2.5,3c0,1.7,0.7,2.9,2.5,3C381.6,158.8,381.7,157.4,381.7,156z M302.2,75
		c1.4,0.1,2.9-0.2,2.7-2.2c-0.2-2.2-2-2.1-3.6-2.3c-1.5-0.1-2.6,0.2-2.6,2C298.7,74.7,300.2,75,302.2,75z M351.8,84.1
		c0.2-2.4-2-2.3-3.3-2.6c-1.3-0.3-2.7,0.5-2.9,2c-0.3,2.5,2.1,2.5,3.6,2.8C350.7,86.8,351.5,85.6,351.8,84.1z M255.6,64.4
		c1.8-0.1,2.5-1.1,2.5-2.6c0-2.3-2.2-2.2-3.5-2.4c-1.3-0.2-2.7,0.7-2.7,2.2C252,64.1,254.4,63.7,255.6,64.4z M286,67.1
		c-1.4,0.2-3.4,0.1-3,2.1c0.3,1.9,2.4,2,3.9,2.1c1.2,0.1,2.9-0.5,2.5-2.2C289.1,67.4,287.7,66.8,286,67.1z"/>
	<path class="st10" d="M392.4,327c-1.3,3.1-4.5,4.1-6.9,5.8c-46,32.4-92.1,64.7-138.1,97c-1.1,0.7-2.3,1.3-3.4,1.9
		c0-19.2,0-38.5,0-57.7c0-1.7-0.7-3.6,0.9-4.9c3.2,5.9,7,6.9,12.9,3.4c0.8-0.5,1.4-1,2.2-1.5c0.6-0.4,1.5-0.9,1.5,0.4
		c0.1,3,2.2,2.3,3.8,2.1c2.3-0.2,1.5-2.2,1.5-3.5c0.1-11.5,0-22.9,0-34.4c0-1.7,0.4-3.5-2.4-3.6c-3-0.1-2.8,1.7-2.8,3.7
		c0,9.1,0,18.2,0,27.3c0,4.1-3.1,7.3-7,7.2c-4.7-0.1-4.3-3.6-4.3-6.7c-0.1-8.8-0.3-17.6,0.1-26.4c0.2-4.4-1.3-5.8-5.4-5.1
		c-1.6-1.4-0.7-3.3-1-4.9c-0.2,0.2-0.3,0.2-0.6,0.1c0.1-0.2,0.3-0.4,0.6-0.6c30.9,0.1,61.7,0.1,92.6,0.2c9.8,0,19.7,0.2,29.5,0.2
		c-0.3,1.3,0.1,2.2,1.6,2.3c1.8,0.1,3-0.5,3.5-2.3C378.2,326.6,385.3,326.6,392.4,327z M294.5,370c0.5,5.2,5.6,2.9,8.3,4.9
		c0.6,0.4,3.4-1,3.5-3c0.1-1.4-1.6-2.2-2.6-1.8c-5.2,2-4.1-1.7-4.1-4.4c-0.1-2.5,0.1-5,0-7.5c-0.3-6.4,0.8-13-0.7-19.3
		c-1.2-5.3-4.6-7.7-9.8-7.5c-5.6,0.2-9.6,3.2-10.5,8.2c-0.3,1.6-1.6,4,1.7,4.5c2.5,0.3,3.1-1,3.4-3.3c0.6-4.2,4.4-6.5,7.5-4.8
		c3.2,1.8,2.9,5.2,3,8.2c0.1,2.5,0.5,4.9-2.8,6.1c-3.6,1.3-7,3.1-9.9,5.7c-4.7,4.1-5.3,11.5-1.5,15.9c3.4,3.8,8.1,3.4,13.4-1.4
		C293.6,370.2,293.9,370.2,294.5,370z M345.4,344c-0.1-1.5-1-2.3-2.3-2.1c-2.1,0.3-3.5,1.7-3.6,3.8c-0.1,1.9,1.6,2.1,2.8,1.9
		C344.3,347.4,345.1,345.8,345.4,344z M247.6,410.4c0,1.4,1.2,1.7,2.4,1.7c2.4,0,3.3-1.7,3.6-3.7c0.2-1.4-0.9-2.3-2.2-2.1
		C249.2,406.6,247.9,407.9,247.6,410.4z M319.5,362.4c-0.2-1.4-1-2.3-2.4-2.1c-1.8,0.3-3.5,0.7-3.5,3.1c0,1.5,0.7,2.1,2.1,2
		C317.8,365.3,319.1,364.3,319.5,362.4z M357.8,335.5c0.1-1.7-0.6-2.7-2.2-2.5c-1.8,0.3-2.7,1.7-2.9,3.4c-0.2,1.7,0.8,2.6,2.3,2.3
		C356.7,338.4,358.1,337.5,357.8,335.5z M277.2,388.5c-1.7,0.1-2.6,1.4-3,3c-0.4,1.5,0.5,2.1,1.9,2.1c1.9,0,3-0.8,3.2-2.7
		C279.3,389.6,278.8,388.7,277.2,388.5z M329,356.5c1.7-0.2,2.7-1.4,3-3.1c0.3-1.6-1.1-1.9-2.3-2c-1.8-0.2-2.6,0.9-2.8,2.6
		C326.8,355.5,327.3,356.3,329,356.5z M289.3,384c1.7-0.1,3.1-0.4,3.1-2.6c0-1.7-1-2-2.3-1.7c-1.7,0.3-3.6,0.8-3.6,3
		C286.6,384.3,288.2,383.9,289.3,384z M265.9,399.6c0.1-1.6-1.1-1.6-2.3-1.4c-1.7,0.3-3.2,1-3,3c0.1,1.7,1.7,1.3,2.7,1.3
		C265.1,402.5,266.1,401.7,265.9,399.6z"/>
	<path class="st5" d="M297.8,306.2c-10.6,0.5-10.6,0.5-10.6-10.1c0-18.3,0.1-36.7-0.1-55c0-3.8,1.1-4.7,4.7-4.5
		c5.9,0.3,11.7,0.2,17.6,0.2c5.4,1.9,7.6,6.1,7.9,11.4c0.2,3.5,0.2,7,0.1,10.5c0,4.2-1,8.1-5.5,10.6c4.4,2.6,5.2,6.5,5.4,10.7
		c0.4,8.8,0.6,17.5,0.8,26.3c-0.3,0-0.6,0.1-0.9,0.1c-2.9,0-6.2,0.8-8.6-0.3c-3.1-1.4-0.3-5.4-1.8-7.9c0-1,0.1-2.1,0.1-3.1
		c-0.1-5.7,0-11.5-0.2-17.2c-0.1-4.1-3.2-4.2-6.3-4.2c-3.7-0.1-2.4,2.6-2.5,4.4C297.8,287.4,297.8,296.8,297.8,306.2z M297.9,255
		c0,2.5,0,5,0,7.5c0,1,0,1.9,1.3,2.4c3.9,1.3,7.2-0.7,7.4-4.8c0.2-3.5,0.1-7,0-10.5c-0.1-3.9-2.8-4-5.9-4.2
		c-3.8-0.2-2.9,2.3-2.9,4.4C297.8,251.5,297.9,253.2,297.9,255z"/>
	<path class="st5" d="M255.4,306.2c-10.6,0.5-10.6,0.5-10.6-10.1c0-18.3,0.1-36.7-0.1-55c0-3.8,1.1-4.7,4.7-4.5
		c5.9,0.3,11.7,0.2,17.6,0.2c5.4,1.9,7.6,6.1,7.9,11.4c0.2,3.5,0.2,7,0.1,10.5c0,4.2-1,8.1-5.5,10.6c4.4,2.6,5.2,6.5,5.4,10.7
		c0.4,8.8,0.6,17.5,0.8,26.3c-0.3,0-0.6,0.1-0.9,0.1c-2.9,0-6.2,0.8-8.6-0.3c-3.1-1.4-0.3-5.4-1.8-7.9c0-1,0.1-2.1,0.1-3.1
		c-0.1-5.7,0-11.5-0.2-17.2c-0.1-4.1-3.2-4.2-6.3-4.2c-3.7-0.1-2.4,2.6-2.5,4.4C255.4,287.4,255.4,296.8,255.4,306.2z M255.5,254.7
		c0,1.9-0.1,3.8,0,5.7c0.1,1.9-1,4.6,2.8,4.5c3.1-0.1,5.7-0.4,5.9-4.2c0.2-3.6,0.2-7.3,0.1-10.9c-0.1-4.1-2.8-4.4-6.1-4.4
		c-3.9-0.1-2.6,2.6-2.7,4.6C255.4,251.5,255.5,253.1,255.5,254.7z"/>
	<path class="st8" d="M336.7,306.2c-3.3,0-6.7,0-10,0c0.2-2.5,0.4-5,0.6-7.5c2.8-19.2,5.8-38.3,8.3-57.5c0.5-3.7,1.6-5.2,5.4-4.7
		c3.2,0.4,6.5,0.2,9.7,0.2c3.5,23.2,7.1,46.3,10.6,69.5c-0.1,0-0.3,0-0.4,0.1c-9.5,0.4-9.5,0.4-10.8-9.1c-0.2-1.8-0.2-3.7-2.9-3
		c-8.5-0.5-8.5-0.5-9.8,7.7C337,303.3,336.9,304.7,336.7,306.2z M344.4,254.5c-0.5,0-0.9,0-1.4,0c-1.2,9.4-2.4,18.8-3.6,28.2
		c-0.4,3.1,2,2.6,3.4,2.3c1.8-0.4,5.6,2,5.2-2.3C347.1,273.3,345.7,263.9,344.4,254.5z"/>
	<path class="st11" d="M327.3,298.7c-0.2,2.5-0.4,5-0.6,7.5c-2.9,0-5.7,0-8.6,0c-0.3-8.8-0.5-17.5-0.8-26.3
		c-0.2-4.1-0.9-8.1-5.4-10.7c4.5-2.4,5.4-6.3,5.5-10.6c0-3.5,0.1-7-0.1-10.5c-0.3-5.4-2.4-9.5-7.9-11.4c2.2,0,4.4-0.2,6.6-0.1
		c4.9,0.2,8,2.5,9.3,7.2c1.9,6.4,2.9,13.5,0.1,19.4c-2.3,4.8-2,7.9-0.1,12.6c2.4,5.7,1.5,12.4,1.5,18.7
		C326.8,295.8,327.1,297.3,327.3,298.7z"/>
	<path class="st11" d="M275.7,306.2c-0.3-8.8-0.5-17.5-0.8-26.3c-0.2-4.1-0.9-8.1-5.4-10.7c4.5-2.4,5.4-6.3,5.5-10.6
		c0-3.5,0.1-7-0.1-10.5c-0.3-5.4-2.4-9.5-7.9-11.4c13.6-0.6,16.8,2.3,16.7,15.8c0,5.6,1.3,11.5-3.9,16c-1.2,1,0.2,1.8,0.9,2.4
		c2.2,2.1,2.9,4.7,3,7.6c0.3,7.7,0.3,15.5,0.9,23.2c0.3,4.1-1.2,5.2-4.9,4.7C278.4,306.1,277,306.2,275.7,306.2z"/>
	<path class="st11" d="M361.3,306.2c-3.5-23.2-7.1-46.3-10.6-69.5c8.4-0.4,8.6-0.4,10,8.3c3.2,19.5,6.1,39,9.2,58.5
		c0.3,2.1-0.3,3-2.5,2.9C365.4,306.2,363.3,306.2,361.3,306.2z"/>
	<path class="st12" d="M299.9,211.9c0.2,0.5,0.4,0.9,0.6,1.4c-15.6,0.4-31.2,0.4-46.9,0c0.2-0.5,0.4-0.9,0.6-1.4
		c3,0.7,4.5-0.3,4.1-3.6c-0.2-1.6,0.1-3.2-0.1-4.8c-0.3-2.9,0.9-3.9,3.8-3.8c8.5,0.1,17,0,25.6,0c8.1,0,8.2,0,8.1,8.2
		C295.7,211,296.4,212.7,299.9,211.9z"/>
	<path class="st11" d="M255.4,306.2c0-9.4,0-18.8,0.1-28.2c0-1.7-1.2-4.4,2.5-4.4c3.1,0,6.2,0.1,6.3,4.2c0.2,5.7,0.2,11.5,0.2,17.2
		c0,1-0.1,2.1-0.1,3.1C264.2,306.6,264.2,306.6,255.4,306.2z"/>
	<path class="st11" d="M297.8,306.2c0-9.4,0-18.8,0.1-28.2c0-1.7-1.2-4.4,2.5-4.4c3.1,0,6.2,0.1,6.3,4.2c0.2,5.7,0.2,11.5,0.2,17.2
		c0,1-0.1,2.1-0.1,3.1C306.6,306.6,306.6,306.6,297.8,306.2z"/>
	<path class="st11" d="M336.7,306.2c0.2-1.5,0.4-2.9,0.6-4.4c1.3-8.2,1.3-8.2,9.8-7.7c-0.2,1.3-0.5,2.6-0.6,3.9
		C345.3,306.6,345.3,306.6,336.7,306.2z"/>
	<path class="st13" d="M371.1,326.9c-0.5,1.8-1.7,2.4-3.5,2.3c-1.5-0.1-1.9-0.9-1.6-2.3C367.7,327,369.4,327,371.1,326.9z"/>
	<path class="st14" d="M242.5,61.4c2.8,2.8,0.6,6.5,1.6,9.6c-0.6,0.8-1.1,1.7-1.7,2.5c-9.3,12.5-17.6,25.6-22.7,40.5
		c-2.9,8.4-4.9,17-2.8,25.8c3.4,14.2,13,22.1,27,25.1c0,15.9-0.1,31.9-0.1,47.8c-1.8-0.2-3.8,0.8-5.3-0.9c0-4.6,0-9.1,0.1-13.7
		c0-1.8-0.4-3-2.4-2.7c-4.6,0.8-4.9-1.8-4.7-5.3c0.5-9.3-2.6-17.5-10.1-22.7c-6.7-4.7-12.6-10.1-18.6-15.3c-2.4-2.1-5.1-3.7-8.4-3
		c-3.6,0.9-4.3-0.9-4.2-3.9c0.1-4.7,0.1-9.4-0.2-14.1c-0.4-5.8-5.3-9.3-10.8-8c-1.4,0.3-2.4,0.6-2.4,2.5c0,9.7-1.7,19.7,0.1,29
		c2.1,10.5,4.2,21.7,12.1,30.2c2.3,2.5,4.2,5.3,6.2,8c0.5,0.7,1.8,2.2,0.3,2.3c-4,0.4-2.7,3.2-2.7,5.2c-0.1,3.8,0,7.6,0,11.5
		c-1.4,1.6-3.3,0.9-5,0.9c-28.8,0-57.6,0-86.4,0.1c-1.6,0-3.2-0.4-4.7,0.5c-0.5,0-1,0-1.6,0c0.1-44.3,0.2-88.5,0.2-132.8
		c0-3.3,1.7-3.8,4.1-4.4c34.1-8.3,68.2-16.6,102.2-24.8c12.5-3.1,25.1-6.1,37.6-9.2c1.6-0.4,3.1-0.9,4.8-0.7c0,4.2,0,8.5,0,12.7
		c0,1.6,0.4,3.3-1.3,4.4c-2-1.3-4-1.7-5.7,0.6c-0.5,0.6-1.2,1.4-0.4,2.3c1.8,1.9,3.7,1,5.5,0.2C242.3,61.5,242.4,61.4,242.5,61.4z
		 M146.5,133.5c-6.8,1.2-10.1-1.7-11.3-8.3c-1.1,6.7-4.6,9.5-11.4,8.4c6.6,2.5,7,6.8,4.4,12.6c4.8-5.1,9.2-4.3,14.1-0.2
		C139.3,140,140.4,136.1,146.5,133.5z M111,90.4c1.3,1.6,2.8,1.6,4.4,0.8c1.1-0.5,2.8-0.5,2.4-2.5c-0.3-1.9-1.7-1.4-3-1.6
		c-1.9-0.2-3.3,1.5-4.9,1.3c-3.1-0.5-3.5,1.4-3.7,3.5c-0.1,1.7,0.6,3.1,2.3,3.1C111.7,95.1,110.1,92.3,111,90.4z M133.6,85.5
		c-0.4-1.5-1.6-2.4-3.1-2.4c-1.8,0-3.2,1-3.6,2.7c-0.4,1.7,1.3,2.3,2.4,2.3C131,88.1,132.9,87.8,133.6,85.5z M192.8,68.8
		c-1.8-0.3-3.1,0.7-3.5,2.7c-0.3,1.5,0.7,2.3,2.1,2.1c1.9-0.3,4.4-0.1,4.6-2.9C196.1,68.9,194.4,68.9,192.8,68.8z M110.6,172.1
		c0-1.7,0-3.4-2.2-3.5c-2.3-0.1-2.2,1.8-2.2,3.4c0,1.6-0.2,3.5,2.1,3.5C110.5,175.5,110.6,173.8,110.6,172.1z M110.6,139.8
		c-0.1-0.9,0.4-2.8-1.7-2.9c-2-0.1-2.8,1.4-2.6,3.2c0.1,1.7,0.5,3.5,2.5,3.5C110.5,143.6,110.6,141.8,110.6,139.8z M110.6,188.1
		c0-1.4,0-3.4-2.1-3.4c-1.9,0-2.3,1.9-2.3,3.6c-0.1,1.7,0.6,3,2.4,3.1C110.7,191.6,110.6,189.9,110.6,188.1z M149.2,81.6
		c-0.3-1.5-1.5-2.1-2.8-2.1c-1.8,0-3.1,1.1-3.5,2.7c-0.4,1.7,1.3,2.2,2.4,2.3C147.3,84.8,148.4,83.4,149.2,81.6z M110.6,156.3
		c0-1.7,0-3.4-2.2-3.5c-2.3-0.1-2.2,1.8-2.2,3.4c0,1.6-0.2,3.5,2.1,3.5C110.5,159.7,110.6,157.9,110.6,156.3z M177.5,72.4
		c-0.9,0.8-3.4,0-3.6,2.5c-0.1,1.4,0.6,2.5,2.4,2.3c1.9-0.3,3.5-0.8,3.9-2.9C180.5,72.6,179.2,72.4,177.5,72.4z M161.7,76
		c-1.2,0.8-3.6,0.3-3.4,3c0.1,1.7,1.1,2.6,2.6,2.1c1.5-0.5,3.9-0.3,3.7-2.9C164.5,76.6,163.5,75.8,161.7,76z M208.7,69.7
		c0.9,0,2.6-0.1,2.7-2.3c0.1-1.5-0.7-2.5-2.5-2.2c-1.7,0.2-3.7,0-3.8,2.6C205.1,69.7,206.5,69.7,208.7,69.7z M110.6,204.1
		c0-1.4-0.1-2.8-1.9-2.8c-1.8,0.1-2.5,1.3-2.5,3c0,1.7,0.7,3,2.5,3C110.8,207.3,110.6,205.6,110.6,204.1z M110.6,123.8
		c0-1.4,0-2.8-1.9-2.8c-1.8,0-2.5,1.2-2.5,2.9c0,1.7,0.7,3,2.4,3C110.8,127.1,110.6,125.3,110.6,123.8z M110.6,108.1
		c0-1.3,0.1-2.9-1.8-2.9c-1.8-0.1-2.6,1.1-2.7,2.8c-0.1,1.7,0.6,3,2.3,3.2C110.6,111.3,110.6,109.6,110.6,108.1z M227.1,63.5
		c-0.6-1.8-2.2-1.7-3.6-1.7c-1.7-0.1-2.4,1-2.4,2.5c-0.1,1.6,1.1,2.1,2.4,1.8C225,65.8,226.7,65.5,227.1,63.5z"/>
	<path class="st5" d="M178.7,264.7c1.6-3,0.6-6.2,0.7-9.3c0.2-5.3,0.1-10.5,0-15.8c-0.1-2.2,0.4-3.3,2.9-3c2.6,0.2,5.3,0.1,7.9,0.2
		c0,23.2,0,46.3,0,69.5c-10.7,0.5-10.7,0.5-10.7-9.9c0-6.3,0-12.6,0-18.9c0-1.2,0.8-2.6-0.7-3.6c-1.2-0.1-2.4,0-3.5-0.2
		c-4.4-0.8-5.7,0.8-5.5,5.4c0.4,9.1,0.1,18.1,0.1,27.2c-3.5,0-7.1,0-10.6,0c-0.1-1.1-0.1-2.2-0.2-3.3c0.1-20.3,0.3-40.7,0-61
		c-0.1-4.5,1.2-6,5.5-5.3c1.7,0.3,3.5,0.1,5.3,0.2c0,6.6,0,13.2,0,19.7C169.8,265.2,169.8,265.2,178.7,264.7z"/>
	<path class="st8" d="M221.7,306.8c-12.7,1.8-19.5-3.5-20-16.3c-0.4-12.8-0.4-25.5-0.1-38.3c0.4-12.7,7-17.7,20.6-16.2
		c7.1,2.2,9.9,7.7,10.1,14.4c0.3,13.8,0.4,27.6,0,41.4C232.1,298.7,229.3,304.7,221.7,306.8z M221.8,271.3
		C221.9,271.3,221.9,271.3,221.8,271.3c0.1-6,0.1-12,0.1-18.1c0-1.8-0.1-3.5-0.5-5.2c-0.4-1.9-1.4-3.5-3.8-3.5
		c-2.4-0.1-4,0.9-4.5,3.3c-0.4,2-0.8,4-0.8,6.1c-0.1,11.5-0.1,22.9,0,34.4c0,2.3,0.3,4.7,0.8,7c0.4,2.1,1.9,3.2,4.1,3.2
		c2.3,0,3.6-1.2,4.1-3.3c0.4-1.4,0.5-2.9,0.5-4.3C221.9,284.3,221.8,277.8,221.8,271.3z"/>
	<path class="st8" d="M124.8,306.2c-10.3,0.5-10.3,0.5-8.9-9.4c2.7-19,5.4-38,8.1-57c0.3-2.2,0.8-3.5,3.4-3.3
		c3.8,0.3,7.6,0.2,11.4,0.2c3.5,23.1,7.1,46.3,10.6,69.4c-10,0.6-10,0.6-11.3-9c-0.2-1.2,0.6-3.3-2-3c-9.5-0.6-9.5-0.6-11,8.6
		C124.9,303.9,124.9,305,124.8,306.2z M132.2,252.4c-0.3,0-0.6,0-0.9,0c-1.1,9-2.1,18-3.2,27c-0.7,5.9-0.8,5.7,5.2,5.7
		c2.6,0,3.3-0.8,2.9-3.3C134.8,272.1,133.6,262.3,132.2,252.4z"/>
	<path class="st15" d="M221.7,306.8c7.6-2.1,10.4-8,10.6-15c0.4-13.8,0.4-27.6,0-41.4c-0.2-6.7-3-12.2-10.1-14.4
		c1.8-0.1,3.5-0.3,5.3-0.3c8.3,0,13.6,4,14.4,12.3c1.5,15.4,1.6,30.8,0,46.1C240.8,304.4,234.1,308.3,221.7,306.8z"/>
	<path class="st15" d="M149.4,306.2c-3.5-23.1-7.1-46.3-10.6-69.4c9.5-0.5,9.4-0.5,10.7,8.2c2.9,18.9,5.9,37.8,8.9,56.7
		c0.1,0.4,0.4,0.8,0.5,1.2c0.1,1.1,0.1,2.2,0.2,3.3C155.9,306.2,152.7,306.2,149.4,306.2z"/>
	<path class="st15" d="M190.2,306.2c0-23.2,0-46.3,0-69.5c8.9-0.4,8.9-0.4,8.9,8.4c0,18.5,0,36.9,0,55.4c0,6.6,0.9,5.8-5.8,5.9
		C192.2,306.3,191.2,306.2,190.2,306.2z"/>
	<path class="st15" d="M169.8,306.2c0-9.1,0.3-18.1-0.1-27.2c-0.2-4.5,1.1-6.1,5.5-5.4c1.1,0.2,2.3,0.1,3.5,0.2
		c0,9-0.3,18.1,0.1,27.1c0.2,4.5-1.1,6.2-5.5,5.4C172.1,306.1,170.9,306.2,169.8,306.2z"/>
	<path class="st15" d="M178.7,264.7c-8.9,0.5-8.9,0.5-8.9-8.2c0-6.6,0-13.2,0-19.7c8.9-0.4,8.9-0.4,8.9,8.3
		C178.7,251.5,178.7,258.1,178.7,264.7z"/>
	<path class="st13" d="M243.3,327.1c0.2,0.1,0.4,0,0.6-0.1c-1.6-0.1-3.2-0.3-4.8-0.3c-36.9,0-73.8,0-110.8,0c-2.5,0-5.2-0.9-7,2.2
		c-0.6,1-2.4,0.6-3.6-0.4c-0.8-0.6-1.2-1.8-2.4-1.7c-6.7,0.3-13.5-0.9-20.1,0.7c-0.4-0.2-0.8-0.4-1.2-0.5c48.2,0,96.4,0.1,144.6,0.1
		C240.1,327.1,241.7,327.1,243.3,327.1z"/>
	<path class="st12" d="M238.6,211.8c1.5,1.7,3.5,0.7,5.3,0.9c0,0.2,0.1,0.4,0.1,0.7c-30,0-60,0.1-90,0.1c-19.1,0-38.2-0.1-57.4-0.2
		c1.5-1,3.2-0.5,4.7-0.5c28.8,0,57.6,0,86.4-0.1c1.7,0,3.6,0.7,5-0.9c1.5,0,2.9,0,4.4,0c0.7,1,1.7,0.9,2.8,0.9c10.5,0,21.1,0,31.6,0
		c1,0,2.1,0,2.8-0.9C235.7,211.8,237.1,211.8,238.6,211.8z"/>
	<path class="st15" d="M124.8,306.2c0.1-1.1,0.2-2.3,0.3-3.4c1.5-9.2,1.5-9.2,11-8.6c-0.1,1.2-0.2,2.3-0.4,3.5
		C134.1,306.6,134.1,306.6,124.8,306.2z"/>
	<path class="st13" d="M83.9,327.3C83.9,327.3,83.9,327.3,83.9,327.3c-0.3,0-0.4-0.2-0.4-0.5C83.7,326.9,83.9,327.1,83.9,327.3z"/>
	<polygon class="st13" points="84,334.9 84.1,334.9 83.9,334.9 	"/>
	<path class="st16" d="M95.1,327.5c6.7-1.6,13.4-0.4,20.1-0.7c1.2,0,1.7,1.1,2.4,1.7c1.1,1,3,1.4,3.6,0.4c1.8-3,4.5-2.2,7-2.2
		c36.9,0,73.8,0,110.8,0c1.6,0,3.2,0.2,4.8,0.3c0.3,1.6-0.6,3.5,1,4.9c0,12.4,0,24.7,0,37.1c-1.7,1.4-0.9,3.3-0.9,4.9
		c-0.1,19.2,0,38.5,0,57.7c-1.8,0.1-2.9-1.3-4.2-2.2c-47.2-33.1-94.4-66.2-141.6-99.4C97.1,329.3,96.1,328.3,95.1,327.5z M213.5,371
		c-1.3,1.5-2.3,2.7-3.4,4c-3.9,4.7-2.5,10,3.5,11.5c5.2,1.4,10.4,1.7,15.6-0.2c3.9-1.4,5.8-4.3,5.8-8.4c0-4-2-6.5-5.6-8.1
		c-3.7-1.7-7.7-1.7-11.6-2.6c-1.3-0.3-3.4-0.3-2.8-2.4c0.4-1.7,1-3.9,3.4-4c0.9-0.1,1.7,0.2,2.6,0.2c5.9,0.2,9.5-2.4,11.1-8
		c0.8-2.8,1.4-5.8,0.7-8.7c-1.1-3.9-0.8-6.9,3.7-8.2c1.8-0.5,1.6-1.9,1-3.2c-0.8-1.7-1.9-0.6-2.9-0.1c-0.6,0.4-1.3,0.7-1.8,1.3
		c-1.6,2-2.5,2.2-4.6,0.1c-4.4-4.7-12-3.5-15.6,1.8c-3.7,5.5-3.8,15.2,0.2,20.4c1.7,2.3,1.5,3.4-0.1,5.4
		C209.2,366.2,209.5,367.9,213.5,371z M194.4,368.8c1,2.8,0.9,5.1,3.8,4.6c3-0.6,1.6-2.8,1.6-4.2c0.1-5.6,0.1-11.2,0-16.8
		c-0.1-4.7,0.6-9.4-0.7-14c-1.5-5.3-5.3-7.7-11.1-6.9c-5.8,0.8-9.3,4.6-9.4,9.9c0,1.5,0.2,2.6,2.1,2.6c1.5-0.1,3.1,0.1,3.1-2.1
		c0-0.6,0.1-1.2,0.2-1.8c0.6-3,2.4-4.6,5.5-4.6c3,0,4.1,1.9,4.7,4.4c1.6,6.5,0.6,8.6-5.4,11.6c-2.1,1.1-4.2,2.2-6.1,3.6
		c-3.6,2.6-5.1,6.3-4.9,10.7c0.3,4.7,3.3,7.7,7,9.4c2.6,1.1,4.8-1.9,7.1-3.2C192.8,371.5,193.2,370.4,194.4,368.8z M197.1,379
		c-1.2,0.2-2.3,1.1-2.2,2.2c0.1,2.2,1.9,3.2,3.8,3.5c1.3,0.2,1.9-0.9,2-2.3C200.9,379.7,198.8,379.8,197.1,379z M236.8,407
		c-1.1,0.4-2.7,0.3-2.3,2c0.4,1.7,1.4,3.3,3.6,3c0.9-0.1,2.3-0.3,2.1-1.7C239.8,408.6,238.9,407.1,236.8,407z M145.1,342.6
		c-1,0.4-2.7,0.2-2.5,1.8c0.2,1.8,1.2,3.4,3.4,3.3c1.1-0.1,2.6-0.2,2.3-1.9C147.9,344.1,147,342.8,145.1,342.6z M211.8,393.8
		c1.4-0.2,2.9-0.7,2.5-2.2c-0.5-1.6-1.9-2.9-3.8-3c-1.4,0-2,1-1.8,2.4C208.8,392.9,210,393.7,211.8,393.8z M171.4,361.1
		c-1,0.4-2.6,0.3-2.3,2c0.4,1.6,1.2,3.1,3.2,3c1.4,0,2-1,1.9-2.4C174,362.1,173.1,361.1,171.4,361.1z M161.7,354.4
		c-0.6-2-2.4-2.3-4.4-2.2c-1,0-1.7,0.2-1.5,1.5c0.5,2.3,1.9,3.1,4.2,2.9C161.3,356.6,161.9,356.1,161.7,354.4z M131.7,333.7
		c-1.1-0.1-2.2,0.2-2.3,1.7c-0.1,2.1,1.6,2.6,3.3,2.6c0.9,0,2.7,0.8,2.4-1.3C134.9,334.9,133.9,333.7,131.7,333.7z M224.6,402.6
		c0.6-0.5,2.5,0.7,2.3-1.4c-0.2-1.7-1.1-3-3.1-3.1c-1.3,0-2.5,0.1-2.6,1.6C221.1,401.9,222.7,402.3,224.6,402.6z"/>
	<path class="st17" d="M299.9,211.9c-3.5,0.9-4.2-0.9-4.2-4c0.1-8.2-0.1-8.2-8.1-8.2c-8.5,0-17.1,0.1-25.6,0c-2.9,0-4.1,0.9-3.8,3.8
		c0.1,1.6-0.1,3.2,0.1,4.8c0.3,3.3-1.1,4.3-4.1,3.6c0-4.1,0.2-8.2,0.1-12.3c-0.1-2.6,0.5-4.4,3.5-4.1c2.9,0.2,3.4-1.4,3.3-3.8
		c-0.4-12.8,4.9-22.1,16.2-28.4c4.7-2.7,8.5-7.2,12.5-11c2.7-2.5,5.6-3.8,9.2-3c2.8,0.6,3.3-0.8,3.3-3.1c0.1-5.3-0.5-10.6,0.5-15.8
		c0.9-4.8,4.1-7.5,8.9-7.4c2.7,0,4.4,0.9,4.4,4.1c-0.1,9,1.4,18.1-0.2,26.8c-1.8,10.2-3.9,20.8-10.9,29.3c-2.9,3.5-5.4,7.3-8.2,10.9
		c-0.6,0.4-0.9,0.8,0,1.2c2.1,0.4,3.2,1.4,3,3.9C299.7,203.3,299.9,207.6,299.9,211.9z M311.6,142.9c0-4.4,0-8.1,0-11.8
		c0-1.2,0.6-3-1.3-3.2c-1.8-0.2-2.6,1.1-2.9,2.7c-1.1,4.5-0.5,9.1-0.6,13.6c0,2.8-0.6,5.4-1.4,8.1c-2.8,8.9-10.1,14.3-15.8,20.8
		c-1,1.1-1.7,2.4-3.5,0.9c-1.9-1.6-1-2.6,0.2-3.9c3.1-3.3,6.3-6.6,9.3-10c1.6-1.7,4.7-3.9,2.4-6c-2-1.9-4.4,1.1-6.3,2.5
		c-4.5,3.3-7.6,8.3-12.6,10.9c-10,5.3-14,13.7-13.7,24.6c0.1,2.6,0.8,3.7,3.5,3.6c5.9-0.1,11.8,0,17.6,0c1.3,0,2.8,0.1,3.7-1
		c5.1-6.6,11.8-12.5,14.8-20.2C309.1,164.3,313.7,153.8,311.6,142.9z"/>
	<path class="st17" d="M244,164.9c-14-3-23.6-10.9-27-25.1c-2.1-8.8-0.1-17.5,2.8-25.8c5.1-14.9,13.4-28,22.7-40.5
		c0.6-0.8,1.1-1.7,1.7-2.5c1.2-1.1,2.2-3,4.1-0.6c12.7,15.9,25.1,32,30.6,52.1c5.6,20.6-5.8,38.8-26.1,42.2
		C249.9,165.1,246.9,164.8,244,164.9z M243.9,159.8c2.3,0.9,4.6,0.9,6.9,0.5c18.8-2.9,28.8-18.5,23.5-37.2
		c-4.7-16.7-14.6-30.6-25-44.1c-2.9-3.7-3-3.7-5.5,0.8c-6.2,7.2-10.7,15.4-14.9,23.8c-4.4,8.7-7.8,17.7-8.3,27.6
		C220,145.5,230.6,158.5,243.9,159.8z"/>
	<path class="st13" d="M345.5,145.7c0-0.1-0.1-0.3,0-0.4c1.6-4.8,2.7-9.4-4.7-11.7c7.3,1.3,10.4-1.9,11.5-8.3
		c1.5,5.8,3.9,9.9,11.1,7.7c-5.6,6.2-5.6,6.2-4,12.8c-0.2,0.1-0.6,0.3-0.6,0.2C354.4,141.1,349.9,142.5,345.5,145.7L345.5,145.7z"/>
	<path class="st13" d="M242.5,61.4c-0.1,0.1-0.3,0.1-0.4,0.2c-1.9,0.8-3.8,1.7-5.5-0.2c-0.8-0.9-0.1-1.6,0.4-2.3
		c1.7-2.2,3.6-1.9,5.7-0.6C243,59.5,243.1,60.4,242.5,61.4z"/>
	<path class="st13" d="M381.7,91.7c0,2.1-0.5,3.7-2,3.4c-2.1-0.3-2.8-2.4-3.1-4.3c-0.2-1.4,1.2-2.3,2.2-2.2
		C380.7,88.8,381.6,90.3,381.7,91.7z"/>
	<path class="st13" d="M381.7,139.9c0,1.5,0.1,3.2-2.1,3c-1.8-0.2-2.4-1.5-2.3-3.2c0.1-1.7,0.4-3.6,2.4-3.5
		C381.8,136.2,381.7,138.2,381.7,139.9z"/>
	<path class="st13" d="M273.7,65.7c-0.3,1.6-1.6,2.3-2.8,2.1c-1.4-0.2-3.5-0.3-3.5-2.5c0-1.4,0.7-2.5,2.4-2.6
		C271.9,62.6,272.9,64,273.7,65.7z"/>
	<path class="st5" d="M377.2,107.4c0-1.7,0.2-3.3,2.2-3.2c2.2,0.1,2.2,1.9,2.2,3.6c0,1.7-0.3,3.5-2.5,3.3
		C376.8,110.9,377.4,108.8,377.2,107.4z"/>
	<path class="st5" d="M377.2,203.8c0-1.7,0-3.5,2.4-3.3c2,0.1,2.1,1.7,2.1,3.3c0,1.7,0,3.5-2.2,3.5
		C377,207.4,377.3,205.4,377.2,203.8z"/>
	<path class="st5" d="M381.7,123.5c0,1.7-0.1,3.5-2.3,3.5c-2.4,0-2.1-2-2.1-3.6c0-1.5-0.1-3.2,2-3.2
		C381.5,120.1,381.7,121.8,381.7,123.5z"/>
	<path class="st13" d="M320.7,76.9c-0.1,1.5-0.8,2.3-2.2,1.9c-1.5-0.4-3.7,0.2-3.9-2.5c-0.1-1.8,0.8-2.2,2.4-2.3
		C319.1,74,320.2,75,320.7,76.9z"/>
	<path class="st13" d="M363.5,84.7c2.1,0,3.4,1.3,3.7,3c0.2,1.5-1.4,2.1-2.7,2.1c-1.7-0.1-3-1-3.1-3
		C361.3,85.5,362.1,84.8,363.5,84.7z"/>
	<path class="st13" d="M333.3,82.1c-1.9,0.3-3.2-0.7-3.5-2.5c-0.2-1.5,1-2.1,2.3-1.9c1.7,0.3,3.9,0.2,4.3,2.3
		C336.8,82,334.7,81.9,333.3,82.1z"/>
	<path class="st13" d="M381.7,187.8c0,1.4-0.1,2.8-1.9,2.8c-1.8-0.1-2.5-1.3-2.5-3c0-1.7,0.7-3,2.5-3
		C381.9,184.6,381.6,186.4,381.7,187.8z"/>
	<path class="st13" d="M381.7,171.7c0,1.5,0,3.2-2.1,3c-1.8-0.2-2.3-1.5-2.3-3.2c0.1-1.5,0.7-2.6,2.3-2.8
		C381.7,168.5,381.7,170.2,381.7,171.7z"/>
	<path class="st13" d="M381.7,156c0,1.4-0.1,2.8-1.9,2.8c-1.8-0.1-2.5-1.3-2.5-3c0-1.7,0.7-3,2.5-3
		C381.9,152.8,381.6,154.6,381.7,156z"/>
	<path class="st8" d="M302.2,75c-1.9,0-3.4-0.3-3.5-2.5c0-1.8,1.1-2.1,2.6-2c1.6,0.2,3.4,0.1,3.6,2.3C305,74.8,303.6,75.1,302.2,75z
		"/>
	<path class="st13" d="M351.8,84.1c-0.2,1.5-1,2.6-2.6,2.2c-1.5-0.4-3.9-0.3-3.6-2.8c0.2-1.5,1.6-2.4,2.9-2
		C349.8,81.8,352,81.7,351.8,84.1z"/>
	<path class="st13" d="M255.6,64.4c-1.3-0.7-3.6-0.3-3.7-2.7c0-1.6,1.4-2.5,2.7-2.2c1.3,0.2,3.5,0.1,3.5,2.4
		C258.2,63.3,257.5,64.3,255.6,64.4z"/>
	<path class="st13" d="M286,67.1c1.7-0.2,3.1,0.3,3.4,2c0.3,1.7-1.3,2.3-2.5,2.2c-1.5-0.1-3.6-0.2-3.9-2.1
		C282.7,67.1,284.6,67.2,286,67.1z"/>
	<path class="st13" d="M345.4,145.6c-0.1,0.1-0.1,0.3-0.2,0.4C345.3,145.9,345.4,145.8,345.4,145.6
		C345.5,145.7,345.4,145.6,345.4,145.6z"/>
	<path class="st12" d="M296.8,195.2c-0.9-0.4-0.6-0.8,0-1.2C296.8,194.4,296.8,194.8,296.8,195.2z"/>
	<path class="st13" d="M294.5,370c-0.6,0.2-0.9,0.2-1.1,0.4c-5.3,4.7-10,5.2-13.4,1.4c-3.9-4.3-3.2-11.8,1.5-15.9
		c2.9-2.5,6.3-4.4,9.9-5.7c3.3-1.2,2.9-3.6,2.8-6.1c-0.1-3,0.3-6.4-3-8.2c-3.2-1.8-7,0.6-7.5,4.8c-0.3,2.3-0.9,3.7-3.4,3.3
		c-3.3-0.4-1.9-2.9-1.7-4.5c0.8-5,4.8-8.1,10.5-8.2c5.2-0.2,8.6,2.3,9.8,7.5c1.5,6.4,0.4,12.9,0.7,19.3c0.1,2.5,0,5,0,7.5
		c0.1,2.6-1.1,6.4,4.1,4.4c1-0.4,2.7,0.4,2.6,1.8c-0.1,2-3,3.5-3.5,3C300.1,372.8,295,375.2,294.5,370z M294.2,352.1
		c-5,3.1-10.4,4.5-11.3,10.8c-0.5,3.7,1.5,6.7,4.4,6.9c3.2,0.3,6.7-2.7,6.9-6C294.3,360.2,294.2,356.6,294.2,352.1z"/>
	<path class="st13" d="M244.9,369c0-12.4,0-24.7,0-37.1c4.1-0.8,5.6,0.6,5.4,5.1c-0.4,8.8-0.2,17.6-0.1,26.4c0,3-0.4,6.6,4.3,6.7
		c3.9,0.1,7-3.1,7-7.2c0-9.1,0-18.2,0-27.3c0-2-0.2-3.8,2.8-3.7c2.8,0.1,2.4,1.9,2.4,3.6c0,11.5,0,22.9,0,34.4
		c0,1.3,0.7,3.2-1.5,3.5c-1.6,0.2-3.7,0.8-3.8-2.1c0-1.2-0.9-0.8-1.5-0.4c-0.7,0.5-1.4,1.1-2.2,1.5
		C251.9,375.9,248.1,374.9,244.9,369z"/>
	<path class="st13" d="M345.4,344c-0.3,1.8-1.1,3.4-3.1,3.7c-1.2,0.2-2.9-0.1-2.8-1.9c0.1-2.2,1.5-3.5,3.6-3.8
		C344.4,341.7,345.3,342.5,345.4,344z"/>
	<path class="st13" d="M247.6,410.4c0.3-2.4,1.6-3.7,3.7-4c1.3-0.2,2.4,0.6,2.2,2.1c-0.2,2-1.2,3.7-3.6,3.7
		C248.8,412.1,247.6,411.7,247.6,410.4z"/>
	<path class="st13" d="M319.5,362.4c-0.5,1.9-1.8,2.8-3.8,3c-1.5,0.1-2.1-0.5-2.1-2c0-2.4,1.8-2.8,3.5-3.1
		C318.6,360.1,319.3,361,319.5,362.4z"/>
	<path class="st13" d="M357.8,335.5c0.3,2.1-1.1,2.9-2.8,3.2c-1.5,0.3-2.6-0.6-2.3-2.3c0.2-1.7,1.1-3.2,2.9-3.4
		C357.2,332.7,357.9,333.8,357.8,335.5z"/>
	<path class="st13" d="M277.2,388.5c1.6,0.2,2.1,1.1,2,2.4c-0.2,2-1.3,2.8-3.2,2.7c-1.4,0-2.3-0.6-1.9-2.1
		C274.6,390,275.5,388.7,277.2,388.5z"/>
	<path class="st13" d="M329,356.5c-1.6-0.2-2.2-1.1-2-2.4c0.2-1.7,1-2.8,2.8-2.6c1.1,0.1,2.6,0.4,2.3,2
		C331.7,355.1,330.7,356.3,329,356.5z"/>
	<path class="st13" d="M289.3,384c-1.1-0.1-2.7,0.3-2.7-1.3c0-2.2,1.9-2.7,3.6-3c1.3-0.3,2.3,0.1,2.3,1.7
		C292.5,383.6,291,383.9,289.3,384z"/>
	<path class="st8" d="M265.9,399.6c0.1,2-0.8,2.9-2.6,2.9c-1.1,0-2.6,0.4-2.7-1.3c-0.2-2,1.3-2.7,3-3
		C264.8,398,266,398.1,265.9,399.6z"/>
	<path class="st11" d="M297.9,255c0-1.8,0-3.5,0-5.3c0.1-2-0.8-4.5,2.9-4.4c3,0.1,5.7,0.3,5.9,4.2c0.1,3.5,0.2,7,0,10.5
		c-0.3,4.1-3.5,6.1-7.4,4.8c-1.3-0.4-1.3-1.4-1.3-2.4C297.9,259.9,297.9,257.4,297.9,255z"/>
	<path class="st11" d="M255.5,254.7c0-1.6-0.1-3.2,0-4.8c0.2-1.9-1.1-4.6,2.7-4.6c3.2,0.1,6,0.3,6.1,4.4c0.1,3.6,0.1,7.3-0.1,10.9
		c-0.2,3.8-2.8,4.1-5.9,4.2c-3.8,0.1-2.7-2.5-2.8-4.5C255.4,258.5,255.5,256.6,255.5,254.7z"/>
	<path class="st11" d="M344.4,254.5c1.2,9.4,2.7,18.8,3.6,28.2c0.4,4.3-3.3,1.9-5.2,2.3c-1.5,0.3-3.8,0.8-3.4-2.3
		c1.2-9.4,2.4-18.8,3.6-28.2C343.5,254.6,344,254.5,344.4,254.5z"/>
	<path class="st17" d="M197.1,211.8c-1.5,0-2.9,0-4.4,0c0-3.8-0.1-7.6,0-11.5c0.1-2-1.3-4.8,2.7-5.2c1.5-0.1,0.3-1.6-0.3-2.3
		c-2-2.7-3.9-5.6-6.2-8c-7.9-8.5-10.1-19.7-12.1-30.2c-1.8-9.3-0.1-19.3-0.1-29c0-1.8,1-2.1,2.4-2.5c5.5-1.3,10.4,2.1,10.8,8
		c0.3,4.7,0.3,9.4,0.2,14.1c0,3,0.6,4.8,4.2,3.9c3.3-0.8,6,0.9,8.4,3c6.1,5.3,12,10.7,18.6,15.3c7.5,5.3,10.7,13.5,10.1,22.7
		c-0.2,3.5,0.1,6.1,4.7,5.3c2-0.4,2.4,0.9,2.4,2.7c-0.1,4.6,0,9.1-0.1,13.7c-1.5,0-2.9,0-4.4,0c0-2.8-0.2-5.6,0-8.3
		c0.2-2.9-0.7-3.8-3.7-3.7c-7.2,0.2-14.3,0-21.5,0.1c-3.8,0-8.6-1.6-11.1,0.7c-2.6,2.3-0.5,7.2-0.9,10.9
		C197.1,211.5,197.1,211.7,197.1,211.8z M181.2,142.7c-1.4,8.3,0.9,16.9,4.1,25.3c1.2,3.1,1.5,6.6,3.7,9.3
		c4.1,5.2,8.1,10.4,12.1,15.7c1.1,1.5,2.2,2.6,4.3,2.6c6.3-0.1,12.6,0,19,0c1.3,0,2.4,0.1,2.8-1.9c1.6-9.1-2.7-19.8-10.6-24.5
		c-4.1-2.4-7.7-5.3-11-8.7c-2.1-2.1-4.4-3.9-6.6-5.8c-1.4-1.2-3.3-2.3-4.7-0.9c-1.3,1.4,0.5,2.9,1.3,4.2c0.9,1.5,2.3,2.6,3.5,3.9
		c2.6,2.8,5.1,5.7,7.8,8.4c1.1,1.2,1.3,2.1,0,3.3c-1.3,1.2-2.1,1.1-3.3-0.2c-2.6-3-5.3-5.9-8.1-8.7c-6.7-6.8-10.3-14.7-9.7-24.4
		c0.2-2.6-0.1-5.3-0.1-7.9c0-1.4-0.2-2.7-1.1-3.7c-0.7-0.8-1.6-1.6-2.6-1.2c-1.1,0.4-0.6,1.5-0.6,2.3
		C181.2,133.9,181.2,137.9,181.2,142.7z"/>
	<path class="st13" d="M146.5,133.5c-6.1,2.7-7.2,6.6-4.1,12.4c-4.8-4.1-9.2-4.9-14.1,0.2c2.6-5.8,2.1-10-4.4-12.6
		c6.8,1.1,10.2-1.7,11.4-8.4C136.4,131.8,139.7,134.7,146.5,133.5z"/>
	<path class="st13" d="M111,90.4c-0.9,1.9,0.7,4.7-2.4,4.7c-1.7,0-2.5-1.4-2.3-3.1c0.2-2.2,0.6-4,3.7-3.5c1.6,0.2,3-1.5,4.9-1.3
		c1.3,0.1,2.7-0.3,3,1.6c0.3,2-1.3,1.9-2.4,2.5C113.7,92,112.2,92.1,111,90.4z"/>
	<path class="st13" d="M133.6,85.5c-0.7,2.3-2.6,2.6-4.2,2.6c-1.2,0-2.8-0.5-2.4-2.3c0.4-1.7,1.8-2.7,3.6-2.7
		C132,83.1,133.2,84,133.6,85.5z"/>
	<path class="st13" d="M192.8,68.8c1.6,0.1,3.3,0.1,3.2,1.8c-0.2,2.8-2.7,2.6-4.6,2.9c-1.4,0.2-2.3-0.6-2.1-2.1
		C189.7,69.5,191,68.5,192.8,68.8z"/>
	<path class="st8" d="M110.6,172.1c0,1.7-0.1,3.4-2.3,3.4c-2.4,0-2.1-1.9-2.1-3.5c0-1.6-0.2-3.5,2.2-3.4
		C110.5,168.7,110.6,170.5,110.6,172.1z"/>
	<path class="st13" d="M110.6,139.8c0.1,2-0.1,3.8-1.9,3.8c-2,0-2.4-1.8-2.5-3.5c-0.1-1.8,0.6-3.3,2.6-3.2
		C111,137,110.5,138.9,110.6,139.8z"/>
	<path class="st13" d="M110.6,188.1c0,1.8,0.1,3.5-2.1,3.4c-1.7-0.1-2.4-1.4-2.4-3.1c0.1-1.7,0.5-3.6,2.3-3.6
		C110.6,184.7,110.7,186.7,110.6,188.1z"/>
	<path class="st13" d="M149.2,81.6c-0.7,1.8-1.9,3.2-3.9,3c-1.2-0.1-2.8-0.6-2.4-2.3c0.4-1.7,1.8-2.7,3.5-2.7
		C147.6,79.6,148.8,80.1,149.2,81.6z"/>
	<path class="st8" d="M110.6,156.3c0,1.7-0.1,3.4-2.3,3.4c-2.4,0-2.1-1.9-2.1-3.5c0-1.6-0.2-3.5,2.2-3.4
		C110.5,152.8,110.6,154.6,110.6,156.3z"/>
	<path class="st13" d="M177.5,72.4c1.7,0,3,0.2,2.7,1.9c-0.4,2-2,2.6-3.9,2.9c-1.8,0.2-2.6-0.8-2.4-2.3
		C174.1,72.4,176.5,73.1,177.5,72.4z"/>
	<path class="st13" d="M161.7,76c1.8-0.2,2.8,0.6,2.9,2.2c0.2,2.6-2.2,2.4-3.7,2.9c-1.5,0.5-2.5-0.4-2.6-2.1
		C158.1,76.3,160.5,76.8,161.7,76z"/>
	<path class="st13" d="M208.7,69.7c-2.2,0-3.6-0.1-3.5-2c0-2.6,2.1-2.4,3.8-2.6c1.8-0.3,2.5,0.7,2.5,2.2
		C211.3,69.6,209.5,69.7,208.7,69.7z"/>
	<path class="st13" d="M110.6,204.1c0,1.4,0.2,3.2-1.9,3.2c-1.8,0-2.5-1.3-2.5-3c0-1.7,0.7-2.9,2.5-3
		C110.5,201.3,110.6,202.7,110.6,204.1z"/>
	<path class="st13" d="M110.6,123.8c0,1.5,0.2,3.2-2,3.1c-1.7-0.1-2.5-1.4-2.4-3c0-1.7,0.8-2.9,2.5-2.9
		C110.6,121,110.6,122.5,110.6,123.8z"/>
	<path class="st13" d="M110.6,108.1c0,1.5,0,3.2-2.1,3c-1.7-0.1-2.4-1.5-2.3-3.2c0.1-1.7,0.9-2.9,2.7-2.8
		C110.7,105.2,110.6,106.7,110.6,108.1z"/>
	<path class="st13" d="M227.1,63.5c-0.4,2-2.1,2.3-3.7,2.6c-1.3,0.2-2.4-0.3-2.4-1.8c0-1.5,0.7-2.6,2.4-2.5
		C224.9,61.8,226.5,61.7,227.1,63.5z"/>
	<path class="st15" d="M221.8,271.3c0,6.5,0,12.9,0,19.4c0,1.5-0.2,2.9-0.5,4.3c-0.5,2-1.8,3.3-4.1,3.3c-2.2,0-3.7-1.1-4.1-3.2
		c-0.5-2.3-0.8-4.6-0.8-7c-0.1-11.5-0.1-22.9,0-34.4c0-2,0.4-4.1,0.8-6.1c0.5-2.3,2.1-3.3,4.5-3.3c2.4,0.1,3.4,1.6,3.8,3.5
		c0.4,1.7,0.4,3.5,0.5,5.2C222,259.3,221.9,265.3,221.8,271.3C221.9,271.3,221.9,271.3,221.8,271.3z"/>
	<path class="st15" d="M132.2,252.4c1.3,9.8,2.6,19.6,4,29.5c0.3,2.5-0.3,3.3-2.9,3.3c-6,0-5.9,0.2-5.2-5.7c1.1-9,2.2-18,3.2-27
		C131.6,252.5,131.9,252.4,132.2,252.4z"/>
	<path class="st16" d="M197.1,211.8c0-0.1,0-0.3,0-0.4c0.4-3.7-1.6-8.6,0.9-10.9c2.5-2.2,7.3-0.6,11.1-0.7
		c7.2-0.1,14.4,0.1,21.5-0.1c2.9-0.1,3.9,0.9,3.7,3.7c-0.2,2.8,0,5.6,0,8.3c-0.7,1-1.7,0.9-2.8,0.9c-10.5,0-21.1,0-31.6,0
		C198.8,212.8,197.8,212.8,197.1,211.8z"/>
	<path class="st13" d="M213.5,371c-4-3.1-4.3-4.8-0.7-9.2c1.7-2,1.9-3.2,0.1-5.4c-4-5.2-3.9-15-0.2-20.4c3.6-5.4,11.2-6.5,15.6-1.8
		c2.1,2.2,3,2,4.6-0.1c0.4-0.6,1.1-1,1.8-1.3c1-0.5,2.1-1.6,2.9,0.1c0.6,1.3,0.8,2.7-1,3.2c-4.5,1.3-4.8,4.3-3.7,8.2
		c0.8,2.9,0.1,5.9-0.7,8.7c-1.6,5.6-5.2,8.2-11.1,8c-0.9,0-1.8-0.3-2.6-0.2c-2.5,0.2-3,2.3-3.4,4c-0.6,2.1,1.5,2.1,2.8,2.4
		c3.8,0.9,7.9,0.9,11.6,2.6c3.6,1.6,5.6,4.1,5.6,8.1c0,4.2-2,7-5.8,8.4c-5.2,1.9-10.4,1.6-15.6,0.2c-5.9-1.6-7.4-6.8-3.5-11.5
		C211.2,373.8,212.2,372.6,213.5,371z M228.3,346c-0.1-1.3,0-3.3-0.5-5.1c-0.8-3-2.4-5.4-6-5.5c-3.4-0.1-5.3,1.8-6.4,4.9
		c-1,3.2-0.9,6.4-0.6,9.6c0.5,4.5,3.3,7.3,6.8,7.3c3.6-0.1,5.9-2.8,6.4-7.6C228.2,348.6,228.2,347.6,228.3,346z M222.8,383.9
		c0.6,0.2,2.3-0.4,4-1c2.2-0.7,3.9-2,4-4.6c0.1-2.6-1.5-4.1-3.8-4.8c-2-0.6-4-0.9-6-1.2c-4-0.7-7.8,1.8-8.3,5.7
		c-0.6,4.5,2.9,4.7,5.9,5.4C219.5,383.7,220.6,383.7,222.8,383.9z"/>
	<path class="st13" d="M194.4,368.8c-1.2,1.6-1.6,2.6-2.5,3.1c-2.3,1.4-4.5,4.3-7.1,3.2c-3.8-1.7-6.7-4.7-7-9.4
		c-0.3-4.4,1.2-8.1,4.9-10.7c1.9-1.4,4-2.5,6.1-3.6c5.9-3.1,6.9-5.2,5.4-11.6c-0.6-2.5-1.7-4.4-4.7-4.4c-3.1,0-4.9,1.6-5.5,4.6
		c-0.1,0.6-0.2,1.2-0.2,1.8c0,2.2-1.6,2.1-3.1,2.1c-1.9,0.1-2.1-1-2.1-2.6c0-5.3,3.6-9.1,9.4-9.9c5.7-0.8,9.6,1.6,11.1,6.9
		c1.3,4.6,0.6,9.4,0.7,14c0.1,5.6,0.1,11.2,0,16.8c0,1.4,1.4,3.6-1.6,4.2C195.3,374,195.4,371.6,194.4,368.8z M194.5,352.1
		c-4.6,2.8-9.2,4.1-10.9,9c-0.9,2.6-0.8,5.3,1.2,7.4c1.5,1.6,3.4,1.8,5.3,0.9c2.6-1.3,4.6-3,4.5-6.4
		C194.4,359.7,194.5,356.3,194.5,352.1z"/>
	<path class="st13" d="M197.1,379c1.6,0.8,3.7,0.8,3.6,3.4c-0.1,1.4-0.6,2.5-2,2.3c-1.9-0.3-3.7-1.4-3.8-3.5
		C194.9,380.1,195.9,379.1,197.1,379z"/>
	<path class="st13" d="M236.8,407c2.1,0.1,3,1.5,3.3,3.4c0.2,1.4-1.1,1.6-2.1,1.7c-2.2,0.3-3.2-1.3-3.6-3
		C234,407.3,235.7,407.4,236.8,407z"/>
	<path class="st13" d="M145.1,342.6c1.9,0.2,2.8,1.6,3.2,3.2c0.4,1.7-1.2,1.9-2.3,1.9c-2.2,0.1-3.2-1.5-3.4-3.3
		C142.4,342.7,144.1,342.9,145.1,342.6z"/>
	<path class="st13" d="M211.8,393.8c-1.9-0.1-3-0.9-3.2-2.8c-0.1-1.4,0.5-2.4,1.8-2.4c1.9,0,3.4,1.4,3.8,3
		C214.8,393.1,213.2,393.6,211.8,393.8z"/>
	<path class="st13" d="M171.4,361.1c1.7,0,2.6,1,2.8,2.6c0.1,1.4-0.5,2.3-1.9,2.4c-1.9,0-2.8-1.4-3.2-3
		C168.7,361.4,170.3,361.5,171.4,361.1z"/>
	<path class="st13" d="M161.7,354.4c0.2,1.7-0.4,2.1-1.7,2.2c-2.2,0.1-3.7-0.6-4.2-2.9c-0.3-1.3,0.5-1.5,1.5-1.5
		C159.3,352.2,161.1,352.4,161.7,354.4z"/>
	<path class="st13" d="M131.7,333.7c2.2,0,3.2,1.3,3.4,3c0.3,2.1-1.5,1.4-2.4,1.3c-1.7,0-3.3-0.5-3.3-2.6
		C129.4,333.9,130.6,333.6,131.7,333.7z"/>
	<path class="st13" d="M224.6,402.6c-1.9-0.3-3.5-0.7-3.4-2.9c0.1-1.5,1.4-1.7,2.6-1.6c2,0.1,2.9,1.4,3.1,3.1
		C227.1,403.3,225.2,402.1,224.6,402.6z"/>
	<path class="st10" d="M311.6,142.9c2.1,10.9-2.5,21.4-6.6,31.6c-3.1,7.7-9.7,13.5-14.8,20.2c-0.9,1.1-2.4,1-3.7,1
		c-5.9,0-11.8-0.1-17.6,0c-2.7,0.1-3.5-1-3.5-3.6c-0.3-11,3.7-19.4,13.7-24.6c5-2.6,8.1-7.6,12.6-10.9c1.9-1.5,4.3-4.5,6.3-2.5
		c2.3,2.2-0.9,4.3-2.4,6c-3,3.4-6.2,6.7-9.3,10c-1.2,1.3-2.1,2.4-0.2,3.9c1.8,1.5,2.5,0.3,3.5-0.9c5.7-6.6,13-11.9,15.8-20.8
		c0.8-2.7,1.4-5.3,1.4-8.1c0.1-4.5-0.5-9.1,0.6-13.6c0.4-1.6,1.2-2.9,2.9-2.7c1.9,0.2,1.3,2,1.3,3.2
		C311.7,134.8,311.6,138.4,311.6,142.9z"/>
	<path class="st9" d="M243.9,79.8c2.5-4.4,2.6-4.5,5.5-0.8c10.5,13.5,20.3,27.4,25,44.1c5.3,18.7-4.7,34.3-23.5,37.2
		c-2.4,0.4-4.7,0.3-6.9-0.5c-0.1-2.8,0.3-5.6-0.6-8.4c0.4-1.4,1.1-2.8-0.6-3.8c1.5-1,1.2-2.6,1.2-4
		C243.9,122.3,243.9,101.1,243.9,79.8z"/>
	<path class="st16" d="M243.3,151.4c0.9,2.7,0.5,5.6,0.6,8.4c-13.4-1.2-23.9-14.3-23.2-28.5c0.5-9.9,3.9-18.9,8.3-27.6
		c4.2-8.4,8.7-16.6,14.9-23.8c0,21.3,0,42.5,0,63.8c0,1.4,0.4,3-1.2,4c-6.7-3.1-10.4-8.4-11.4-15.6c-0.3-1.9-0.8-3.1-3-2.8
		c-2.3,0.3-1.7,1.9-1.5,3.4c1.2,8.5,5.7,14.6,13.1,18.7C241,151.9,242.2,153.3,243.3,151.4z"/>
	<path class="st10" d="M294.2,352.1c0,4.5,0.1,8.1,0,11.7c-0.1,3.3-3.7,6.3-6.9,6c-3-0.3-5-3.2-4.4-6.9
		C283.8,356.6,289.2,355.2,294.2,352.1z"/>
	<path class="st16" d="M181.2,142.7c0-4.9,0-8.8,0-12.8c0-0.8-0.4-1.9,0.6-2.3c1.1-0.4,1.9,0.4,2.6,1.2c0.9,1.1,1.1,2.4,1.1,3.7
		c0,2.6,0.3,5.3,0.1,7.9c-0.6,9.7,2.9,17.6,9.7,24.4c2.8,2.8,5.4,5.8,8.1,8.7c1.1,1.2,2,1.4,3.3,0.2c1.3-1.2,1.1-2.1,0-3.3
		c-2.6-2.8-5.2-5.6-7.8-8.4c-1.2-1.3-2.6-2.5-3.5-3.9c-0.8-1.2-2.6-2.8-1.3-4.2c1.4-1.4,3.3-0.3,4.7,0.9c2.2,1.9,4.6,3.7,6.6,5.8
		c3.3,3.4,6.9,6.2,11,8.7c7.9,4.7,12.3,15.3,10.6,24.5c-0.4,2-1.5,1.9-2.8,1.9c-6.3,0-12.6,0-19,0c-2.1,0-3.2-1.1-4.3-2.6
		c-4-5.3-8-10.5-12.1-15.7c-2.2-2.8-2.5-6.2-3.7-9.3C182.2,159.6,179.8,151,181.2,142.7z"/>
	<path class="st16" d="M228.3,346c-0.1,1.6-0.1,2.6-0.2,3.6c-0.4,4.8-2.7,7.5-6.4,7.6c-3.5,0-6.3-2.7-6.8-7.3
		c-0.4-3.2-0.5-6.4,0.6-9.6c1-3.1,2.9-5,6.4-4.9c3.6,0.1,5.2,2.5,6,5.5C228.3,342.7,228.2,344.7,228.3,346z"/>
	<path class="st16" d="M222.8,383.9c-2.2-0.2-3.3-0.2-4.2-0.4c-3-0.7-6.5-1-5.9-5.4c0.6-3.9,4.3-6.3,8.3-5.7c2,0.3,4.1,0.6,6,1.2
		c2.3,0.7,3.8,2.1,3.8,4.8c-0.1,2.7-1.8,3.9-4,4.6C225.1,383.5,223.4,384.1,222.8,383.9z"/>
	<path class="st16" d="M194.5,352.1c0,4.2-0.1,7.6,0,10.9c0.1,3.4-1.9,5.1-4.5,6.4c-1.9,0.9-3.8,0.7-5.3-0.9c-2-2.2-2.1-4.8-1.2-7.4
		C185.2,356.3,189.8,354.9,194.5,352.1z"/>
	<path class="st17" d="M243.3,151.4c-1.1,1.9-2.4,0.5-3.3-0.1c-7.4-4.1-11.9-10.2-13.1-18.7c-0.2-1.4-0.8-3,1.5-3.4
		c2.2-0.3,2.7,0.8,3,2.8c1,7.2,4.7,12.5,11.4,15.6C244.5,148.6,243.7,150.1,243.3,151.4z"/>
</g>
</svg>
