<svg xmlns="http://www.w3.org/2000/svg" width="12.444" height="8.4" viewBox="0 0 12.444 8.4">
  <path id="Icon_zocial-email" data-name="Icon zocial-email" d="M.024,9.012V2.1q0-.012.036-.228l4.068,3.48L.072,9.252a1.017,1.017,0,0,1-.048-.24Zm.54-7.62a.517.517,0,0,1,.2-.036H11.724a.68.68,0,0,1,.216.036L7.86,4.884l-.54.432-1.068.876L5.184,5.316l-.54-.432ZM.576,9.72,4.668,5.8,6.252,7.08,7.836,5.8,11.928,9.72a.576.576,0,0,1-.2.036H.768A.544.544,0,0,1,.576,9.72Zm7.8-4.368,4.056-3.48a.716.716,0,0,1,.036.228V9.012a.92.92,0,0,1-.036.24Z" transform="translate(-0.024 -1.356)" fill="#fff"/>
</svg>
