<svg xmlns="http://www.w3.org/2000/svg" width="18.449" height="12.454" viewBox="0 0 18.449 12.454">
  <path id="Icon_zocial-email" data-name="Icon zocial-email" d="M.072,15.419V5.171q0-.018.053-.338L6.156,9.992.143,15.774a1.508,1.508,0,0,1-.071-.356Zm.8-11.3a.767.767,0,0,1,.3-.053H17.418a1.007,1.007,0,0,1,.32.053L11.689,9.3l-.8.64-1.583,1.3-1.583-1.3-.8-.64ZM.89,16.468l6.067-5.818,2.348,1.9,2.348-1.9,6.067,5.818a.854.854,0,0,1-.3.053H1.175a.806.806,0,0,1-.285-.053ZM12.454,9.992l6.013-5.159a1.062,1.062,0,0,1,.053.338V15.419a1.364,1.364,0,0,1-.053.356Z" transform="translate(-0.072 -4.068)" fill="currentColor"/>
</svg>