<?xml version="1.0" encoding="utf-8"?>
<!-- Generator: Adobe Illustrator 28.1.0, SVG Export Plug-In . SVG Version: 6.00 Build 0)  -->
<svg version="1.1" id="Layer_1" xmlns="http://www.w3.org/2000/svg" xmlns:xlink="http://www.w3.org/1999/xlink" x="0px" y="0px"
	 viewBox="0 0 150.6 120.8" style="enable-background:new 0 0 150.6 120.8;" xml:space="preserve">
<style type="text/css">
	.st0{fill:#1C355E;}
</style>
<path class="st0" d="M128,4.9L128,4.9l-1.1-0.5c-23.2-9.9-41.4-1.6-51.6,10.1c-10.2-11.7-28.4-20-52-9.9l-0.7,0.3
	C10.5,10.3,2.2,21.5,0.4,34.8c-1.8,13.5,3.3,26.8,13.8,35.5l61.1,50.5l61.1-50.5c10.5-8.7,15.7-22,13.8-35.5
	C148.4,21.5,140.1,10.4,128,4.9L128,4.9z M140,36.2c1.4,10-2.5,19.8-10.2,26.2l-54.5,45.1L20.8,62.4C13,56,9.2,46.2,10.6,36.2
	c1.3-9.7,7.4-17.9,16.3-21.9l0.9-0.4c6.1-2.6,11.6-3.7,16.3-3.7c15.3,0,23.7,10.8,26.4,15c1.1,1.6,2.8,2.6,4.8,2.6h0
	c1.9,0,3.7-1,4.8-2.6c3.5-5.5,16.8-22.4,43-11.2l0.7,0.3l0,0C132.6,18.3,138.7,26.5,140,36.2z"/>
</svg>
