<svg xmlns="http://www.w3.org/2000/svg" width="25.68" height="25.68" viewBox="0 0 25.68 25.68">
  <g id="ico_hogar" data-name="ico hogar" transform="translate(0 0)">
    <path id="Trazado_69600" data-name="Trazado 69600" d="M25.429,12.234l-1.711-1.711h0L13.445.25a.856.856,0,0,0-1.21,0L1.964,10.522h0L.251,12.234a.856.856,0,0,0,1.21,1.21l.251-.251V21.4a.856.856,0,0,0,.856.856h8a.856.856,0,0,0,0-1.712H3.424V11.482L12.84,2.066l9.416,9.416v9.061H15.109a.856.856,0,0,0,0,1.712h8a.856.856,0,0,0,.856-.856V13.194l.251.251a.856.856,0,1,0,1.21-1.21" transform="translate(0 0)" fill="#0c284c"/>
    <path id="Trazado_69601" data-name="Trazado 69601" d="M26.769,36.664a.856.856,0,1,1-.856-.856.856.856,0,0,1,.856.856" transform="translate(-13.073 -18.683)" fill="#005fc5"/>
    <path id="Trazado_69602" data-name="Trazado 69602" d="M22.178,40.621a.855.855,0,0,1-.668-.32,26.96,26.96,0,0,1-2.353-3.551A8.467,8.467,0,0,1,17.9,32.917a4.28,4.28,0,1,1,8.56,0A8.474,8.474,0,0,1,25.2,36.75,26.99,26.99,0,0,1,22.846,40.3a.855.855,0,0,1-.668.32m0-10.272a2.571,2.571,0,0,0-2.568,2.568,6.823,6.823,0,0,0,1.052,3.015,23.918,23.918,0,0,0,1.517,2.4,24.066,24.066,0,0,0,1.517-2.4,6.829,6.829,0,0,0,1.052-3.016,2.571,2.571,0,0,0-2.568-2.568" transform="translate(-9.338 -14.941)" fill="#005fc5"/>
  </g>
</svg>
