<svg xmlns="http://www.w3.org/2000/svg" width="9" height="12" viewBox="0 0 9 12">
  <path id="Icon_awesome-clipboard-list" data-name="Icon awesome-clipboard-list" d="M7.875,1.5H6a1.5,1.5,0,0,0-3,0H1.125A1.125,1.125,0,0,0,0,2.625v8.25A1.125,1.125,0,0,0,1.125,12h6.75A1.125,1.125,0,0,0,9,10.875V2.625A1.125,1.125,0,0,0,7.875,1.5ZM2.25,9.938a.563.563,0,1,1,.563-.562A.561.561,0,0,1,2.25,9.938Zm0-2.25a.563.563,0,1,1,.563-.562A.561.561,0,0,1,2.25,7.688Zm0-2.25a.563.563,0,1,1,.563-.562A.561.561,0,0,1,2.25,5.438ZM4.5.938a.563.563,0,1,1-.562.563A.561.561,0,0,1,4.5.938Zm3,8.625a.188.188,0,0,1-.187.188H3.938a.188.188,0,0,1-.187-.187V9.188A.188.188,0,0,1,3.938,9H7.313a.188.188,0,0,1,.188.188Zm0-2.25a.188.188,0,0,1-.187.188H3.938a.188.188,0,0,1-.187-.187V6.938a.188.188,0,0,1,.188-.187H7.313a.188.188,0,0,1,.188.188Zm0-2.25a.188.188,0,0,1-.187.188H3.938a.188.188,0,0,1-.187-.187V4.688A.188.188,0,0,1,3.938,4.5H7.313a.188.188,0,0,1,.188.188Z" fill="#0071ce"/>
</svg>
