<svg xmlns="http://www.w3.org/2000/svg" xmlns:xlink="http://www.w3.org/1999/xlink" width="24.018" height="32.752" viewBox="0 0 24.018 32.752">
  <defs>
    <clipPath id="clip-path">
      <rect id="Rectángulo_9022" data-name="Rectángulo 9022" width="24.018" height="32.752" fill="none"/>
    </clipPath>
  </defs>
  <g id="icon-etapa-1" transform="translate(0 0)">
    <g id="Grupo_16655" data-name="Grupo 16655" transform="translate(0 0)" clip-path="url(#clip-path)">
      <path id="Trazado_69605" data-name="Trazado 69605" d="M6.893,10.518A1.092,1.092,0,1,1,5.8,9.427a1.091,1.091,0,0,1,1.091,1.091" transform="translate(-0.342 -0.686)" fill="#005fc5"/>
      <path id="Trazado_69606" data-name="Trazado 69606" d="M6.893,29.348A1.092,1.092,0,1,1,5.8,28.257a1.091,1.091,0,0,1,1.091,1.091" transform="translate(-0.342 -2.055)" fill="#005fc5"/>
      <path id="Trazado_69607" data-name="Trazado 69607" d="M6.893,24.638A1.092,1.092,0,1,1,5.8,23.547a1.091,1.091,0,0,1,1.091,1.091" transform="translate(-0.342 -1.713)" fill="#005fc5"/>
      <path id="Trazado_69608" data-name="Trazado 69608" d="M6.893,19.929A1.092,1.092,0,1,1,5.8,18.838a1.091,1.091,0,0,1,1.091,1.091" transform="translate(-0.342 -1.37)" fill="#005fc5"/>
      <path id="Trazado_69609" data-name="Trazado 69609" d="M6.893,15.22A1.092,1.092,0,1,1,5.8,14.129,1.091,1.091,0,0,1,6.893,15.22" transform="translate(-0.342 -1.028)" fill="#005fc5"/>
      <path id="Trazado_69610" data-name="Trazado 69610" d="M22.926,2.184H18.56V1.092A1.092,1.092,0,0,0,17.468,0H6.55A1.091,1.091,0,0,0,5.459,1.092V2.184H1.091A1.091,1.091,0,0,0,0,3.275V31.66a1.092,1.092,0,0,0,1.091,1.092H22.926a1.092,1.092,0,0,0,1.092-1.092V3.275a1.092,1.092,0,0,0-1.092-1.091m-15.283,0h8.733V4.367H7.643V2.184ZM21.835,30.569H2.184V4.367H5.459V5.459A1.091,1.091,0,0,0,6.55,6.55H17.468A1.091,1.091,0,0,0,18.56,5.459V4.367h3.275Z" transform="translate(0 0)" fill="#0c284c"/>
      <path id="Trazado_69611" data-name="Trazado 69611" d="M19.244,11.6H10.51a1.092,1.092,0,0,1,0-2.184h8.734a1.092,1.092,0,0,1,0,2.184" transform="translate(-0.685 -0.685)" fill="#005fc5"/>
      <path id="Trazado_69612" data-name="Trazado 69612" d="M19.244,16.312H10.51a1.092,1.092,0,0,1,0-2.184h8.734a1.092,1.092,0,0,1,0,2.184" transform="translate(-0.685 -1.028)" fill="#005fc5"/>
      <path id="Trazado_69613" data-name="Trazado 69613" d="M19.244,21.021H10.51a1.092,1.092,0,0,1,0-2.184h8.734a1.092,1.092,0,0,1,0,2.184" transform="translate(-0.685 -1.37)" fill="#005fc5"/>
      <path id="Trazado_69614" data-name="Trazado 69614" d="M19.244,25.731H10.51a1.092,1.092,0,0,1,0-2.184h8.734a1.092,1.092,0,0,1,0,2.184" transform="translate(-0.685 -1.713)" fill="#005fc5"/>
      <path id="Trazado_69615" data-name="Trazado 69615" d="M19.244,30.44H10.51a1.092,1.092,0,0,1,0-2.184h8.734a1.092,1.092,0,0,1,0,2.184" transform="translate(-0.685 -2.055)" fill="#005fc5"/>
    </g>
  </g>
</svg>
