<svg xmlns="http://www.w3.org/2000/svg" xmlns:xlink="http://www.w3.org/1999/xlink" width="100%" height="100%" viewBox="0 0 46.797 46.797">
  <defs>
    <clipPath id="clip-path">
      <rect id="Rectángulo_9055" data-name="Rectángulo 9055" width="100%" height="100%" transform="translate(0 0)" fill="none"/>
    </clipPath>
  </defs>
  <g id="icon-cocina" transform="translate(0 0)">
    <path id="Trazado_70056" data-name="Trazado 70056" d="M15.14,6.918l3.009-3.009,7.306,8.577-4,1.852Z" fill="#5ecbf4"/>
    <g id="Grupo_16724" data-name="Grupo 16724">
      <g id="Grupo_16723" data-name="Grupo 16723" clip-path="url(#clip-path)">
        <path id="Trazado_70057" data-name="Trazado 70057" d="M44.737.375H2.06A1.686,1.686,0,0,0,.375,2.059V44.737A1.687,1.687,0,0,0,2.06,46.422H44.737a1.687,1.687,0,0,0,1.685-1.685V2.059A1.686,1.686,0,0,0,44.737.375M45.3,44.737a.563.563,0,0,1-.562.562H2.06a.564.564,0,0,1-.562-.562V2.059A.563.563,0,0,1,2.06,1.5H44.737a.562.562,0,0,1,.562.561Z" fill="#0071ce"/>
        <path id="Trazado_70058" data-name="Trazado 70058" d="M44.737.375H2.06A1.686,1.686,0,0,0,.375,2.059V44.737A1.687,1.687,0,0,0,2.06,46.422H44.737a1.687,1.687,0,0,0,1.685-1.685V2.059A1.686,1.686,0,0,0,44.737.375ZM45.3,44.737a.563.563,0,0,1-.562.562H2.06a.564.564,0,0,1-.562-.562V2.059A.563.563,0,0,1,2.06,1.5H44.737a.562.562,0,0,1,.562.561Z" fill="none" stroke="#0071ce" stroke-width="0.75"/>
        <path id="Trazado_70059" data-name="Trazado 70059" d="M41.368,4.867H21.181L19.85,3.239a1.683,1.683,0,0,0-2.5-.124L14.346,6.124a1.683,1.683,0,0,0,.125,2.5L16.1,9.95V41.368a.561.561,0,0,0,.561.561H41.368a.561.561,0,0,0,.561-.561V5.429A.561.561,0,0,0,41.368,4.867ZM15.181,7.75a.562.562,0,0,1-.041-.832l3.009-3.009a.562.562,0,0,1,.832.041L24.7,10.938a.561.561,0,0,1-.038.753L22.922,13.43a.561.561,0,0,1-.753.038ZM40.806,40.806H17.221V10.869l4.239,3.468a1.679,1.679,0,0,0,2.257-.113l1.738-1.739a1.678,1.678,0,0,0,.113-2.256L22.1,5.99H40.806Z" fill="none" stroke="#0071ce" stroke-width="1"/>
        <path id="Trazado_70060" data-name="Trazado 70060" d="M29.014,23.96a3.931,3.931,0,1,0-3.931-3.931,3.936,3.936,0,0,0,3.931,3.931m0-6.739a2.807,2.807,0,1,1-2.808,2.808,2.81,2.81,0,0,1,2.808-2.808" fill="#0071ce"/>
        <path id="Trazado_70061" data-name="Trazado 70061" d="M29.014,23.96a3.931,3.931,0,1,0-3.931-3.931A3.936,3.936,0,0,0,29.014,23.96Zm0-6.739a2.807,2.807,0,1,1-2.808,2.808A2.81,2.81,0,0,1,29.014,17.221Z" fill="none" stroke="#0071ce" stroke-width="0.5"/>
        <path id="Trazado_70062" data-name="Trazado 70062" d="M29.014,21.714a1.685,1.685,0,1,0-1.685-1.684,1.686,1.686,0,0,0,1.685,1.684m0-2.246a.561.561,0,1,1-.562.562.563.563,0,0,1,.562-.562" fill="#0071ce"/>
        <path id="Trazado_70063" data-name="Trazado 70063" d="M29.014,21.714a1.685,1.685,0,1,0-1.685-1.684A1.686,1.686,0,0,0,29.014,21.714Zm0-2.246a.561.561,0,1,1-.562.562A.563.563,0,0,1,29.014,19.468Z" fill="none" stroke="#0071ce" stroke-width="0.75"/>
        <path id="Trazado_70064" data-name="Trazado 70064" d="M14.414,36.314H3.183a.562.562,0,0,0,0,1.123H14.414a.562.562,0,1,0,0-1.123" fill="#0071ce"/>
        <path id="Trazado_70065" data-name="Trazado 70065" d="M14.414,36.314H3.183a.562.562,0,0,0,0,1.123H14.414a.562.562,0,1,0,0-1.123Z" fill="none" stroke="#0071ce" stroke-width="0.75"/>
        <path id="Trazado_70066" data-name="Trazado 70066" d="M14.414,40.806H3.183a.562.562,0,0,0,0,1.123H14.414a.562.562,0,1,0,0-1.123" fill="#0071ce"/>
        <path id="Trazado_70067" data-name="Trazado 70067" d="M14.414,40.806H3.183a.562.562,0,0,0,0,1.123H14.414a.562.562,0,1,0,0-1.123Z" fill="none" stroke="#0071ce" stroke-width="0.75"/>
        <path id="Trazado_70068" data-name="Trazado 70068" d="M14.414,31.822H3.183a.561.561,0,0,0,0,1.123H14.414a.561.561,0,1,0,0-1.123" fill="#0071ce"/>
        <path id="Trazado_70069" data-name="Trazado 70069" d="M14.414,31.822H3.183a.561.561,0,0,0,0,1.123H14.414a.561.561,0,1,0,0-1.123Z" fill="none" stroke="#0071ce" stroke-width="0.75"/>
        <path id="Trazado_70070" data-name="Trazado 70070" d="M14.414,27.329H3.183a.561.561,0,0,0,0,1.123H14.414a.561.561,0,1,0,0-1.123" fill="#0071ce"/>
        <path id="Trazado_70071" data-name="Trazado 70071" d="M14.414,27.329H3.183a.561.561,0,0,0,0,1.123H14.414a.561.561,0,1,0,0-1.123Z" fill="none" stroke="#0071ce" stroke-width="0.75"/>
        <path id="Trazado_70072" data-name="Trazado 70072" d="M14.414,22.837H3.183a.561.561,0,0,0,0,1.123H14.414a.561.561,0,1,0,0-1.123" fill="#0071ce"/>
        <path id="Trazado_70073" data-name="Trazado 70073" d="M14.414,22.837H3.183a.561.561,0,0,0,0,1.123H14.414a.561.561,0,1,0,0-1.123Z" fill="none" stroke="#0071ce" stroke-width="0.75"/>
        <path id="Trazado_70074" data-name="Trazado 70074" d="M14.414,18.345H3.183a.562.562,0,0,0,0,1.123H14.414a.562.562,0,1,0,0-1.123" fill="#0071ce"/>
        <path id="Trazado_70075" data-name="Trazado 70075" d="M14.414,18.345H3.183a.562.562,0,0,0,0,1.123H14.414a.562.562,0,1,0,0-1.123Z" fill="none" stroke="#0071ce" stroke-width="0.75"/>
        <path id="Trazado_70076" data-name="Trazado 70076" d="M14.414,13.852H3.183a.562.562,0,0,0,0,1.123H14.414a.562.562,0,1,0,0-1.123" fill="#0071ce"/>
        <path id="Trazado_70077" data-name="Trazado 70077" d="M14.414,13.852H3.183a.562.562,0,0,0,0,1.123H14.414a.562.562,0,1,0,0-1.123Z" fill="none" stroke="#0071ce" stroke-width="0.75"/>
        <path id="Trazado_70078" data-name="Trazado 70078" d="M3.183,10.483H13.4a.562.562,0,0,0,0-1.123H3.183a.562.562,0,1,0,0,1.123" fill="#0071ce"/>
        <path id="Trazado_70079" data-name="Trazado 70079" d="M3.183,10.483H13.4a.562.562,0,0,0,0-1.123H3.183a.562.562,0,1,0,0,1.123Z" fill="none" stroke="#0071ce" stroke-width="0.75"/>
        <path id="Trazado_70080" data-name="Trazado 70080" d="M3.183,5.991h9.568a.562.562,0,1,0,0-1.123H3.183a.562.562,0,1,0,0,1.123" fill="#0071ce"/>
        <path id="Trazado_70081" data-name="Trazado 70081" d="M3.183,5.991h9.568a.562.562,0,1,0,0-1.123H3.183a.562.562,0,1,0,0,1.123Z" fill="none" stroke="#0071ce" stroke-width="0.75"/>
      </g>
    </g>
  </g>
</svg>
