<svg xmlns="http://www.w3.org/2000/svg" width="100%" height="100%" viewBox="0 0 25.359 25.359">
  <g id="icon-domicilio" transform="translate(-136 -198.085)">
    <path id="Trazado_70109" data-name="Trazado 70109" d="M25.112,12.261l-1.69-1.69h0L13.277.426a.845.845,0,0,0-1.2,0L1.939,10.57h0l-1.69,1.69a.845.845,0,0,0,1.2,1.2l.247-.247v8.1a.845.845,0,0,0,.845.845h7.9a.845.845,0,0,0,0-1.691H3.382V11.518l9.3-9.3,9.3,9.3v8.948H14.92a.845.845,0,0,0,0,1.691h7.9a.845.845,0,0,0,.845-.845v-8.1l.247.247a.845.845,0,1,0,1.2-1.2" transform="translate(136 197.906)" fill="#1c355e"/>
    <path id="Trazado_70110" data-name="Trazado 70110" d="M26.748,36.832a.845.845,0,1,1-.845-.845.845.845,0,0,1,.845.845" transform="translate(122.777 179.009)" fill="#0071ce"/>
    <path id="Trazado_70111" data-name="Trazado 70111" d="M22.124,40.65a.845.845,0,0,1-.66-.316,26.624,26.624,0,0,1-2.324-3.507A8.361,8.361,0,0,1,17.9,33.043a4.226,4.226,0,1,1,8.453,0,8.368,8.368,0,0,1-1.243,3.785,26.653,26.653,0,0,1-2.324,3.506.845.845,0,0,1-.66.316m0-10.144a2.539,2.539,0,0,0-2.536,2.536,6.738,6.738,0,0,0,1.039,2.977,23.62,23.62,0,0,0,1.5,2.372,23.766,23.766,0,0,0,1.5-2.371,6.743,6.743,0,0,0,1.039-2.978,2.539,2.539,0,0,0-2.536-2.536" transform="translate(126.555 182.793)" fill="#0071ce"/>
  </g>
</svg>
