<svg xmlns="http://www.w3.org/2000/svg" width="17.826" height="18.24" viewBox="0 0 17.826 18.24">
  <g id="icono_google" data-name="icono google" transform="translate(0)">
    <path id="Trazado_11" data-name="Trazado 11" d="M72.707,54.267a9.847,9.847,0,0,0-.214-1.867H64v3.52h4.774a4.112,4.112,0,0,1-1.724,2.764v2.294H70a8.94,8.94,0,0,0,2.707-6.712Z" transform="translate(-54.881 -44.933)" fill="#4284f4"/>
    <path id="Trazado_12" data-name="Trazado 12" d="M14.922,83.5A8.749,8.749,0,0,0,20.95,81.3L18,78.993A5.478,5.478,0,0,1,9.835,76.1H6.8v2.365a9.073,9.073,0,0,0,8.122,5.03Z" transform="translate(-5.832 -65.256)" fill="#34a853"/>
    <path id="Trazado_13" data-name="Trazado 13" d="M4,41.128a5.445,5.445,0,0,1,0-3.477V35.3H.969a9.115,9.115,0,0,0,0,8.179L4,41.128Z" transform="translate(0 -30.27)" fill="#fbbc04"/>
    <path id="Trazado_14" data-name="Trazado 14" d="M14.922,3.619A4.864,4.864,0,0,1,18.4,4.987L21.007,2.38A8.76,8.76,0,0,0,14.922,0,9.073,9.073,0,0,0,6.8,5.03L9.835,7.4a5.422,5.422,0,0,1,5.087-3.776Z" transform="translate(-5.832 0)" fill="#ea4335"/>
  </g>
</svg>
