<svg xmlns="http://www.w3.org/2000/svg" viewBox="0 0 62.162 62.7">
  <g id="icon-whatsapp" transform="translate(4.541 4)">
    <path id="Trazado_70088" data-name="Trazado 70088" d="M26.817,0H26.8A26.794,26.794,0,0,0,5.1,42.525l-3.341,9.96,10.305-3.294A26.806,26.806,0,1,0,26.817,0Z" transform="translate(0)" fill="#fff" stroke="#4caf50" stroke-width="5"/>
    <path id="Trazado_70089" data-name="Trazado 70089" d="M30.851,26.232c-.57,1.611-2.834,2.946-4.64,3.337-1.235.263-2.849.473-8.281-1.779C10.983,24.911,6.508,17.85,6.16,17.392s-2.808-3.738-2.808-7.131A7.548,7.548,0,0,1,5.769,4.507a3.435,3.435,0,0,1,2.417-.848c.293,0,.556.015.792.027.694.03,1.043.071,1.5,1.167.57,1.374,1.959,4.767,2.125,5.116a1.407,1.407,0,0,1,.1,1.28,4.086,4.086,0,0,1-.765,1.085c-.349.4-.68.709-1.028,1.141-.319.375-.68.777-.278,1.472a20.985,20.985,0,0,0,3.836,4.767,17.382,17.382,0,0,0,5.544,3.419,1.5,1.5,0,0,0,1.667-.263,28.606,28.606,0,0,0,1.847-2.447,1.319,1.319,0,0,1,1.7-.514c.638.222,4.016,1.891,4.711,2.237s1.153.514,1.321.807A5.888,5.888,0,0,1,30.851,26.232Z" transform="translate(9.758 10.35)" fill="#4caf50"/>
  </g>
</svg>
