<svg xmlns="http://www.w3.org/2000/svg" width="100%" height="100%" viewBox="0 0 22.434 22.434">
  <g id="icon-tienda" transform="translate(-360.566 -198)">
    <path id="Trazado_70107" data-name="Trazado 70107" d="M506.061,32.9h-4.487a.747.747,0,0,1-.748-.748V27.665a.747.747,0,0,1,.748-.748h4.487a.748.748,0,0,1,.748.748v4.487a.748.748,0,0,1-.748.748m-3.739-1.5h2.991V28.412h-2.991Z" transform="translate(-128.296 183.795)" fill="#37bbd8"/>
    <path id="Trazado_70108" data-name="Trazado 70108" d="M497.179,5.982h-.164L495.66.566A.747.747,0,0,0,494.935,0H478.483a.747.747,0,0,0-.725.567L476.4,5.982h-.164a.747.747,0,0,0-.748.748v1.5a2.239,2.239,0,0,0,1.5,2.105V21.686a.748.748,0,0,0,.748.748h17.947a.747.747,0,0,0,.748-.748V10.331a2.24,2.24,0,0,0,1.5-2.105V6.73a.748.748,0,0,0-.748-.748M479.068,1.5h15.283l1.122,4.487H477.946Zm12.877,5.982h1.5v.748a.748.748,0,0,1-1.5,0Zm-2.991,0h1.5v.748a.748.748,0,0,1-1.5,0Zm-2.991,0h1.5v.748a.748.748,0,0,1-1.5,0Zm-2.991,0h1.5v.748a.748.748,0,0,1-1.5,0Zm-2.991,0h1.5v.748a.748.748,0,0,1-1.5,0Zm-2.243,1.5a.748.748,0,0,1-.748-.748V7.478h1.5v.748a.748.748,0,0,1-.748.748m3.739,5.982h2.991v5.982h-2.991Zm4.487,5.982v-6.73a.748.748,0,0,0-.748-.748h-4.487a.747.747,0,0,0-.748.748v6.73h-1.5V10.331a1.424,1.424,0,0,1,2.243.138,2.209,2.209,0,0,1,2.991,0,2.209,2.209,0,0,1,2.991,0,2.209,2.209,0,0,1,2.991,0,2.209,2.209,0,0,1,2.991,0,1.424,1.424,0,0,1,2.243-.138V20.938ZM496.431,8.226a.748.748,0,0,1-1.5,0V7.478h1.5Z" transform="translate(-114.927 198)" fill="#312e70"/>
    <line id="Línea_106" data-name="Línea 106" x1="1.233" y2="5.919" transform="translate(364.66 198.678)" fill="none" stroke="#312e70" stroke-width="2"/>
    <line id="Línea_107" data-name="Línea 107" x2="1.233" y2="5.919" transform="translate(377.978 198.678)" fill="none" stroke="#312e70" stroke-width="2"/>
    <line id="Línea_108" data-name="Línea 108" x1="0.863" y2="5.919" transform="translate(367.126 198.678)" fill="none" stroke="#312e70" stroke-width="2"/>
    <line id="Línea_109" data-name="Línea 109" x2="0.493" y2="5.919" transform="translate(375.635 198.678)" fill="none" stroke="#312e70" stroke-width="2"/>
    <line id="Línea_110" data-name="Línea 110" x1="0.123" y2="5.919" transform="translate(370.209 198.678)" fill="none" stroke="#312e70" stroke-width="2"/>
    <line id="Línea_111" data-name="Línea 111" x1="0.123" y2="5.919" transform="translate(373.045 198.678)" fill="none" stroke="#312e70" stroke-width="2"/>
  </g>
</svg>
