<svg xmlns="http://www.w3.org/2000/svg" width="23.138" height="15.425" viewBox="0 0 23.138 15.425">
  <path id="Icon_metro-visa" data-name="Icon metro-visa" d="M22.4,18.946H21.019q.141-.372.663-1.8l.03-.09q.04-.1.1-.261t.09-.261l.121.552ZM7.9,18.293,7.321,15.33a.666.666,0,0,0-.753-.542H3.876l-.02.131A5.327,5.327,0,0,1,7.9,18.293Zm1.8-3.5-1.627,4.4L7.9,18.293a3.651,3.651,0,0,0-.854-1.3A3.9,3.9,0,0,0,5.734,16.1L7.09,21.225H8.847l2.621-6.437H9.7Zm1.4,6.447h1.667l1.044-6.447H12.141Zm7.713-6.287a4.07,4.07,0,0,0-1.5-.271,3.255,3.255,0,0,0-2.019.593,1.868,1.868,0,0,0-.793,1.537q-.01,1.024,1.456,1.747a2.778,2.778,0,0,1,.673.412.535.535,0,0,1,.191.392.5.5,0,0,1-.3.462,1.45,1.45,0,0,1-.693.161,3.628,3.628,0,0,1-1.567-.331l-.221-.11-.231,1.446a4.45,4.45,0,0,0,1.858.341,3.316,3.316,0,0,0,2.094-.593,1.975,1.975,0,0,0,.808-1.607q0-1.064-1.406-1.747a4.853,4.853,0,0,1-.713-.422.483.483,0,0,1-.221-.382.469.469,0,0,1,.246-.387,1.265,1.265,0,0,1,.708-.166,2.835,2.835,0,0,1,1.245.241l.151.08Zm4.268-.161H21.792a.853.853,0,0,0-.874.542l-2.47,5.9H20.2l.351-.964h2.129q.05.221.2.964h1.547Zm2.631-3.214V24.429a1.3,1.3,0,0,1-1.285,1.285H3.856a1.235,1.235,0,0,1-.9-.382,1.235,1.235,0,0,1-.382-.9V11.575a1.235,1.235,0,0,1,.382-.9,1.235,1.235,0,0,1,.9-.382H24.423a1.3,1.3,0,0,1,1.285,1.285Z" transform="translate(-2.571 -10.289)" fill="#1c355e"/>
</svg>
