<svg xmlns="http://www.w3.org/2000/svg" width="9.438" height="10.786" viewBox="0 0 9.438 10.786">
  <path id="Icon_awesome-address-book" data-name="Icon awesome-address-book" d="M9.185,3.371a.254.254,0,0,0,.253-.253V2.275a.254.254,0,0,0-.253-.253H8.763V1.011A1.011,1.011,0,0,0,7.752,0H1.011A1.011,1.011,0,0,0,0,1.011V9.775a1.011,1.011,0,0,0,1.011,1.011H7.752A1.011,1.011,0,0,0,8.763,9.775V8.763h.421a.254.254,0,0,0,.253-.253V7.668a.254.254,0,0,0-.253-.253H8.763V6.067h.421a.254.254,0,0,0,.253-.253V4.972a.254.254,0,0,0-.253-.253H8.763V3.371ZM4.382,2.7A1.348,1.348,0,1,1,3.033,4.045,1.349,1.349,0,0,1,4.382,2.7ZM6.741,7.685a.442.442,0,0,1-.472.4H2.494a.442.442,0,0,1-.472-.4v-.4A1.327,1.327,0,0,1,3.438,6.067h.105a2.17,2.17,0,0,0,1.677,0h.105A1.327,1.327,0,0,1,6.741,7.28Z" fill="#0071ce"/>
</svg>
