<svg xmlns="http://www.w3.org/2000/svg" width="14.98" height="11.984" viewBox="0 0 14.98 11.984">
  <path id="Icon-vaciar" d="M6,5.074l2.03,2.555a6.479,6.479,0,0,1-1.792,3.514c-1.4,1.118-6.241.8-6.241.8s.089-.542.257-1.3L2.472,8.019A.14.14,0,0,0,2.316,7.8L.9,8.313A5.321,5.321,0,0,1,2.181,6.032,6.461,6.461,0,0,1,6,5.074ZM14.9.726,14.434.141a.373.373,0,0,0-.525-.06L8.468,4.243l-.8-1.006a.257.257,0,0,0-.435.052L6.641,4.566l2.03,2.555,1.376-.291a.257.257,0,0,0,.148-.412l-.8-1,5.441-4.162A.374.374,0,0,0,14.9.726Z" fill="#f17523"/>
</svg>
