<svg xmlns="http://www.w3.org/2000/svg" width="8.024" height="9.606" viewBox="0 0 8.024 9.606">
  <path id="Icon_simple-sitepoint" data-name="Icon simple-sitepoint" d="M1.186,4.216l.709.676L4.136,6.949,5.1,6.032a.322.322,0,0,0-.018-.394L4.2,4.877l0,0-.949-.907a.315.315,0,0,1,.008-.432L5.817,1.1,4.658,0,1.188,3.3a.629.629,0,0,0,0,.919ZM8.813,5.391l-.708-.677L5.866,2.656,4.9,3.573a.31.31,0,0,0,.018.394l.883.757h0l.948.907a.308.308,0,0,1-.012.426L4.177,8.489,5.342,9.606l3.47-3.3a.628.628,0,0,0,0-.919Z" transform="translate(-0.989)" fill="#0071ce"/>
</svg>
