<svg xmlns="http://www.w3.org/2000/svg" xmlns:xlink="http://www.w3.org/1999/xlink" width="30.501" height="26.179" viewBox="0 0 30.501 26.179">
  <defs>
    <clipPath id="clip-path">
      <rect id="Rectángulo_9062" data-name="Rectángulo 9062" width="30.501" height="26.179" transform="translate(0 0)" fill="none"/>
    </clipPath>
  </defs>
  <g id="icon-caja" transform="translate(0 0)" clip-path="url(#clip-path)">
    <path id="Trazado_70103" data-name="Trazado 70103" d="M30.113,11.27,25.8,8.357l4.02-2.88.036-.03a.593.593,0,0,0-.142-1L20.071.179a.591.591,0,0,0-.614.073L15.139,3.638l-4.1-3.36a.605.605,0,0,0-.63-.106L.485,4.38a.6.6,0,0,0-.357.471l0,.046a.591.591,0,0,0,.239.51L4.578,8.518.4,11.547A.6.6,0,0,0,.53,12.581l4.4,1.782v6.775a1.092,1.092,0,0,0,.669,1l9.246,3.827a1.036,1.036,0,0,0,.829,0l9.247-3.859a1.1,1.1,0,0,0,.671-1.011l-.016-6.768L30.03,12.3a.6.6,0,0,0,.083-1.033M19.894,1.284l8.6,3.809L24.755,7.775,16.326,4.082Zm-18.2,3.76,8.869-3.761,3.488,2.86L5.53,7.877Zm.056,6.863L5.515,9.175l8.535,3.74-3.271,2.653Zm4.258,9.231V14.8l4.634,1.879a.607.607,0,0,0,.221.043.6.6,0,0,0,.375-.133l3.46-2.808.019,10.963Zm9.251-8.875L6.737,8.529,15.258,4.8,23.78,8.529ZM15.8,24.744l-.019-11.057,4.038,2.931a.6.6,0,0,0,.35.113.579.579,0,0,0,.245-.054l4.082-1.856.012,6.287Zm4.424-9.169-3.7-2.684,8.527-3.736,3.74,2.525Z" fill="#312e70"/>
    <path id="Trazado_70104" data-name="Trazado 70104" d="M30.113,11.27,25.8,8.357l4.02-2.88.036-.03a.593.593,0,0,0-.142-1L20.071.179a.591.591,0,0,0-.614.073L15.139,3.638l-4.1-3.36a.605.605,0,0,0-.63-.106L.485,4.38a.6.6,0,0,0-.357.471l0,.046a.591.591,0,0,0,.239.51L4.578,8.518.4,11.547A.6.6,0,0,0,.53,12.581l4.4,1.782v6.775a1.092,1.092,0,0,0,.669,1l9.246,3.827a1.036,1.036,0,0,0,.829,0l9.247-3.859a1.1,1.1,0,0,0,.671-1.011l-.016-6.768L30.03,12.3a.6.6,0,0,0,.083-1.033ZM19.894,1.284l8.6,3.809L24.755,7.775,16.326,4.082Zm-18.2,3.76,8.869-3.761,3.488,2.86L5.53,7.877Zm.056,6.863L5.515,9.175l8.535,3.74-3.271,2.653Zm4.258,9.231V14.8l4.634,1.879a.607.607,0,0,0,.221.043.6.6,0,0,0,.375-.133l3.46-2.808.019,10.963Zm9.251-8.875L6.737,8.529,15.258,4.8,23.78,8.529ZM15.8,24.744l-.019-11.057,4.038,2.931a.6.6,0,0,0,.35.113.579.579,0,0,0,.245-.054l4.082-1.856.012,6.287Zm4.424-9.169-3.7-2.684,8.527-3.736,3.74,2.525Z" fill="none" stroke="#312e70" stroke-width="0.25"/>
    <path id="Trazado_70105" data-name="Trazado 70105" d="M10.325,20.765,7.419,19.587a.541.541,0,0,0-.405,1L9.92,21.768a.538.538,0,0,0,.7-.3.54.54,0,0,0-.3-.7" fill="#0071ce"/>
    <path id="Trazado_70106" data-name="Trazado 70106" d="M7.014,18.656l1.605.65a.54.54,0,1,0,.4-1l-1.605-.651a.541.541,0,0,0-.405,1" fill="#0071ce"/>
  </g>
</svg>
