<svg xmlns="http://www.w3.org/2000/svg" width="25.75" height="15.424" viewBox="0 0 25.75 15.424">
  <path id="Icon_payment-mastercard-alt" data-name="Icon payment-mastercard-alt" d="M30.87,24.062a7.711,7.711,0,0,0-1.02-3.888,8.857,8.857,0,0,0-2.8-2.8,8.188,8.188,0,0,0-3.888-1.02A7.356,7.356,0,0,0,18.5,17.943a7.751,7.751,0,0,1,2.422,4.016h-.7a7.342,7.342,0,0,0-2.231-3.633,7.333,7.333,0,0,0-2.231,3.633h-.7a7.745,7.745,0,0,1,2.422-4.016,7.361,7.361,0,0,0-4.653-1.593,8.183,8.183,0,0,0-3.888,1.02,8.844,8.844,0,0,0-2.8,2.8,7.92,7.92,0,0,0,0,7.776,8.835,8.835,0,0,0,2.8,2.8,8.173,8.173,0,0,0,3.888,1.02,7.356,7.356,0,0,0,4.653-1.593,8.033,8.033,0,0,1-2.358-3.7h.7A7.757,7.757,0,0,0,17.995,29.8a7.768,7.768,0,0,0,2.167-3.314h.7a8.052,8.052,0,0,1-2.358,3.7,7.35,7.35,0,0,0,4.653,1.593,8.176,8.176,0,0,0,3.888-1.02,8.847,8.847,0,0,0,2.8-2.8,7.712,7.712,0,0,0,1.02-3.888ZM8.5,22.213H9.709l-.637,3.7H8.307l.446-2.8-1.02,2.8H7.16v-2.8l-.51,2.8H5.885l.637-3.7H7.67v2.295Zm3.569,1.53a3.023,3.023,0,0,1-.064.574c-.043.3-.086.574-.127.829a4.268,4.268,0,0,1-.127.574v.191h-.637v-.319a.923.923,0,0,1-.829.383.688.688,0,0,1-.51-.191,1.032,1.032,0,0,1-.191-.637,1,1,0,0,1,.319-.829A1.814,1.814,0,0,1,10.984,24H11.3v-.192c0-.169-.17-.255-.51-.255a3.58,3.58,0,0,0-.829.127c.041-.169.085-.383.127-.637a2.6,2.6,0,0,1,.892-.191q1.084,0,1.084.892Zm-.892.829h-.191c-.425,0-.637.15-.637.446,0,.213.085.319.255.319a.432.432,0,0,0,.383-.191A.779.779,0,0,0,11.175,24.572ZM14.3,22.915l-.127.7a1.962,1.962,0,0,0-.574-.064c-.255,0-.383.086-.383.255a.256.256,0,0,0,.064.191l.255.127a.943.943,0,0,1,.574.829q0,1.02-1.211,1.02a3.765,3.765,0,0,1-.829-.064c.041-.169.085-.4.127-.7a3.453,3.453,0,0,0,.7.127c.3,0,.446-.085.446-.255a.264.264,0,0,0-.064-.191.814.814,0,0,0-.319-.191.858.858,0,0,1-.574-.829q0-1.018,1.147-1.02a2.969,2.969,0,0,1,.765.064Zm1.211,0h.383l-.064.765h-.446a2.406,2.406,0,0,1-.064.574,1.992,1.992,0,0,1-.032.255.5.5,0,0,1-.1.255v.255a.225.225,0,0,0,.255.255.563.563,0,0,0,.255-.064l-.127.7a1.93,1.93,0,0,1-.574.064.563.563,0,0,1-.637-.637,2.989,2.989,0,0,1,.127-.829l.319-2.04h.765l-.063.447Zm2.868,1.02a4.02,4.02,0,0,1-.064.765H16.72a.615.615,0,0,0,.127.446.779.779,0,0,0,.574.191,1.689,1.689,0,0,0,.829-.255l-.127.765a2.252,2.252,0,0,1-.829.127,1.183,1.183,0,0,1-1.339-1.339,1.9,1.9,0,0,1,.383-1.275,1.154,1.154,0,0,1,.956-.51,1.124,1.124,0,0,1,.829.319,1.045,1.045,0,0,1,.255.765Zm-1.594.127h.892v-.191l-.064-.127a.189.189,0,0,0-.064-.127.18.18,0,0,1-.127-.064h-.127q-.382,0-.51.51Zm3.569-1.147a4.749,4.749,0,0,0-.319.892c-.17-.042-.319.064-.446.319a12.548,12.548,0,0,0-.319,1.785h-.829l.064-.191q.254-1.783.383-2.8h.765l-.064.446a.815.815,0,0,1,.383-.383.277.277,0,0,1,.382-.064Zm2.677-.574-.127.765a1.588,1.588,0,0,0-.7-.191.855.855,0,0,0-.765.383,1.633,1.633,0,0,0-.255,1.02.879.879,0,0,0,.191.637.6.6,0,0,0,.51.255,1.589,1.589,0,0,0,.7-.191l-.127.829a1.583,1.583,0,0,1-.7.127,1.275,1.275,0,0,1-1.02-.446,1.559,1.559,0,0,1-.383-1.147,2.464,2.464,0,0,1,.51-1.593,1.463,1.463,0,0,1,1.275-.637,3.069,3.069,0,0,1,.892.191Zm2.295,1.4a2,2,0,0,1-.032.255,1.9,1.9,0,0,0-.032.319c-.043.213-.086.5-.127.86a4.5,4.5,0,0,1-.127.733h-.637v-.319a.923.923,0,0,1-.829.383.688.688,0,0,1-.51-.191,1.032,1.032,0,0,1-.191-.637,1,1,0,0,1,.319-.829A1.71,1.71,0,0,1,24.178,24H24.5a.262.262,0,0,0,.064-.191c0-.169-.17-.255-.51-.255a3.58,3.58,0,0,0-.829.127,2.066,2.066,0,0,1,.127-.637,2.6,2.6,0,0,1,.892-.191q1.083,0,1.083.892Zm-.892.829h-.191c-.425,0-.637.15-.637.446,0,.213.085.319.255.319a.432.432,0,0,0,.383-.191A.779.779,0,0,0,24.432,24.572ZM27.3,22.915a1.7,1.7,0,0,0-.319.892c-.17-.042-.319.064-.446.319a12.844,12.844,0,0,0-.319,1.785h-.829l.064-.191q.252-1.393.383-2.8H26.6a1.434,1.434,0,0,1-.064.446.815.815,0,0,1,.383-.383.456.456,0,0,1,.382-.064Zm1.976-.7H30.1l-.637,3.7H28.7l.064-.255a.849.849,0,0,1-.7.319.747.747,0,0,1-.7-.319,1.52,1.52,0,0,1-.319-.892,1.961,1.961,0,0,1,.446-1.339,1,1,0,0,1,.892-.51,1.1,1.1,0,0,1,.765.383l.127-1.084Zm-.319,1.976c0-.383-.15-.574-.446-.574a.538.538,0,0,0-.446.319,1.348,1.348,0,0,0-.127.7q0,.574.383.574a.552.552,0,0,0,.446-.255,1.266,1.266,0,0,0,.191-.765Z" transform="translate(-5.12 -16.35)" fill="#1c355e"/>
</svg>
