<svg xmlns="http://www.w3.org/2000/svg" width="9.316" height="9.467" viewBox="0 0 9.316 9.467">
  <path id="Icon_awesome-power-off" data-name="Icon awesome-power-off" d="M7.55,1.016a4.658,4.658,0,1,1-5.413,0,.452.452,0,0,1,.657.145l.3.528a.451.451,0,0,1-.124.582,3.155,3.155,0,1,0,3.755,0A.448.448,0,0,1,6.6,1.69l.3-.528A.45.45,0,0,1,7.55,1.016ZM5.6,4.959V.451A.45.45,0,0,0,5.146,0h-.6a.45.45,0,0,0-.451.451V4.959a.45.45,0,0,0,.451.451h.6A.45.45,0,0,0,5.6,4.959Z" transform="translate(-0.188)" fill="#0071ce"/>
</svg>
