<svg id="ico_calculadora" data-name="ico calculadora" xmlns="http://www.w3.org/2000/svg" width="13.652" height="19" viewBox="0 0 13.652 19">
  <path id="Trazado_69415" data-name="Trazado 69415" d="M17.807,13.14a.621.621,0,1,1-.621-.621.621.621,0,0,1,.621.621" transform="translate(-6.637 -4.908)" fill="#fff"/>
  <path id="Trazado_69416" data-name="Trazado 69416" d="M5.664,13.145a.621.621,0,1,1-.621-.621.621.621,0,0,1,.621.621" transform="translate(-1.941 -4.909)" fill="#fff"/>
  <path id="Trazado_69417" data-name="Trazado 69417" d="M9.711,13.139a.621.621,0,1,1-.621-.621.621.621,0,0,1,.621.621" transform="translate(-3.506 -4.907)" fill="#fff"/>
  <path id="Trazado_69418" data-name="Trazado 69418" d="M13.759,13.139a.621.621,0,1,1-.621-.621.621.621,0,0,1,.621.621" transform="translate(-5.072 -4.907)" fill="#fff"/>
  <path id="Trazado_69419" data-name="Trazado 69419" d="M5.664,17.19a.621.621,0,1,1-.621-.621.621.621,0,0,1,.621.621" transform="translate(-1.941 -6.419)" fill="#fff"/>
  <path id="Trazado_69420" data-name="Trazado 69420" d="M9.711,17.183a.621.621,0,1,1-.621-.621.621.621,0,0,1,.621.621" transform="translate(-3.506 -6.417)" fill="#fff"/>
  <path id="Trazado_69421" data-name="Trazado 69421" d="M13.759,17.183a.621.621,0,1,1-.621-.621.621.621,0,0,1,.621.621" transform="translate(-5.072 -6.417)" fill="#fff"/>
  <path id="Trazado_69422" data-name="Trazado 69422" d="M5.664,21.238a.621.621,0,1,1-.621-.621.621.621,0,0,1,.621.621" transform="translate(-1.941 -7.93)" fill="#fff"/>
  <path id="Trazado_69423" data-name="Trazado 69423" d="M9.711,21.231a.621.621,0,1,1-.621-.621.621.621,0,0,1,.621.621" transform="translate(-3.506 -7.927)" fill="#fff"/>
  <path id="Trazado_69424" data-name="Trazado 69424" d="M13.759,21.231a.621.621,0,1,1-.621-.621.621.621,0,0,1,.621.621" transform="translate(-5.072 -7.927)" fill="#fff"/>
  <path id="Trazado_69425" data-name="Trazado 69425" d="M5.664,25.282a.621.621,0,1,1-.621-.621.621.621,0,0,1,.621.621" transform="translate(-1.941 -9.384)" fill="#fff"/>
  <path id="Trazado_69426" data-name="Trazado 69426" d="M9.711,25.276a.621.621,0,1,1-.621-.621.621.621,0,0,1,.621.621" transform="translate(-3.506 -9.382)" fill="#fff"/>
  <path id="Trazado_69427" data-name="Trazado 69427" d="M13.759,25.276a.621.621,0,1,1-.621-.621.621.621,0,0,1,.621.621" transform="translate(-5.072 -9.382)" fill="#fff"/>
  <path id="Trazado_69428" data-name="Trazado 69428" d="M17.807,17.184a.621.621,0,1,1-.621-.621.621.621,0,0,1,.621.621" transform="translate(-6.637 -6.417)" fill="#fff"/>
  <path id="Trazado_69429" data-name="Trazado 69429" d="M13.407,19.375H1a.627.627,0,0,1-.621-.633V1.008A.627.627,0,0,1,1,.375H13.407a.627.627,0,0,1,.621.633V18.742a.627.627,0,0,1-.621.633M1.616,18.108h11.17V1.642H1.616Z" transform="translate(-0.375 -0.375)" fill="#fff"/>
  <path id="Trazado_69431" data-name="Trazado 69431" d="M12.49,8.146H5.044a.62.62,0,0,1-.621-.621V5.044a.62.62,0,0,1,.621-.621H12.49a.621.621,0,0,1,.621.621V7.525a.621.621,0,0,1-.621.621M5.664,6.9h6.205V5.664H5.664Z" transform="translate(-1.941 -1.941)" fill="#0071ce"/>
  <path id="Trazado_69432" data-name="Trazado 69432" d="M17.187,24.336a.621.621,0,0,1-.621-.621V21.234a.621.621,0,0,1,1.241,0v2.482a.621.621,0,0,1-.621.621" transform="translate(-6.637 -7.819)" fill="#0071ce"/>
</svg>
