<svg xmlns="http://www.w3.org/2000/svg" width="24.264" height="24.264" viewBox="0 0 24.264 24.264">
  <g id="Ico_hogar" data-name="Ico hogar" transform="translate(0 0)">
    <path id="Trazado_69603" data-name="Trazado 69603" d="M31,33.387H26.143a.808.808,0,0,1-.809-.809V27.726a.809.809,0,0,1,.809-.809H31a.809.809,0,0,1,.809.809v4.853a.808.808,0,0,1-.809.809M26.952,31.77h3.235V28.534H26.952Z" transform="translate(-12.393 -13.168)" fill="#37bbd8"/>
    <path id="Trazado_69604" data-name="Trazado 69604" d="M23.455,6.47h-.178L21.812.612A.808.808,0,0,0,21.028,0H3.234A.808.808,0,0,0,2.45.613L.986,6.47H.809A.808.808,0,0,0,0,7.279V8.9a2.422,2.422,0,0,0,1.618,2.277V23.455a.808.808,0,0,0,.809.809H21.837a.808.808,0,0,0,.809-.809V11.174A2.422,2.422,0,0,0,24.264,8.9V7.279a.809.809,0,0,0-.809-.809M3.866,1.618H20.4L21.61,6.47H2.653Zm13.927,6.47h1.618V8.9a.809.809,0,0,1-1.618,0Zm-3.235,0h1.618V8.9a.809.809,0,0,1-1.618,0Zm-3.235,0h1.618V8.9a.809.809,0,0,1-1.618,0Zm-3.235,0H9.705V8.9a.809.809,0,0,1-1.618,0Zm-3.235,0H6.47V8.9a.809.809,0,0,1-1.618,0ZM2.426,9.705A.809.809,0,0,1,1.618,8.9V8.088H3.235V8.9a.809.809,0,0,1-.809.809m4.044,6.47H9.705v6.47H6.47Zm4.853,6.47V15.367a.809.809,0,0,0-.809-.809H5.661a.808.808,0,0,0-.809.809v7.279H3.235V11.174a2.426,2.426,0,0,0,.809-.482,2.389,2.389,0,0,0,3.235,0,2.389,2.389,0,0,0,3.235,0,2.39,2.39,0,0,0,3.235,0,2.389,2.389,0,0,0,3.235,0,2.39,2.39,0,0,0,3.235,0,2.419,2.419,0,0,0,.809.482V22.646ZM22.646,8.9a.809.809,0,0,1-1.618,0V8.088h1.618Z" transform="translate(0 0)" fill="#312e70"/>
    <rect id="Rectángulo_9015" data-name="Rectángulo 9015" width="6.538" height="1.021" transform="translate(3.928 7.031) rotate(-78.224)" fill="#312e70"/>
    <rect id="Rectángulo_9016" data-name="Rectángulo 9016" width="1.021" height="6.538" transform="translate(18.332 0.838) rotate(-11.766)" fill="#312e70"/>
    <rect id="Rectángulo_9017" data-name="Rectángulo 9017" width="6.469" height="1.021" transform="translate(6.589 7.061) rotate(-81.692)" fill="#312e70"/>
    <rect id="Rectángulo_9018" data-name="Rectángulo 9018" width="1.021" height="6.423" transform="translate(15.789 0.776) rotate(-4.763)" fill="#312e70"/>
    <rect id="Rectángulo_9019" data-name="Rectángulo 9019" width="6.402" height="1.022" transform="matrix(0.02, -1, 1, 0.02, 9.92, 7.124)" fill="#312e70"/>
    <rect id="Rectángulo_9020" data-name="Rectángulo 9020" width="6.402" height="1.022" transform="matrix(0.02, -1, 1, 0.02, 12.987, 7.124)" fill="#312e70"/>
  </g>
</svg>
