<svg xmlns="http://www.w3.org/2000/svg" width="100%" height="100%" viewBox="0 0 46.797 46.797">
  <g id="icono_cocina" data-name="icono cocina" transform="translate(0.375 0.375)">
    <path id="Trazado_541" data-name="Trazado 541" d="M44.737.375H2.06A1.686,1.686,0,0,0,.375,2.059V44.737A1.687,1.687,0,0,0,2.06,46.422H44.737a1.687,1.687,0,0,0,1.685-1.685V2.059A1.686,1.686,0,0,0,44.737.375M45.3,44.737a.563.563,0,0,1-.562.562H2.06a.564.564,0,0,1-.562-.562V2.059A.563.563,0,0,1,2.06,1.5H44.737a.562.562,0,0,1,.562.561Z" transform="translate(-0.375 -0.375)" fill="#005fc5"/>
    <path id="Trazado_542" data-name="Trazado 542" d="M44.737.375H2.06A1.686,1.686,0,0,0,.375,2.059V44.737A1.687,1.687,0,0,0,2.06,46.422H44.737a1.687,1.687,0,0,0,1.685-1.685V2.059A1.686,1.686,0,0,0,44.737.375ZM45.3,44.737a.563.563,0,0,1-.562.562H2.06a.564.564,0,0,1-.562-.562V2.059A.563.563,0,0,1,2.06,1.5H44.737a.562.562,0,0,1,.562.561Z" transform="translate(-0.375 -0.375)" fill="none" stroke="#005fc5" stroke-width="0.75"/>
    <path id="Trazado_543" data-name="Trazado 543" d="M41.368,4.867H21.181L19.85,3.239a1.683,1.683,0,0,0-2.5-.124L14.346,6.124a1.683,1.683,0,0,0,.125,2.5L16.1,9.95V41.368a.561.561,0,0,0,.561.561H41.368a.561.561,0,0,0,.561-.561V5.429a.561.561,0,0,0-.561-.562M15.181,7.75a.562.562,0,0,1-.041-.832l3.009-3.009a.562.562,0,0,1,.832.041L24.7,10.938a.561.561,0,0,1-.038.753L22.922,13.43a.561.561,0,0,1-.753.038ZM40.806,40.806H17.221V10.869l4.239,3.468a1.679,1.679,0,0,0,2.257-.113l1.738-1.739a1.678,1.678,0,0,0,.113-2.256L22.1,5.99H40.806Z" transform="translate(-0.375 -0.375)" fill="#005fc5"/>
    <path id="Trazado_544" data-name="Trazado 544" d="M41.368,4.867H21.181L19.85,3.239a1.683,1.683,0,0,0-2.5-.124L14.346,6.124a1.683,1.683,0,0,0,.125,2.5L16.1,9.95V41.368a.561.561,0,0,0,.561.561H41.368a.561.561,0,0,0,.561-.561V5.429A.561.561,0,0,0,41.368,4.867ZM15.181,7.75a.562.562,0,0,1-.041-.832l3.009-3.009a.562.562,0,0,1,.832.041L24.7,10.938a.561.561,0,0,1-.038.753L22.922,13.43a.561.561,0,0,1-.753.038ZM40.806,40.806H17.221V10.869l4.239,3.468a1.679,1.679,0,0,0,2.257-.113l1.738-1.739a1.678,1.678,0,0,0,.113-2.256L22.1,5.99H40.806Z" transform="translate(-0.375 -0.375)" fill="none" stroke="#005fc5" stroke-width="0.75"/>
    <path id="Trazado_545" data-name="Trazado 545" d="M29.014,23.96a3.931,3.931,0,1,0-3.931-3.931,3.936,3.936,0,0,0,3.931,3.931m0-6.739a2.807,2.807,0,1,1-2.808,2.808,2.81,2.81,0,0,1,2.808-2.808" transform="translate(-0.375 -0.375)" fill="#005fc5"/>
    <path id="Trazado_546" data-name="Trazado 546" d="M29.014,23.96a3.931,3.931,0,1,0-3.931-3.931A3.936,3.936,0,0,0,29.014,23.96Zm0-6.739a2.807,2.807,0,1,1-2.808,2.808A2.81,2.81,0,0,1,29.014,17.221Z" transform="translate(-0.375 -0.375)" fill="none" stroke="#005fc5" stroke-width="0.75"/>
    <path id="Trazado_547" data-name="Trazado 547" d="M29.014,21.714a1.685,1.685,0,1,0-1.685-1.684,1.686,1.686,0,0,0,1.685,1.684m0-2.246a.561.561,0,1,1-.562.562.563.563,0,0,1,.562-.562" transform="translate(-0.375 -0.375)" fill="#005fc5"/>
    <path id="Trazado_548" data-name="Trazado 548" d="M29.014,21.714a1.685,1.685,0,1,0-1.685-1.684A1.686,1.686,0,0,0,29.014,21.714Zm0-2.246a.561.561,0,1,1-.562.562A.563.563,0,0,1,29.014,19.468Z" transform="translate(-0.375 -0.375)" fill="none" stroke="#005fc5" stroke-width="0.75"/>
    <path id="Trazado_549" data-name="Trazado 549" d="M14.414,36.314H3.183a.562.562,0,0,0,0,1.123H14.414a.562.562,0,1,0,0-1.123" transform="translate(-0.375 -0.375)" fill="#005fc5"/>
    <path id="Trazado_550" data-name="Trazado 550" d="M14.414,36.314H3.183a.562.562,0,0,0,0,1.123H14.414a.562.562,0,1,0,0-1.123Z" transform="translate(-0.375 -0.375)" fill="none" stroke="#005fc5" stroke-width="0.75"/>
    <path id="Trazado_551" data-name="Trazado 551" d="M14.414,40.806H3.183a.562.562,0,0,0,0,1.123H14.414a.562.562,0,1,0,0-1.123" transform="translate(-0.375 -0.375)" fill="#005fc5"/>
    <path id="Trazado_552" data-name="Trazado 552" d="M14.414,40.806H3.183a.562.562,0,0,0,0,1.123H14.414a.562.562,0,1,0,0-1.123Z" transform="translate(-0.375 -0.375)" fill="none" stroke="#005fc5" stroke-width="0.75"/>
    <path id="Trazado_553" data-name="Trazado 553" d="M14.414,31.822H3.183a.561.561,0,0,0,0,1.123H14.414a.561.561,0,1,0,0-1.123" transform="translate(-0.375 -0.375)" fill="#005fc5"/>
    <path id="Trazado_554" data-name="Trazado 554" d="M14.414,31.822H3.183a.561.561,0,0,0,0,1.123H14.414a.561.561,0,1,0,0-1.123Z" transform="translate(-0.375 -0.375)" fill="none" stroke="#005fc5" stroke-width="0.75"/>
    <path id="Trazado_555" data-name="Trazado 555" d="M14.414,27.329H3.183a.561.561,0,0,0,0,1.123H14.414a.561.561,0,1,0,0-1.123" transform="translate(-0.375 -0.375)" fill="#005fc5"/>
    <path id="Trazado_556" data-name="Trazado 556" d="M14.414,27.329H3.183a.561.561,0,0,0,0,1.123H14.414a.561.561,0,1,0,0-1.123Z" transform="translate(-0.375 -0.375)" fill="none" stroke="#005fc5" stroke-width="0.75"/>
    <path id="Trazado_557" data-name="Trazado 557" d="M14.414,22.837H3.183a.561.561,0,0,0,0,1.123H14.414a.561.561,0,1,0,0-1.123" transform="translate(-0.375 -0.375)" fill="#005fc5"/>
    <path id="Trazado_558" data-name="Trazado 558" d="M14.414,22.837H3.183a.561.561,0,0,0,0,1.123H14.414a.561.561,0,1,0,0-1.123Z" transform="translate(-0.375 -0.375)" fill="none" stroke="#005fc5" stroke-width="0.75"/>
    <path id="Trazado_559" data-name="Trazado 559" d="M14.414,18.345H3.183a.562.562,0,0,0,0,1.123H14.414a.562.562,0,1,0,0-1.123" transform="translate(-0.375 -0.375)" fill="#005fc5"/>
    <path id="Trazado_560" data-name="Trazado 560" d="M14.414,18.345H3.183a.562.562,0,0,0,0,1.123H14.414a.562.562,0,1,0,0-1.123Z" transform="translate(-0.375 -0.375)" fill="none" stroke="#005fc5" stroke-width="0.75"/>
    <path id="Trazado_561" data-name="Trazado 561" d="M14.414,13.852H3.183a.562.562,0,0,0,0,1.123H14.414a.562.562,0,1,0,0-1.123" transform="translate(-0.375 -0.375)" fill="#005fc5"/>
    <path id="Trazado_562" data-name="Trazado 562" d="M14.414,13.852H3.183a.562.562,0,0,0,0,1.123H14.414a.562.562,0,1,0,0-1.123Z" transform="translate(-0.375 -0.375)" fill="none" stroke="#005fc5" stroke-width="0.75"/>
    <path id="Trazado_563" data-name="Trazado 563" d="M3.183,10.483H13.4a.562.562,0,0,0,0-1.123H3.183a.562.562,0,1,0,0,1.123" transform="translate(-0.375 -0.375)" fill="#005fc5"/>
    <path id="Trazado_564" data-name="Trazado 564" d="M3.183,10.483H13.4a.562.562,0,0,0,0-1.123H3.183a.562.562,0,1,0,0,1.123Z" transform="translate(-0.375 -0.375)" fill="none" stroke="#005fc5" stroke-width="0.75"/>
    <path id="Trazado_565" data-name="Trazado 565" d="M3.183,5.991h9.568a.562.562,0,1,0,0-1.123H3.183a.562.562,0,1,0,0,1.123" transform="translate(-0.375 -0.375)" fill="#005fc5"/>
    <path id="Trazado_566" data-name="Trazado 566" d="M3.183,5.991h9.568a.562.562,0,1,0,0-1.123H3.183a.562.562,0,1,0,0,1.123Z" transform="translate(-0.375 -0.375)" fill="none" stroke="#005fc5" stroke-width="0.75"/>
  </g>
</svg>
