<svg xmlns="http://www.w3.org/2000/svg" xmlns:xlink="http://www.w3.org/1999/xlink" width="159.848" height="44" viewBox="0 0 159.848 44">
  <defs>
    <clipPath id="clip-path">
      <rect id="Rect치ngulo_2573" data-name="Rect치ngulo 2573" width="112.547" height="31.934" fill="none"/>
    </clipPath>
  </defs>
  <g id="Logo_-_cabecera" data-name="Logo - cabecera" transform="translate(0 -0.182)">
    <g id="Isotipo">
      <path id="Trazado_333" data-name="Trazado 333" d="M164.912,183.684l8-11,8-11h-5l-11,11Z" transform="translate(-141.912 -139.502)" fill="#999"/>
      <path id="Trazado_334" data-name="Trazado 334" d="M180.912,161.394l-8,11-8,11,21-22Z" transform="translate(-141.912 -139.213)" fill="#002891"/>
      <path id="Trazado_335" data-name="Trazado 335" d="M177.463,22.182l-9-11-8-11v10l12,12" transform="translate(-138.463 0)" fill="#002891"/>
      <path id="Trazado_336" data-name="Trazado 336" d="M177.463,22.182h5l-22-22,8,11Z" transform="translate(-138.463 0)" fill="gray"/>
      <path id="Trazado_337" data-name="Trazado 337" d="M42.577,162.687l17,22m-12-22h-5l17,22v-11l-12-11" transform="translate(-36.577 -140.505)" fill="#002891"/>
      <path id="Trazado_338" data-name="Trazado 338" d="M47.578,22.23l11-12V.23l-16,22Z" transform="translate(-36.578 -0.049)" fill="#999"/>
      <path id="Trazado_339" data-name="Trazado 339" d="M22,.182h0l-22,22H6Z" fill="#002891"/>
      <path id="Trazado_340" data-name="Trazado 340" d="M0,163.017l23,22-17-22Z" transform="translate(0 -140.836)" fill="#999"/>
    </g>
    <g id="Fuente" transform="translate(47.301 11.459)">
      <g id="Grupo_537" data-name="Grupo 537" clip-path="url(#clip-path)">
        <path id="Trazado_369" data-name="Trazado 369" d="M5.509,147.455h1a5.771,5.771,0,0,1,1.163.076,1.293,1.293,0,0,1,.706.436,1.409,1.409,0,0,1,.006,1.66,1.313,1.313,0,0,1-.735.44,6.509,6.509,0,0,1-1.28.082h-.36v2.341h-.5Zm.5.493v1.708l.853.01a2.24,2.24,0,0,0,.756-.094.777.777,0,0,0,.377-.3.845.845,0,0,0,.137-.47A.832.832,0,0,0,8,148.336a.757.757,0,0,0-.361-.3,2.184,2.184,0,0,0-.734-.089Z" transform="translate(-4.558 -122.013)" fill="#002891"/>
        <path id="Trazado_370" data-name="Trazado 370" d="M28.2,146.165a.4.4,0,0,1,.4.4.393.393,0,0,1-.787,0,.4.4,0,0,1,.391-.4m-.237,1.533h.479v3.724h-.479Z" transform="translate(-23.007 -120.946)" fill="#002891"/>
        <path id="Trazado_371" data-name="Trazado 371" d="M37.424,155l-.308.319a1.107,1.107,0,0,0-.751-.374.565.565,0,0,0-.4.154.474.474,0,0,0-.167.36.53.53,0,0,0,.137.345,1.928,1.928,0,0,0,.576.393,2.149,2.149,0,0,1,.728.535.97.97,0,0,1,.189.585,1.051,1.051,0,0,1-.322.777,1.1,1.1,0,0,1-.805.318,1.4,1.4,0,0,1-.615-.14,1.337,1.337,0,0,1-.485-.387l.3-.342a1.046,1.046,0,0,0,.778.414.7.7,0,0,0,.491-.185.571.571,0,0,0,.2-.435.554.554,0,0,0-.134-.366,2.143,2.143,0,0,0-.6-.4,1.942,1.942,0,0,1-.685-.514.963.963,0,0,1-.182-.579.938.938,0,0,1,.29-.7,1.009,1.009,0,0,1,.732-.281,1.517,1.517,0,0,1,1.035.5" transform="translate(-29.126 -127.837)" fill="#002891"/>
        <path id="Trazado_372" data-name="Trazado 372" d="M53.9,154.495a1.845,1.845,0,0,1,1.427.623,2,2,0,0,1-.03,2.708,1.968,1.968,0,0,1-2.8,0,2,2,0,0,1-.029-2.705,1.845,1.845,0,0,1,1.429-.626m0,.469a1.383,1.383,0,0,0-1.027.441,1.475,1.475,0,0,0-.429,1.068,1.514,1.514,0,0,0,.195.752,1.389,1.389,0,0,0,.529.54,1.5,1.5,0,0,0,1.463,0,1.385,1.385,0,0,0,.529-.54,1.51,1.51,0,0,0,.2-.752,1.472,1.472,0,0,0-.431-1.068,1.383,1.383,0,0,0-1.025-.441" transform="translate(-42.994 -127.839)" fill="#002891"/>
        <path id="Trazado_373" data-name="Trazado 373" d="M79.79,155l-.308.319a1.108,1.108,0,0,0-.751-.374.568.568,0,0,0-.4.154.475.475,0,0,0-.167.36.532.532,0,0,0,.138.345,1.921,1.921,0,0,0,.576.393,2.145,2.145,0,0,1,.727.535.968.968,0,0,1,.189.585,1.051,1.051,0,0,1-.323.777,1.1,1.1,0,0,1-.8.318,1.4,1.4,0,0,1-.616-.14,1.345,1.345,0,0,1-.485-.387l.3-.342a1.048,1.048,0,0,0,.779.414.7.7,0,0,0,.491-.185.572.572,0,0,0,.2-.435.554.554,0,0,0-.134-.366,2.126,2.126,0,0,0-.6-.4,1.941,1.941,0,0,1-.685-.514.967.967,0,0,1-.182-.579.94.94,0,0,1,.29-.7,1.012,1.012,0,0,1,.732-.281,1.517,1.517,0,0,1,1.035.5" transform="translate(-64.182 -127.837)" fill="#002891"/>
        <path id="Trazado_374" data-name="Trazado 374" d="M118.253,147.452l2.348,5.034h-.544l-.792-1.657H117.1l-.784,1.657h-.561l2.378-5.034Zm-.063,1.07-.863,1.823h1.721Z" transform="translate(-95.78 -122.011)" fill="#002891"/>
        <path id="Trazado_375" data-name="Trazado 375" d="M145.2,155.052h2.734l-2.108,3.3h2.04v.425H145l2.106-3.3H145.2Z" transform="translate(-119.985 -128.3)" fill="#002891"/>
        <path id="Trazado_376" data-name="Trazado 376" d="M164.816,155.052h.479v1.739a3.682,3.682,0,0,0,.069.876.981.981,0,0,0,.392.541,1.2,1.2,0,0,0,.691.2,1.171,1.171,0,0,0,.68-.193.993.993,0,0,0,.386-.509,3.579,3.579,0,0,0,.072-.913v-1.739h.489v1.828a2.892,2.892,0,0,1-.179,1.16,1.375,1.375,0,0,1-.541.611,1.712,1.712,0,0,1-.905.22,1.731,1.731,0,0,1-.909-.22,1.361,1.361,0,0,1-.544-.616,3,3,0,0,1-.18-1.189Z" transform="translate(-136.379 -128.3)" fill="#002891"/>
        <rect id="Rect치ngulo_2572" data-name="Rect치ngulo 2572" width="0.479" height="5.161" transform="translate(32.688 25.315)" fill="#002891"/>
        <path id="Trazado_377" data-name="Trazado 377" d="M200.268,157.078l.4.212a2.169,2.169,0,0,1-.459.629,1.806,1.806,0,0,1-.585.365,2.034,2.034,0,0,1-.737.125,1.78,1.78,0,0,1-1.425-.6,2.016,2.016,0,0,1-.513-1.35,1.993,1.993,0,0,1,.435-1.263,1.779,1.779,0,0,1,1.477-.705,1.838,1.838,0,0,1,1.52.722,2.018,2.018,0,0,1,.411,1.273h-3.35a1.512,1.512,0,0,0,.414,1.064,1.32,1.32,0,0,0,.99.415,1.605,1.605,0,0,0,.554-.1,1.468,1.468,0,0,0,.457-.262,2.234,2.234,0,0,0,.408-.529m0-1a1.6,1.6,0,0,0-.279-.613,1.323,1.323,0,0,0-.486-.369,1.484,1.484,0,0,0-.634-.141,1.362,1.362,0,0,0-.942.353,1.587,1.587,0,0,0-.435.77Z" transform="translate(-162.97 -127.838)" fill="#002891"/>
        <path id="Trazado_378" data-name="Trazado 378" d="M220.736,147.7h.486v4.285a1.105,1.105,0,0,1-.169.683.559.559,0,0,1-.464.214,1.546,1.546,0,0,1-.548-.117v-.431a.76.76,0,0,0,.345.1.317.317,0,0,0,.291-.16,1.012,1.012,0,0,0,.058-.428Zm.236-1.533a.38.38,0,0,1,.279.116.385.385,0,0,1,.115.281.394.394,0,0,1-.787,0,.385.385,0,0,1,.115-.281.381.381,0,0,1,.279-.116" transform="translate(-182.076 -120.946)" fill="#002891"/>
        <path id="Trazado_379" data-name="Trazado 379" d="M233.546,154.495a1.844,1.844,0,0,1,1.426.623,2,2,0,0,1-.029,2.708,1.968,1.968,0,0,1-2.8,0,2,2,0,0,1-.03-2.705,1.846,1.846,0,0,1,1.43-.626m0,.469a1.383,1.383,0,0,0-1.027.441,1.476,1.476,0,0,0-.429,1.068,1.515,1.515,0,0,0,.2.752,1.389,1.389,0,0,0,.529.54,1.5,1.5,0,0,0,1.463,0,1.387,1.387,0,0,0,.529-.54,1.51,1.51,0,0,0,.2-.752,1.472,1.472,0,0,0-.431-1.068,1.383,1.383,0,0,0-1.025-.441" transform="translate(-191.643 -127.839)" fill="#002891"/>
        <path id="Trazado_380" data-name="Trazado 380" d="M259.434,155l-.309.319a1.105,1.105,0,0,0-.751-.374.567.567,0,0,0-.4.154.474.474,0,0,0-.167.36.532.532,0,0,0,.138.345,1.921,1.921,0,0,0,.576.393,2.152,2.152,0,0,1,.727.535.968.968,0,0,1,.189.585,1.05,1.05,0,0,1-.322.777,1.1,1.1,0,0,1-.8.318,1.4,1.4,0,0,1-.616-.14,1.336,1.336,0,0,1-.485-.387l.3-.342a1.048,1.048,0,0,0,.779.414.7.7,0,0,0,.491-.185.572.572,0,0,0,.2-.435.553.553,0,0,0-.134-.366,2.126,2.126,0,0,0-.6-.4,1.94,1.94,0,0,1-.685-.514.963.963,0,0,1-.182-.579.94.94,0,0,1,.29-.7,1.012,1.012,0,0,1,.732-.281,1.519,1.519,0,0,1,1.035.5" transform="translate(-212.831 -127.837)" fill="#002891"/>
        <path id="Trazado_381" data-name="Trazado 381" d="M298.051,147.454h.992a2.362,2.362,0,0,1,.92.142,1.129,1.129,0,0,1,.508.436,1.2,1.2,0,0,1,.187.654,1.175,1.175,0,0,1-.164.611,1.209,1.209,0,0,1-.481.447,1.835,1.835,0,0,1,.6.314,1.245,1.245,0,0,1,.329.434,1.3,1.3,0,0,1,.118.553,1.358,1.358,0,0,1-.443,1.025,1.661,1.661,0,0,1-1.19.419h-1.382Zm.492.493v1.612h.288a2.251,2.251,0,0,0,.771-.1.837.837,0,0,0,.391-.309.809.809,0,0,0,.144-.467.663.663,0,0,0-.241-.543,1.219,1.219,0,0,0-.77-.2Zm0,2.118V152h.624a2.231,2.231,0,0,0,.809-.108.923.923,0,0,0,.413-.337.873.873,0,0,0,.156-.5.86.86,0,0,0-.22-.586,1.135,1.135,0,0,0-.6-.342,4.436,4.436,0,0,0-.9-.061Z" transform="translate(-246.626 -122.013)" fill="#002891"/>
        <path id="Trazado_382" data-name="Trazado 382" d="M323.742,154.591v3.723h-.472v-.64a2.051,2.051,0,0,1-.677.551,1.889,1.889,0,0,1-2.169-.388,1.924,1.924,0,0,1-.56-1.4,1.888,1.888,0,0,1,.565-1.375,1.843,1.843,0,0,1,1.359-.572,1.762,1.762,0,0,1,.83.195,1.9,1.9,0,0,1,.652.586v-.684Zm-1.915.367a1.443,1.443,0,0,0-1.277.748,1.51,1.51,0,0,0,0,1.5,1.473,1.473,0,0,0,.542.559,1.413,1.413,0,0,0,.73.2,1.493,1.493,0,0,0,.745-.2,1.386,1.386,0,0,0,.542-.536,1.539,1.539,0,0,0,.19-.762,1.482,1.482,0,0,0-.426-1.08,1.409,1.409,0,0,0-1.048-.434" transform="translate(-264.675 -127.839)" fill="#002891"/>
        <path id="Trazado_383" data-name="Trazado 383" d="M348.586,147.981h.479v.668a2.006,2.006,0,0,1,.636-.574,1.562,1.562,0,0,1,.76-.19,1.319,1.319,0,0,1,.74.212,1.264,1.264,0,0,1,.478.571,3.044,3.044,0,0,1,.153,1.12v1.916h-.479v-1.776a4.45,4.45,0,0,0-.053-.859.948.948,0,0,0-.32-.555.962.962,0,0,0-.617-.187,1.181,1.181,0,0,0-.779.288,1.343,1.343,0,0,0-.453.712,4.933,4.933,0,0,0-.069,1.012v1.366h-.479Zm2.622-1.385.239.332a1.8,1.8,0,0,1-.415.242,1.023,1.023,0,0,1-.357.063,1.154,1.154,0,0,1-.506-.127,2.3,2.3,0,0,0-.284-.126.636.636,0,0,0-.405.019,1.606,1.606,0,0,0-.313.193l-.226-.349a1.009,1.009,0,0,1,.771-.335,1.286,1.286,0,0,1,.523.14,1.182,1.182,0,0,0,.459.137,1.157,1.157,0,0,0,.517-.188" transform="translate(-288.442 -121.229)" fill="#002891"/>
        <path id="Trazado_384" data-name="Trazado 384" d="M374.25,154.495a1.846,1.846,0,0,1,1.427.623,2,2,0,0,1-.03,2.708,1.968,1.968,0,0,1-2.8,0,1.994,1.994,0,0,1-.029-2.705,1.844,1.844,0,0,1,1.429-.626m0,.469a1.383,1.383,0,0,0-1.027.441,1.475,1.475,0,0,0-.429,1.068,1.511,1.511,0,0,0,.2.752,1.386,1.386,0,0,0,.529.54,1.5,1.5,0,0,0,1.463,0,1.382,1.382,0,0,0,.529-.54,1.508,1.508,0,0,0,.2-.752,1.475,1.475,0,0,0-.431-1.068,1.385,1.385,0,0,0-1.025-.441" transform="translate(-308.07 -127.839)" fill="#002891"/>
        <path id="Trazado_385" data-name="Trazado 385" d="M400.14,155l-.308.319a1.107,1.107,0,0,0-.751-.374.565.565,0,0,0-.4.154.474.474,0,0,0-.167.36.53.53,0,0,0,.138.345,1.912,1.912,0,0,0,.576.393,2.139,2.139,0,0,1,.727.535.968.968,0,0,1,.189.585,1.053,1.053,0,0,1-.322.777,1.1,1.1,0,0,1-.805.318,1.406,1.406,0,0,1-.616-.14,1.344,1.344,0,0,1-.484-.387l.3-.342a1.046,1.046,0,0,0,.778.414.7.7,0,0,0,.491-.185.57.57,0,0,0,.2-.435.555.555,0,0,0-.134-.366,2.128,2.128,0,0,0-.6-.4,1.943,1.943,0,0,1-.686-.514.965.965,0,0,1-.182-.579.94.94,0,0,1,.29-.7,1.012,1.012,0,0,1,.732-.281,1.517,1.517,0,0,1,1.035.5" transform="translate(-329.26 -127.837)" fill="#002891"/>
        <path id="Trazado_386" data-name="Trazado 386" d="M438.6,147.452l2.348,5.034h-.543l-.793-1.657h-2.168l-.784,1.657H436.1l2.378-5.034Zm-.063,1.07-.863,1.823H439.4Z" transform="translate(-360.856 -122.011)" fill="#002891"/>
        <path id="Trazado_387" data-name="Trazado 387" d="M471.045,155.363l-.38.236a1.592,1.592,0,0,0-1.343-.654,1.552,1.552,0,0,0-1.13.438,1.427,1.427,0,0,0-.449,1.063,1.5,1.5,0,0,0,.207.766,1.441,1.441,0,0,0,.567.557,1.717,1.717,0,0,0,2.148-.454l.38.249a1.788,1.788,0,0,1-.717.623,2.286,2.286,0,0,1-1.025.222,2.02,2.02,0,0,1-1.464-.561,1.824,1.824,0,0,1-.582-1.365,1.958,1.958,0,0,1,.272-1.005,1.922,1.922,0,0,1,.748-.723,2.179,2.179,0,0,1,1.064-.261,2.284,2.284,0,0,1,.714.114,1.99,1.99,0,0,1,.583.294,1.588,1.588,0,0,1,.407.462" transform="translate(-386.637 -127.837)" fill="#002891"/>
        <path id="Trazado_388" data-name="Trazado 388" d="M497.326,155.363l-.38.236a1.591,1.591,0,0,0-1.343-.654,1.552,1.552,0,0,0-1.13.438,1.428,1.428,0,0,0-.449,1.063,1.512,1.512,0,0,0,.207.766,1.449,1.449,0,0,0,.568.557,1.717,1.717,0,0,0,2.148-.454l.38.249a1.788,1.788,0,0,1-.717.623,2.286,2.286,0,0,1-1.025.222,2.022,2.022,0,0,1-1.464-.561,1.822,1.822,0,0,1-.582-1.365,1.961,1.961,0,0,1,.272-1.005,1.92,1.92,0,0,1,.748-.723,2.178,2.178,0,0,1,1.064-.261,2.279,2.279,0,0,1,.713.114,1.973,1.973,0,0,1,.583.294,1.6,1.6,0,0,1,.408.462" transform="translate(-408.384 -127.837)" fill="#002891"/>
        <path id="Trazado_389" data-name="Trazado 389" d="M523.1,157.078l.4.212a2.191,2.191,0,0,1-.458.629,1.821,1.821,0,0,1-.586.365,2.033,2.033,0,0,1-.737.125,1.779,1.779,0,0,1-1.425-.6,2.016,2.016,0,0,1-.514-1.35,1.989,1.989,0,0,1,.435-1.263,1.779,1.779,0,0,1,1.476-.705,1.837,1.837,0,0,1,1.52.722,2.019,2.019,0,0,1,.411,1.273h-3.35a1.515,1.515,0,0,0,.414,1.064,1.321,1.321,0,0,0,.99.415,1.6,1.6,0,0,0,.553-.1,1.462,1.462,0,0,0,.457-.262,2.252,2.252,0,0,0,.408-.529m0-1a1.59,1.59,0,0,0-.28-.613,1.321,1.321,0,0,0-.485-.369,1.485,1.485,0,0,0-.634-.141,1.363,1.363,0,0,0-.942.353,1.588,1.588,0,0,0-.435.77Z" transform="translate(-430.097 -127.838)" fill="#002891"/>
        <path id="Trazado_390" data-name="Trazado 390" d="M547.413,155l-.308.319a1.107,1.107,0,0,0-.751-.374.568.568,0,0,0-.4.154.476.476,0,0,0-.167.36.531.531,0,0,0,.138.345,1.914,1.914,0,0,0,.576.393,2.137,2.137,0,0,1,.727.535.968.968,0,0,1,.189.585,1.051,1.051,0,0,1-.323.777,1.1,1.1,0,0,1-.8.318,1.4,1.4,0,0,1-.616-.14,1.341,1.341,0,0,1-.484-.387l.3-.342a1.045,1.045,0,0,0,.778.414.7.7,0,0,0,.49-.185.572.572,0,0,0,.2-.435.555.555,0,0,0-.133-.366,2.125,2.125,0,0,0-.6-.4,1.954,1.954,0,0,1-.686-.514.968.968,0,0,1-.182-.579.941.941,0,0,1,.289-.7,1.012,1.012,0,0,1,.732-.281,1.517,1.517,0,0,1,1.035.5" transform="translate(-451.122 -127.837)" fill="#002891"/>
        <path id="Trazado_391" data-name="Trazado 391" d="M563.892,154.495a1.843,1.843,0,0,1,1.426.623,2,2,0,0,1-.029,2.708,1.968,1.968,0,0,1-2.8,0,2,2,0,0,1-.03-2.705,1.845,1.845,0,0,1,1.43-.626m0,.469a1.384,1.384,0,0,0-1.027.441,1.476,1.476,0,0,0-.429,1.068,1.515,1.515,0,0,0,.2.752,1.384,1.384,0,0,0,.529.54,1.5,1.5,0,0,0,1.463,0,1.381,1.381,0,0,0,.528-.54,1.507,1.507,0,0,0,.2-.752,1.472,1.472,0,0,0-.431-1.068,1.384,1.384,0,0,0-1.025-.441" transform="translate(-464.991 -127.839)" fill="#002891"/>
        <path id="Trazado_392" data-name="Trazado 392" d="M588.548,154.591h.49v.545a1.716,1.716,0,0,1,.462-.481.913.913,0,0,1,.507-.159.878.878,0,0,1,.424.127l-.25.4a.664.664,0,0,0-.253-.065.69.69,0,0,0-.462.2,1.24,1.24,0,0,0-.339.61,5.823,5.823,0,0,0-.089,1.287v1.26h-.49Z" transform="translate(-487.001 -127.839)" fill="#002891"/>
        <path id="Trazado_393" data-name="Trazado 393" d="M600.9,146.165a.4.4,0,0,1,.4.4.393.393,0,0,1-.787,0,.385.385,0,0,1,.115-.281.381.381,0,0,1,.276-.116m-.238,1.533h.479v3.724h-.479Z" transform="translate(-496.899 -120.946)" fill="#002891"/>
        <path id="Trazado_394" data-name="Trazado 394" d="M610.841,154.495a1.843,1.843,0,0,1,1.426.623,2,2,0,0,1-.029,2.708,1.969,1.969,0,0,1-2.8,0,2,2,0,0,1-.03-2.705,1.846,1.846,0,0,1,1.43-.626m0,.469a1.384,1.384,0,0,0-1.027.441,1.475,1.475,0,0,0-.429,1.068,1.511,1.511,0,0,0,.2.752,1.386,1.386,0,0,0,.529.54,1.5,1.5,0,0,0,1.463,0,1.385,1.385,0,0,0,.529-.54,1.507,1.507,0,0,0,.2-.752,1.472,1.472,0,0,0-.431-1.068,1.383,1.383,0,0,0-1.025-.441" transform="translate(-503.839 -127.839)" fill="#002891"/>
        <path id="Trazado_395" data-name="Trazado 395" d="M636.728,155l-.309.319a1.107,1.107,0,0,0-.751-.374.568.568,0,0,0-.4.154.475.475,0,0,0-.167.36.531.531,0,0,0,.138.345,1.918,1.918,0,0,0,.576.393,2.145,2.145,0,0,1,.727.535.967.967,0,0,1,.189.585,1.05,1.05,0,0,1-.323.777,1.1,1.1,0,0,1-.8.318,1.4,1.4,0,0,1-.615-.14,1.332,1.332,0,0,1-.485-.387l.3-.342a1.048,1.048,0,0,0,.779.414.7.7,0,0,0,.491-.185.571.571,0,0,0,.2-.435.555.555,0,0,0-.134-.366,2.135,2.135,0,0,0-.6-.4,1.95,1.95,0,0,1-.686-.514.966.966,0,0,1-.182-.579.94.94,0,0,1,.29-.7,1.01,1.01,0,0,1,.732-.281,1.519,1.519,0,0,1,1.036.5" transform="translate(-525.027 -127.837)" fill="#002891"/>
        <path id="Trazado_396" data-name="Trazado 396" d="M6.784,0H17.47V3.472H7.429Q4.253,3.472,4.253,6a1.962,1.962,0,0,0,.538,1.453A2.8,2.8,0,0,0,6.837,8.1h5.357q3.472,0,4.9,1.373a5.47,5.47,0,0,1,1.319,4.092,5.6,5.6,0,0,1-1.454,4.253q-1.615,1.534-5.33,1.534H.807V15.882H10.983a3.7,3.7,0,0,0,2.557-.673,2.5,2.5,0,0,0,.566-1.857,1.661,1.661,0,0,0-.431-1.265,3.545,3.545,0,0,0-2.422-.619H6.46a7.251,7.251,0,0,1-4.886-1.386A5.356,5.356,0,0,1,0,5.841a5.63,5.63,0,0,1,1.48-4.28Q3.122,0,6.784,0" transform="translate(0 0)" fill="#002891"/>
        <path id="Trazado_397" data-name="Trazado 397" d="M125.475,32.89H119.2V29.956h7.672q5.841,0,5.841,5.3v8.883H122.676a4.484,4.484,0,0,1-3.23-1.13,4.042,4.042,0,0,1-1.184-3.069,3.883,3.883,0,0,1,1.669-3.607,7.844,7.844,0,0,1,4.011-.807h4.953a2.5,2.5,0,0,0-.727-2.073,4.609,4.609,0,0,0-2.692-.565m-1.265,8.425h4.684V38.354h-4.415a3.935,3.935,0,0,0-1.507.216,1.242,1.242,0,0,0-.754,1.265,1.3,1.3,0,0,0,.471,1.185,2.96,2.96,0,0,0,1.521.3" transform="translate(-97.856 -24.787)" fill="#002891"/>
        <path id="Trazado_398" data-name="Trazado 398" d="M225.1,44.14h-3.715V29.954h7.026a7.019,7.019,0,0,1,4.549,1.184q1.4,1.185,1.4,4.011V44.14h-3.8V35.634a3.455,3.455,0,0,0-.377-2.019,2.891,2.891,0,0,0-2.073-.512H225.1Z" transform="translate(-183.189 -24.786)" fill="#002891"/>
        <path id="Trazado_399" data-name="Trazado 399" d="M314.995,0h3.876V3.526h-3.876Zm0,5.168h3.876V19.354h-3.876Z" transform="translate(-260.646)" fill="#002891"/>
        <path id="Trazado_400" data-name="Trazado 400" d="M360.209,44.14h-3.715V29.954h14.348a6.949,6.949,0,0,1,4.361,1.1,4.963,4.963,0,0,1,1.534,4.092V44.14H373V35.634a3.382,3.382,0,0,0-.4-1.938,2.431,2.431,0,0,0-2.019-.673,3.034,3.034,0,0,0-.471.04,2.776,2.776,0,0,1-.417.041h-1.211V44.14h-3.849V33.1h-4.414Z" transform="translate(-294.985 -24.786)" fill="#002891"/>
        <path id="Trazado_401" data-name="Trazado 401" d="M500.953,41.206V44.14h-5.464q-4.038,0-5.815-2.342a7.7,7.7,0,0,1-1.346-4.765,7.4,7.4,0,0,1,1.508-4.9q1.83-2.18,5.653-2.181h5.464v2.934H496a5.2,5.2,0,0,0-2.584.458,2.422,2.422,0,0,0-.915,2.234h8.452v2.988H492.5a2.566,2.566,0,0,0,.686,2.113,5.014,5.014,0,0,0,2.786.525Z" transform="translate(-404.073 -24.786)" fill="#002891"/>
        <path id="Trazado_402" data-name="Trazado 402" d="M570.7,44.14h-4.307l5.2-7.107-5.249-7.08h4.307l3.042,4.307,3.177-4.307h4.307l-5.276,7.187,5.168,7H576.7l-3.015-4.092Z" transform="translate(-468.621 -24.785)" fill="#002891"/>
        <path id="Trazado_403" data-name="Trazado 403" d="M213.92,94.715a1.716,1.716,0,0,0-.148-.167.331.331,0,0,0,.148.167" transform="translate(-176.888 -78.235)" fill="#002891"/>
        <path id="Trazado_404" data-name="Trazado 404" d="M220.5,72.45l.451.328.128-.412c-.168.119-1-.091-.579.084" transform="translate(-182.356 -59.88)" fill="#002891"/>
        <path id="Trazado_405" data-name="Trazado 405" d="M224.442,71.9l-.023.08a.058.058,0,0,0,.023-.08" transform="translate(-185.698 -59.496)" fill="#002891"/>
      </g>
    </g>
  </g>
</svg>
