<?xml version="1.0" encoding="UTF-8"?>
<svg xmlns="http://www.w3.org/2000/svg" width="100%" height="100%" xmlns:xlink="http://www.w3.org/1999/xlink" viewBox="0 0 651 651">
  <defs>
    <style>
      .cls-1 {
        filter: url(#drop-shadow-2);
        stroke: url(#Degradado_sin_nombre_34);
        stroke-width: 11.31px;
      }

      .cls-1, .cls-2 {
        fill: none;
      }

      .cls-1, .cls-2, .cls-3 {
        stroke-miterlimit: 10;
      }

      .cls-4 {
        fill: url(#New_Gradient_Swatch_21-6);
      }

      .cls-4, .cls-5, .cls-6, .cls-7, .cls-8, .cls-9, .cls-10, .cls-11, .cls-12, .cls-13, .cls-14, .cls-15, .cls-16, .cls-17, .cls-18, .cls-19, .cls-20, .cls-21 {
        stroke-width: 0px;
      }

      .cls-5 {
        fill: url(#linear-gradient);
        filter: url(#drop-shadow-1);
      }

      .cls-6 {
        fill: url(#New_Gradient_Swatch_21-4);
      }

      .cls-7 {
        fill: url(#New_Gradient_Swatch_21-5);
      }

      .cls-8 {
        fill: url(#linear-gradient-6);
      }

      .cls-22 {
        filter: url(#drop-shadow-4);
      }

      .cls-23 {
        isolation: isolate;
      }

      .cls-9 {
        fill: url(#New_Gradient_Swatch_21-2);
      }

      .cls-2 {
        filter: url(#drop-shadow-3);
        stroke: url(#Degradado_sin_nombre_34-2);
        stroke-width: 9.69px;
      }

      .cls-10 {
        fill: url(#linear-gradient-5);
      }

      .cls-11 {
        fill: #e7744b;
      }

      .cls-12 {
        fill: #fff;
      }

      .cls-24 {
        filter: url(#drop-shadow-5);
      }

      .cls-13 {
        fill: url(#New_Gradient_Swatch_21-7);
      }

      .cls-14 {
        fill: url(#linear-gradient-7);
      }

      .cls-15 {
        fill: url(#linear-gradient-3);
      }

      .cls-16 {
        fill: url(#linear-gradient-9);
      }

      .cls-17 {
        fill: url(#New_Gradient_Swatch_21);
      }

      .cls-18 {
        fill: url(#New_Gradient_Swatch_21-3);
      }

      .cls-19 {
        fill: url(#linear-gradient-8);
      }

      .cls-3 {
        stroke-width: .89px;
      }

      .cls-3, .cls-25, .cls-26 {
        fill: #002640;
      }

      .cls-3, .cls-26 {
        stroke: #002640;
      }

      .cls-20 {
        fill: url(#linear-gradient-2);
        mix-blend-mode: overlay;
      }

      .cls-25 {
        font-family: AlternateGotNo3D, 'Alternate Gothic No3 D';
        font-size: 43.9px;
      }

      .cls-21 {
        fill: url(#linear-gradient-4);
      }

      .cls-26 {
        stroke-linecap: round;
        stroke-linejoin: round;
        stroke-width: 11.59px;
      }
    </style>
    <linearGradient id="linear-gradient" x1="325.4" y1="557.35" x2="325.4" y2="48.68" gradientTransform="translate(-118.85 318.8) rotate(-45)" gradientUnits="userSpaceOnUse">
      <stop offset="0" stop-color="#2d47af"/>
      <stop offset=".08" stop-color="#283f9a"/>
      <stop offset=".28" stop-color="#1e2d6d"/>
      <stop offset=".46" stop-color="#17204b"/>
      <stop offset=".6" stop-color="#121837"/>
      <stop offset=".7" stop-color="#111630"/>
      <stop offset="1" stop-color="#040e1c"/>
    </linearGradient>
    <filter id="drop-shadow-1" filterUnits="userSpaceOnUse">
      <feOffset dx="0" dy="22.62"/>
      <feGaussianBlur result="blur" stdDeviation="22.62"/>
      <feFlood flood-color="#152438" flood-opacity="1"/>
      <feComposite in2="blur" operator="in"/>
      <feComposite in="SourceGraphic"/>
    </filter>
    <linearGradient id="Degradado_sin_nombre_34" data-name="Degradado sin nombre 34" x1="205.3" y1="182.76" x2="445.5" y2="422.97" gradientTransform="translate(-118.85 318.8) rotate(-45)" gradientUnits="userSpaceOnUse">
      <stop offset=".06" stop-color="#686b7a"/>
      <stop offset=".08" stop-color="#717482"/>
      <stop offset=".13" stop-color="#8c8e99"/>
      <stop offset=".2" stop-color="#b7b8be"/>
      <stop offset=".26" stop-color="#e6e6e6"/>
      <stop offset=".44" stop-color="gray"/>
      <stop offset=".74" stop-color="#f2f2f2"/>
      <stop offset=".76" stop-color="#e4e4e5"/>
      <stop offset=".88" stop-color="#a1a3ac"/>
      <stop offset=".96" stop-color="#777a87"/>
      <stop offset="1" stop-color="#686b7a"/>
    </linearGradient>
    <filter id="drop-shadow-2" filterUnits="userSpaceOnUse">
      <feOffset dx="0" dy="4.85"/>
      <feGaussianBlur result="blur-2" stdDeviation="3.23"/>
      <feFlood flood-color="#152438" flood-opacity=".3"/>
      <feComposite in2="blur-2" operator="in"/>
      <feComposite in="SourceGraphic"/>
    </filter>
    <linearGradient id="Degradado_sin_nombre_34-2" data-name="Degradado sin nombre 34" x1="325.4" y1="64.18" x2="325.4" y2="541.55" gradientTransform="translate(-118.85 318.8) rotate(-45)" xlink:href="#Degradado_sin_nombre_34"/>
    <filter id="drop-shadow-3" filterUnits="userSpaceOnUse">
      <feOffset dx="0" dy="4.8"/>
      <feGaussianBlur result="blur-3" stdDeviation="3.2"/>
      <feFlood flood-color="#152438" flood-opacity=".3"/>
      <feComposite in2="blur-3" operator="in"/>
      <feComposite in="SourceGraphic"/>
    </filter>
    <linearGradient id="linear-gradient-2" x1="228.01" y1="108.62" x2="228.01" y2="493.53" gradientUnits="userSpaceOnUse">
      <stop offset="0" stop-color="#fff"/>
      <stop offset=".15" stop-color="#fff" stop-opacity=".78"/>
      <stop offset=".32" stop-color="#fff" stop-opacity=".55"/>
      <stop offset=".48" stop-color="#fff" stop-opacity=".35"/>
      <stop offset=".64" stop-color="#fff" stop-opacity=".2"/>
      <stop offset=".78" stop-color="#fff" stop-opacity=".09"/>
      <stop offset=".91" stop-color="#fff" stop-opacity=".02"/>
      <stop offset="1" stop-color="#fff" stop-opacity="0"/>
    </linearGradient>
    <linearGradient id="linear-gradient-3" x1="351.78" y1="214.13" x2="177.67" y2="214.13" gradientUnits="userSpaceOnUse">
      <stop offset="0" stop-color="#b7bed0"/>
      <stop offset=".13" stop-color="#cbcfdd"/>
      <stop offset=".23" stop-color="#d4d8e4"/>
      <stop offset=".66" stop-color="#8d91a3"/>
      <stop offset=".96" stop-color="#5b6175"/>
    </linearGradient>
    <linearGradient id="linear-gradient-4" x1="166.04" y1="187.24" x2="166.04" y2="337.87" xlink:href="#linear-gradient-3"/>
    <linearGradient id="linear-gradient-5" x1="227.01" y1="323.91" x2="227.01" y2="387.72" xlink:href="#linear-gradient-3"/>
    <linearGradient id="linear-gradient-6" x1="247.66" y1="406.7" x2="247.66" y2="276.16" xlink:href="#linear-gradient-3"/>
    <linearGradient id="New_Gradient_Swatch_21" data-name="New Gradient Swatch 21" x1="351.78" y1="194.88" x2="177.67" y2="194.88" gradientUnits="userSpaceOnUse">
      <stop offset="0" stop-color="#c07e09"/>
      <stop offset=".02" stop-color="#c78a17"/>
      <stop offset=".06" stop-color="#daab3d"/>
      <stop offset=".11" stop-color="#f8df79"/>
      <stop offset=".12" stop-color="#fde883"/>
      <stop offset=".22" stop-color="#fcd56f"/>
      <stop offset=".25" stop-color="#fccf68"/>
      <stop offset=".38" stop-color="#cf9e40"/>
      <stop offset=".49" stop-color="#b27f26"/>
      <stop offset=".54" stop-color="#a8741d"/>
      <stop offset=".59" stop-color="#ac7921"/>
      <stop offset=".65" stop-color="#ba872d"/>
      <stop offset=".71" stop-color="#d0a041"/>
      <stop offset=".77" stop-color="#efc15d"/>
      <stop offset=".79" stop-color="#fccf68"/>
      <stop offset=".89" stop-color="#efd77e"/>
      <stop offset=".91" stop-color="#ecd176"/>
      <stop offset=".93" stop-color="#e3c262"/>
      <stop offset=".96" stop-color="#d6a941"/>
      <stop offset=".99" stop-color="#c48614"/>
      <stop offset="1" stop-color="#c07e09"/>
    </linearGradient>
    <linearGradient id="New_Gradient_Swatch_21-2" data-name="New Gradient Swatch 21" x1="260.45" y1="406.58" x2="260.45" y2="257.06" xlink:href="#New_Gradient_Swatch_21"/>
    <linearGradient id="New_Gradient_Swatch_21-3" data-name="New Gradient Swatch 21" x1="191.73" y1="187.24" x2="191.73" y2="337.87" xlink:href="#New_Gradient_Swatch_21"/>
    <linearGradient id="New_Gradient_Swatch_21-4" data-name="New Gradient Swatch 21" x1="209.43" y1="314.83" x2="209.43" y2="406.72" xlink:href="#New_Gradient_Swatch_21"/>
    <linearGradient id="linear-gradient-7" x1="413.85" y1="452.55" x2="413.85" y2="210.68" xlink:href="#linear-gradient-3"/>
    <linearGradient id="linear-gradient-8" x1="396.12" y1="186.23" x2="396.12" y2="384.84" xlink:href="#linear-gradient-3"/>
    <linearGradient id="New_Gradient_Swatch_21-5" data-name="New Gradient Swatch 21" x1="430.57" y1="457.69" x2="430.57" y2="188.21" xlink:href="#New_Gradient_Swatch_21"/>
    <linearGradient id="New_Gradient_Swatch_21-6" data-name="New Gradient Swatch 21" x1="379.4" y1="186.23" x2="379.4" y2="407.52" xlink:href="#New_Gradient_Swatch_21"/>
    <linearGradient id="New_Gradient_Swatch_21-7" data-name="New Gradient Swatch 21" x1="401.72" y1="329.8" x2="525.6" y2="329.8" xlink:href="#New_Gradient_Swatch_21"/>
    <linearGradient id="linear-gradient-9" x1="401.99" y1="296.02" x2="433.05" y2="296.02" xlink:href="#linear-gradient-3"/>
    <filter id="drop-shadow-4" filterUnits="userSpaceOnUse">
      <feOffset dx="7.82" dy="7.82"/>
      <feGaussianBlur result="blur-4" stdDeviation="5.58"/>
      <feFlood flood-color="#221f1f" flood-opacity=".75"/>
      <feComposite in2="blur-4" operator="in"/>
      <feComposite in="SourceGraphic"/>
    </filter>
    <filter id="drop-shadow-5" filterUnits="userSpaceOnUse">
      <feOffset dx="7.82" dy="7.82"/>
      <feGaussianBlur result="blur-5" stdDeviation="5.58"/>
      <feFlood flood-color="#221f1f" flood-opacity=".75"/>
      <feComposite in2="blur-5" operator="in"/>
      <feComposite in="SourceGraphic"/>
    </filter>
  </defs>
  <g class="cls-23">
    <g id="Capa_2" data-name="Capa 2">
      <g id="logosan_landing" data-name="logosan landing">
        <g>
          <g>
            <rect class="cls-5" x="143.81" y="121.28" width="363.17" height="363.17" transform="translate(309.47 -141.39) rotate(45)"/>
            <rect class="cls-1" x="161.21" y="138.67" width="328.39" height="328.39" transform="translate(309.47 -141.39) rotate(45)"/>
            <rect class="cls-2" x="161.47" y="138.94" width="327.86" height="327.86" transform="translate(309.47 -141.39) rotate(45)"/>
          </g>
          <g>
            <g>
              <g>
                <rect class="cls-3" x="201.72" y="207.08" width="115.08" height="14.11"/>
                <rect class="cls-3" x="157.19" y="187.83" width="18.84" height="107.42"/>
                <path class="cls-3" d="m201.72,344.53v8.9c0,11.45,12.39,20.73,27.67,20.73h15.21c15.28,0,27.67-9.28,27.67-20.73v10.98c0,3.56-.59,7.01-1.67,10.31-6.61,7.63-17.43,13.55-29.71,13.55h-18.83c-21.43,0-39.01-13.06-39.18-29.16,0-.12,0-.65,0-.72v-13.86h18.84Z"/>
                <path class="cls-3" d="m272.27,364.41v-53.5c0-11.45-12.39-20.73-27.67-20.73h-19.32c-9.91,0-15.04-1.45-19.93,4.43.26-3.57-.03-9.52.26-12.86,5.41-7.25,12.89-5.68,30.4-5.68h18.59c20.22,0,36.5,16.06,36.5,29.35l-.24,61.72c-1.84,21.88-26.44,40.35-53.8,40.39h-22.34c31.78,0,57.54-19.3,57.54-43.11Z"/>
              </g>
              <g>
                <rect class="cls-3" x="201.72" y="187.83" width="115.08" height="14.12"/>
                <path class="cls-3" d="m259.26,256.82c-13.01.35-22.57-.04-33.27,0-3.99.01-15.64.02-18.08,1.73-3.06,2.13-2.75,21.82-2.55,18.61.29-4.7,8.32-7.29,23.08-6.4l26.17.17c24.42,0,43.35,18.54,43.35,34.49l-.25,61.96c-1.58,19.37-18.33,34.38-40.43,40.15h1.98c31.78,0,57.54-19.3,57.54-43.11v-64.48c0-23.81-25.77-43.97-57.54-43.11Z"/>
                <rect class="cls-3" x="182.88" y="187.83" width="18.84" height="107.42"/>
                <path class="cls-3" d="m240.89,393.41h-18.83c-25.18,0-45.83-15.35-46.03-34.21,0-.04,0-.71,0-.81v-13.86h-18.84v19.88c0,23.81,25.76,43.11,57.54,43.11,20.1,0,37.79-7.73,48.07-19.43-6.38,3.28-13.85,5.32-21.91,5.32Z"/>
              </g>
            </g>
            <g>
              <g>
                <path class="cls-3" d="m438.76,356.71v-106.72c0-13.5-11.66-24.43-26.05-24.43h-14.32c-14.39,0-26.05,10.94-26.05,24.43v-12.94c0-4.16.55-8.2,1.55-12.07,5.1-8.54,14.26-16.06,30.74-16.06h17.5c19.04,0,34.37,18.93,34.37,34.6v112.83c0,29.75-23.52,49.71-45.35,51.18h-26.56c29.92,0,54.17-22.75,54.17-50.81Z"/>
                <path class="cls-3" d="m372.34,237.05v106.72c0,13.5,11.66,24.43,26.05,24.43h14.32c14.39,0,26.05-10.94,26.05-24.43v12.94c0,4.16-.55,8.2-1.55,12.07-5.1,8.55-14.26,16.06-30.74,16.06h-17.5c-19.04,0-34.37-18.93-34.37-34.6v-112.83c0-29.74,23.5-49.7,45.32-51.18h26.59c-29.92,0-54.17,22.75-54.17,50.81Z"/>
              </g>
              <g>
                <path class="cls-3" d="m480.68,237.04c0-28.06-24.25-50.81-54.17-50.81-18.7,0-35.18,8.89-44.92,22.4,5.99-3.56,13.55-5.77,23.04-5.77h17.5c22.99,0,40.82,21.85,40.82,40.65v112.83c0,24.28-15.42,43.84-36.54,51.18h11.62c19.55-3.24,42.66-19.22,42.66-51.54v-118.94Z"/>
                <path class="cls-3" d="m406.47,390.89h-17.5c-22.99,0-40.82-21.85-40.82-40.65v-112.83c0-24.28,15.42-43.83,36.53-51.18h-11.61c-19.55,3.24-42.66,19.22-42.66,51.54v118.94c0,28.06,24.26,50.81,54.17,50.81,18.7,0,35.19-8.89,44.92-22.41-5.99,3.56-13.55,5.77-23.05,5.77Z"/>
              </g>
            </g>
          </g>
          <polygon class="cls-20" points="130.62 302.87 325.4 108.09 325.4 497.64 130.62 302.87"/>
          <g>
            <g>
              <g>
                <rect class="cls-15" x="201.15" y="207.07" width="115.08" height="14.11"/>
                <rect class="cls-21" x="156.63" y="187.83" width="18.84" height="107.42"/>
                <path class="cls-10" d="m201.15,344.53v8.9c0,11.45,12.39,20.73,27.67,20.73h15.21c15.28,0,27.67-9.28,27.67-20.73v10.98c0,3.56-.59,7.01-1.67,10.31-6.61,7.63-17.43,13.55-29.71,13.55h-18.83c-21.43,0-39.01-13.06-39.18-29.16,0-.12,0-.65,0-.72v-13.86h18.84Z"/>
                <path class="cls-8" d="m271.7,364.41v-53.5c0-11.45-12.39-20.73-27.67-20.73h-19.32c-9.91,0-15.04-1.45-19.93,4.43.26-3.57-.03-9.52.26-12.86,5.41-7.25,12.89-5.68,30.4-5.68h18.59c20.22,0,36.5,16.06,36.5,29.35l-.24,61.72c-1.84,21.88-26.44,40.35-53.8,40.39h-22.34c31.78,0,57.54-19.3,57.54-43.11Z"/>
              </g>
              <g>
                <rect class="cls-17" x="201.15" y="187.83" width="115.08" height="14.12"/>
                <path class="cls-9" d="m258.69,256.81c-13.01.35-22.57-.04-33.27,0-3.99.01-15.64.02-18.08,1.73-3.06,2.13-2.75,21.82-2.55,18.61.29-4.7,8.32-7.29,23.08-6.4l26.17.17c24.42,0,43.35,18.54,43.35,34.49l-.25,61.96c-1.58,19.37-18.33,34.38-40.43,40.15h1.98c31.78,0,57.54-19.3,57.54-43.11v-64.48c0-23.81-25.77-43.97-57.54-43.11Z"/>
                <rect class="cls-18" x="182.31" y="187.83" width="18.84" height="107.42"/>
                <path class="cls-6" d="m240.33,393.41h-18.83c-25.18,0-45.83-15.35-46.03-34.21,0-.04,0-.71,0-.81v-13.86h-18.84v19.88c0,23.81,25.76,43.11,57.54,43.11,20.1,0,37.79-7.73,48.07-19.43-6.38,3.28-13.85,5.32-21.91,5.32Z"/>
              </g>
            </g>
            <g>
              <g>
                <path class="cls-14" d="m438.2,356.71v-106.72c0-13.5-11.66-24.43-26.05-24.43h-14.32c-14.39,0-26.05,10.94-26.05,24.43v-12.94c0-4.16.55-8.2,1.55-12.07,5.1-8.54,14.26-16.06,30.74-16.06h17.5c19.04,0,34.37,18.93,34.37,34.6v112.83c0,29.75-23.52,49.71-45.35,51.18h-26.56c29.92,0,54.17-22.75,54.17-50.81Z"/>
                <path class="cls-19" d="m371.77,237.04v106.72c0,13.5,11.66,24.43,26.05,24.43h14.32c14.39,0,26.05-10.94,26.05-24.43v12.94c0,4.16-.55,8.2-1.55,12.07-5.1,8.55-14.26,16.06-30.74,16.06h-17.5c-19.04,0-34.37-18.93-34.37-34.6v-112.83c0-29.74,23.5-49.7,45.32-51.18h26.59c-29.92,0-54.17,22.75-54.17,50.81Z"/>
              </g>
              <g>
                <path class="cls-7" d="m480.12,237.04c0-28.06-24.25-50.81-54.17-50.81-18.7,0-35.18,8.89-44.92,22.4,5.99-3.56,13.55-5.77,23.04-5.77h17.5c22.99,0,40.82,21.85,40.82,40.65v112.83c0,24.28-15.42,43.84-36.54,51.18h11.62c19.55-3.24,42.66-19.22,42.66-51.54v-118.94Z"/>
                <path class="cls-4" d="m405.9,390.89h-17.5c-22.99,0-40.82-21.85-40.82-40.65v-112.83c0-24.28,15.42-43.83,36.53-51.18h-11.61c-19.55,3.24-42.66,19.22-42.66,51.54v118.94c0,28.06,24.26,50.81,54.17,50.81,18.7,0,35.19-8.89,44.92-22.41-5.99,3.56-13.55,5.77-23.05,5.77Z"/>
              </g>
            </g>
          </g>
          <rect class="cls-13" x="401.72" y="306.77" width="123.88" height="46.06"/>
          <polygon class="cls-16" points="433.05 306.77 401.99 306.77 432.83 285.28 433.05 306.77"/>
          <g>
            <g class="cls-22">
              <g>
                <path class="cls-26" d="m290.22,360.31h24.02s0,7.8,0,7.8h-22.56c-4.76,0-7.14,1.9-7.14,5.69,0,1.37.4,2.46,1.21,3.27.97.97,2.5,1.45,4.6,1.45h12.04c5.2,0,8.87,1.02,11.01,3.08,1.98,1.9,2.96,4.96,2.96,9.19,0,4.32-1.09,7.5-3.27,9.56-2.42,2.3-6.41,3.45-11.98,3.45h-24.32s0-7.8,0-7.8h22.87c2.78,0,4.7-.51,5.75-1.52.85-.81,1.27-2.2,1.27-4.17,0-1.29-.32-2.24-.97-2.84-.97-.93-2.78-1.39-5.44-1.39h-10.77c-4.96,0-8.62-1.04-10.98-3.11s-3.54-5.25-3.54-9.53c0-4.31,1.11-7.52,3.33-9.62,2.46-2.34,6.43-3.51,11.92-3.51Z"/>
                <path class="cls-26" d="m337.04,378.51h-14.09s0-6.59,0-6.59h17.24c8.75,0,13.13,3.97,13.13,11.91v19.96s-22.56,0-22.56,0c-3.07,0-5.48-.85-7.26-2.54-1.78-1.69-2.66-3.99-2.66-6.9,0-3.87,1.25-6.57,3.75-8.11,1.98-1.21,4.98-1.82,9.01-1.82h11.13c0-2.26-.54-3.81-1.63-4.66-1.09-.85-3.11-1.27-6.05-1.27Zm-2.84,18.93h10.53s0-6.66,0-6.66h-9.92c-1.53,0-2.66.16-3.39.49-1.13.48-1.69,1.43-1.69,2.84,0,1.33.35,2.22,1.06,2.66.71.44,1.85.67,3.42.66Z"/>
                <path class="cls-26" d="m369.17,403.79h-8.35s0-31.88,0-31.88h15.79c4.72,0,8.13.88,10.22,2.66,2.1,1.77,3.15,4.78,3.15,9.01v20.2s-8.53,0-8.53,0v-19.12c0-2.38-.29-3.89-.85-4.54-.69-.77-2.24-1.15-4.66-1.15h-6.77s0,24.8,0,24.8Z"/>
                <path class="cls-26" d="m397.11,360.29h8.71s0,7.92,0,7.92h-8.71s0-7.92,0-7.92Zm0,11.61h8.71s0,31.88,0,31.88h-8.71s0-31.88,0-31.88Z"/>
                <path class="cls-26" d="m421.55,403.79h-8.35s0-31.88,0-31.88h32.24c4.48,0,7.74.82,9.8,2.48,2.3,1.86,3.45,4.92,3.45,9.2v20.2s-8.41,0-8.41,0v-19.12c0-2.1-.31-3.55-.91-4.36-.77-1.01-2.28-1.51-4.54-1.51-.32,0-.68.03-1.06.09-.38.06-.7.09-.94.09h-2.72v24.8s-8.65,0-8.65,0v-24.8s-9.92,0-9.92,0v24.8Z"/>
                <path class="cls-26" d="m492.69,397.18v6.59s-12.28,0-12.28,0c-6.05,0-10.41-1.75-13.07-5.26-2.02-2.66-3.02-6.23-3.02-10.71,0-4.64,1.13-8.31,3.39-11.01,2.74-3.27,6.98-4.9,12.7-4.9h12.28s0,6.59,0,6.59h-11.13c-2.78,0-4.72.34-5.81,1.03-1.37.85-2.06,2.52-2.06,5.02h18.99s0,6.71,0,6.71h-18.99c0,2.38.52,3.97,1.54,4.75,1.03.78,3.12,1.18,6.26,1.18h11.19Z"/>
                <path class="cls-26" d="m504.37,403.77h-9.68s11.67-15.97,11.67-15.97l-11.8-15.91h9.68s6.84,9.68,6.84,9.68l7.14-9.68h9.68s-11.85,16.15-11.85,16.15l11.62,15.73h-9.8s-6.78-9.19-6.78-9.19l-6.71,9.2Z"/>
              </g>
              <path class="cls-26" d="m358.18,397.35c-.11-.13-.19-.24-.33-.38.07.18.19.29.33.38Z"/>
              <path class="cls-26" d="m360.68,388.56l1.01.74.29-.93c-.38.27-2.25-.2-1.3.19Z"/>
              <path class="cls-26" d="m362.03,388.19l-.05.18c.06-.04.09-.1.05-.18Z"/>
            </g>
            <g class="cls-24">
              <g>
                <path class="cls-12" d="m288.89,360.31h24.02s0,7.8,0,7.8h-22.56c-4.76,0-7.14,1.9-7.14,5.69,0,1.37.4,2.46,1.21,3.27.97.97,2.5,1.45,4.6,1.45h12.04c5.2,0,8.87,1.03,11.01,3.08,1.98,1.9,2.96,4.96,2.96,9.19,0,4.32-1.09,7.5-3.27,9.56-2.42,2.3-6.41,3.45-11.98,3.45h-24.32s0-7.8,0-7.8h22.87c2.78,0,4.7-.51,5.75-1.52.85-.81,1.27-2.2,1.27-4.17,0-1.29-.32-2.24-.97-2.84-.97-.93-2.78-1.39-5.44-1.39h-10.77c-4.96,0-8.62-1.04-10.98-3.11s-3.54-5.25-3.54-9.53c0-4.31,1.11-7.52,3.33-9.62,2.46-2.34,6.43-3.51,11.92-3.51Z"/>
                <path class="cls-12" d="m335.71,378.51h-14.09s0-6.59,0-6.59h17.24c8.75,0,13.13,3.97,13.13,11.91v19.96s-22.56,0-22.56,0c-3.07,0-5.48-.85-7.26-2.54-1.78-1.69-2.66-3.99-2.66-6.9,0-3.87,1.25-6.57,3.75-8.11,1.98-1.21,4.98-1.82,9.01-1.82h11.13c0-2.26-.54-3.81-1.63-4.66-1.09-.85-3.11-1.27-6.05-1.27Zm-2.84,18.94h10.53s0-6.66,0-6.66h-9.92c-1.53,0-2.66.16-3.39.49-1.13.48-1.69,1.43-1.69,2.84,0,1.33.35,2.22,1.06,2.66.71.44,1.85.67,3.42.67Z"/>
                <path class="cls-12" d="m367.84,403.79h-8.35s0-31.88,0-31.88h15.79c4.72,0,8.13.88,10.22,2.66,2.1,1.77,3.15,4.78,3.15,9.01v20.2s-8.53,0-8.53,0v-19.12c0-2.38-.29-3.89-.85-4.54-.69-.77-2.24-1.15-4.66-1.15h-6.77s0,24.8,0,24.8Z"/>
                <path class="cls-12" d="m395.78,360.3h8.71s0,7.92,0,7.92h-8.71s0-7.92,0-7.92Zm0,11.61h8.71s0,31.88,0,31.88h-8.71s0-31.88,0-31.88Z"/>
                <path class="cls-12" d="m420.22,403.79h-8.35s0-31.88,0-31.88h32.24c4.48,0,7.74.82,9.8,2.47,2.3,1.86,3.45,4.92,3.45,9.2v20.2s-8.41,0-8.41,0v-19.12c0-2.1-.31-3.55-.91-4.36-.77-1.01-2.28-1.51-4.54-1.51-.32,0-.68.03-1.06.09-.38.06-.7.09-.94.09h-2.72v24.8s-8.65,0-8.65,0v-24.8s-9.92,0-9.92,0v24.8Z"/>
                <path class="cls-12" d="m491.36,397.18v6.59s-12.28,0-12.28,0c-6.05,0-10.41-1.75-13.07-5.26-2.02-2.66-3.02-6.23-3.02-10.71,0-4.64,1.13-8.31,3.39-11.01,2.74-3.27,6.98-4.9,12.7-4.9h12.28s0,6.59,0,6.59h-11.13c-2.78,0-4.72.34-5.81,1.03-1.37.85-2.06,2.52-2.06,5.02h18.99s0,6.71,0,6.71h-18.99c0,2.38.52,3.97,1.54,4.75,1.03.79,3.12,1.18,6.26,1.18h11.19Z"/>
                <path class="cls-12" d="m503.04,403.77h-9.68s11.67-15.97,11.67-15.97l-11.8-15.91h9.68s6.84,9.68,6.84,9.68l7.14-9.68h9.68s-11.85,16.15-11.85,16.15l11.62,15.73h-9.8s-6.78-9.19-6.78-9.19l-6.71,9.2Z"/>
              </g>
              <path class="cls-11" d="m356.85,397.35c-.11-.13-.19-.24-.33-.38.07.18.19.29.33.38Z"/>
              <path class="cls-11" d="m359.35,388.56l1.01.74.29-.93c-.38.27-2.25-.2-1.3.19Z"/>
              <path class="cls-11" d="m360.7,388.19l-.05.18c.06-.04.09-.1.05-.18Z"/>
            </g>
          </g>
          <text class="cls-25" transform="translate(411.72 346.24)"><tspan x="0" y="0">A Ñ O S</tspan></text>
        </g>
      </g>
    </g>
  </g>
</svg>