<?xml version="1.0" encoding="utf-8"?>
<!-- Generator: Adobe Illustrator 27.3.1, SVG Export Plug-In . SVG Version: 6.00 Build 0)  -->
<svg version="1.1" id="Capa_1" xmlns="http://www.w3.org/2000/svg" xmlns:xlink="http://www.w3.org/1999/xlink" x="0px" y="0px"
	 viewBox="0 0 96 68.5" style="enable-background:new 0 0 96 68.5;" xml:space="preserve">
<style type="text/css">
	.st0{fill:#FFFFFF;}
	.st1{fill:#FFC107;}
	.st2{fill:#FF3D00;}
</style>
<g>
	<g transform="scale(5.33333,5.33333)">
		<path class="st0" d="M18,11.1c0,0.9-0.8,1.7-1.7,1.7H1.7c-0.9,0-1.7-0.8-1.7-1.7V1.7C0,0.8,0.8,0,1.7,0h14.6C17.2,0,18,0.8,18,1.7
			V11.1z"/>
		<path class="st1" d="M11.6,2.1c-2.4,0-4.3,1.9-4.3,4.3s1.9,4.3,4.3,4.3s4.3-1.9,4.3-4.3S13.9,2.1,11.6,2.1z"/>
		<path class="st2" d="M8.1,9C8,8.7,7.8,8.4,7.6,8.1h2.3c0.1-0.3,0.2-0.6,0.3-0.9H7.4C7.3,7,7.3,6.7,7.3,6.4h3c0-0.3,0-0.6-0.1-0.9
			H7.4C7.4,5.3,7.5,5,7.6,4.7h2.3C9.8,4.4,9.6,4.1,9.4,3.9H8.1c0.2-0.2,0.4-0.5,0.6-0.7C8,2.5,7.1,2.1,6,2.1c-2.4,0-4.3,1.9-4.3,4.3
			s1.9,4.3,4.3,4.3c1.4,0,2.6-0.7,3.4-1.7H8.1z"/>
	</g>
</g>
</svg>
