<?xml version="1.0" encoding="utf-8"?>
<!-- Generator: Adobe Illustrator 27.3.1, SVG Export Plug-In . SVG Version: 6.00 Build 0)  -->
<svg version="1.1" id="Capa_1" xmlns="http://www.w3.org/2000/svg" xmlns:xlink="http://www.w3.org/1999/xlink" x="0px" y="0px"
	 viewBox="0 0 128 94.9" style="enable-background:new 0 0 128 94.9;" xml:space="preserve">
<style type="text/css">
	.st0{fill:#FFFFFF;}
	.st1{fill:#CADBEA;}
	.st2{fill:#7AA3C4;}
</style>
<g>
	<g transform="scale(2,2)">
		<path class="st0" d="M56.8,45.8H7.2c-3,0-5.5-2.5-5.5-5.5V7.2c0-3,2.5-5.5,5.5-5.5h49.7c3,0,5.5,2.5,5.5,5.5v33.1
			C62.3,43.3,59.9,45.8,56.8,45.8z"/>
		<path class="st1" d="M22.8,33.7l1.4-6.1c0.2-0.8,1.1-1.5,2-1.5h1.2c5,0,9-1,11.8-3.1c2.8-2,4.2-4.7,4.2-8.1c0-1.5-0.3-2.7-0.8-3.7
			s-1.3-1.8-2.3-2.4s-2.2-1-3.6-1.3c-1.4-0.3-3-0.4-4.9-0.4h-8.6c-0.9,0-1.8,0.7-2,1.5l-5.8,25c-0.2,0.8,0.4,1.5,1.3,1.5h4.1
			C21.7,35.2,22.7,34.5,22.8,33.7z M26.2,19.2l1.3-5.3c0.2-0.8,1.1-1.5,2-1.5h1.4c1.6,0,2.8,0.3,3.6,0.8c0.8,0.5,1.2,1.3,1.2,2.4
			c0,1.7-0.6,2.9-1.9,3.8c-1.3,0.9-3,1.3-5.2,1.3h-1C26.6,20.7,26,20,26.2,19.2L26.2,19.2z"/>
		<path class="st2" d="M45.2,13.8c0.6,1,0.8,2.2,0.8,3.7c0,3.3-1.4,6-4.2,8.1c-2.8,2-6.7,3.1-11.8,3.1h-1.2c-0.9,0-1.8,0.7-2,1.5
			l-1.4,6c-0.2,0.8-1.1,1.5-2,1.5h-2.6l-0.2,1c-0.2,0.8,0.4,1.5,1.3,1.5H26c0.9,0,1.8-0.7,2-1.5l1.4-6c0.2-0.8,1.1-1.5,2-1.5h1.1
			c5,0,8.9-1,11.8-3.1c2.8-2,4.2-4.7,4.2-8.1c0-1.5-0.3-2.7-0.8-3.7c-0.5-1-1.3-1.8-2.3-2.4C45.4,13.8,45.3,13.8,45.2,13.8
			L45.2,13.8z"/>
		<path class="st0" d="M56.8,47.4H7.2c-4,0-7.2-3.2-7.2-7.2V7.2C0,3.2,3.2,0,7.2,0h49.7c4,0,7.2,3.2,7.2,7.2v33.1
			C64,44.2,60.8,47.4,56.8,47.4z M7.2,3.3C5,3.3,3.3,5,3.3,7.2v33.1c0,2.2,1.7,3.9,3.9,3.9h49.7c2.2,0,3.9-1.7,3.9-3.9V7.2
			c0-2.2-1.7-3.9-3.9-3.9H7.2z"/>
	</g>
</g>
</svg>
