<svg xmlns="http://www.w3.org/2000/svg" width="10.945" height="10.965" viewBox="0 0 10.945 10.965">
  <path id="Icon_feather-phone" data-name="Icon feather-phone" d="M11,8.46v1.5a1,1,0,0,1-1.09,1A9.9,9.9,0,0,1,5.6,9.425a9.75,9.75,0,0,1-3-3A9.9,9.9,0,0,1,1.06,2.09a1,1,0,0,1,1-1.09h1.5a1,1,0,0,1,1,.86,6.42,6.42,0,0,0,.35,1.405A1,1,0,0,1,4.68,4.32l-.635.635a8,8,0,0,0,3,3L7.68,7.32a1,1,0,0,1,1.055-.225,6.42,6.42,0,0,0,1.4.35A1,1,0,0,1,11,8.46Z" transform="translate(-0.556 -0.5)" fill="none" stroke="#fff" stroke-linecap="round" stroke-linejoin="round" stroke-width="1"/>
</svg>
