<svg xmlns="http://www.w3.org/2000/svg" width="35" height="35" viewBox="0 0 35 35">
  <g id="pinterest" transform="translate(-0.172)">
    <rect id="Background" width="35" height="35" transform="translate(0.172)" fill="#001a53"/>
    <path id="Icon_awesome-pinterest" data-name="Icon awesome-pinterest" d="M17.438,9a8.72,8.72,0,0,1-11.3,8.329,9.8,9.8,0,0,0,1.083-2.285c.105-.408.541-2.074.541-2.074a2.335,2.335,0,0,0,2,1c2.63,0,4.525-2.419,4.525-5.425A5.117,5.117,0,0,0,8.909,3.512c-3.762,0-5.762,2.524-5.762,5.277a3.913,3.913,0,0,0,1.768,3.379c.165.077.253.042.292-.116.028-.12.176-.714.243-.988a.261.261,0,0,0-.06-.25,3.434,3.434,0,0,1-.643-1.99A3.773,3.773,0,0,1,8.684,5.041a3.442,3.442,0,0,1,3.642,3.547c0,2.359-1.192,3.994-2.742,3.994a1.265,1.265,0,0,1-1.29-1.575,17.519,17.519,0,0,0,.721-2.9,1.1,1.1,0,0,0-1.1-1.227c-.875,0-1.579.9-1.579,2.116a3.142,3.142,0,0,0,.26,1.294s-.861,3.649-1.02,4.331a8.44,8.44,0,0,0-.032,2.5A8.72,8.72,0,1,1,17.438,9Z" transform="translate(9.173 8.719)" fill="#fff"/>
  </g>
</svg>
