<svg width="15" height="13" viewBox="0 0 15 13" fill="currentColor" xmlns="http://www.w3.org/2000/svg">
<path d="M7.21631 3.34362L7.24763 3.87934L6.72559 3.81374C4.82534 3.56228 3.16523 2.70951 1.75571 1.27728L1.06661 0.56664L0.889113 1.09142C0.51324 2.26125 0.753381 3.49668 1.53645 4.32759C1.95409 4.78678 1.86012 4.85238 1.1397 4.57905C0.889113 4.49159 0.669854 4.42599 0.648972 4.45879C0.575885 4.53532 0.826468 5.53022 1.02485 5.92381C1.29631 6.47046 1.84968 7.00618 2.45525 7.32323L2.96686 7.57469L2.36128 7.58563C1.77659 7.58563 1.75571 7.59656 1.81836 7.82615C2.02717 8.5368 2.85201 9.29117 3.77081 9.61916L4.41815 9.84876L3.85434 10.1986C3.01906 10.7015 2.03761 10.9858 1.05617 11.0077C0.586326 11.0186 0.200012 11.0623 0.200012 11.0951C0.200012 11.2044 1.4738 11.8167 2.21511 12.0572C4.43903 12.7679 7.08058 12.4617 9.06436 11.2482C10.4739 10.3845 11.8834 8.66799 12.5412 7.00618C12.8962 6.1206 13.2512 4.50252 13.2512 3.72628C13.2512 3.22336 13.2825 3.15776 13.8672 2.55645C14.2117 2.20659 14.5354 1.82393 14.598 1.7146C14.7025 1.50688 14.692 1.50688 14.1595 1.69274C13.272 2.02073 13.1468 1.977 13.5853 1.48501C13.9089 1.13516 14.2953 0.501042 14.2953 0.315181C14.2953 0.282382 14.1386 0.337047 13.9611 0.435444C13.7732 0.544774 13.3556 0.708769 13.0423 0.807166L12.4785 0.993027L11.9669 0.632238C11.685 0.435444 11.2883 0.216784 11.0795 0.151186C10.547 -0.00187639 9.73257 0.0199896 9.25229 0.194918C7.94718 0.686903 7.12234 1.95513 7.21631 3.34362Z" fill="currentColor"/>
</svg>
