<?xml version="1.0" encoding="utf-8"?>
<!-- Generator: Adobe Illustrator 27.3.1, SVG Export Plug-In . SVG Version: 6.00 Build 0)  -->
<svg version="1.1" id="Capa_1" xmlns="http://www.w3.org/2000/svg" xmlns:xlink="http://www.w3.org/1999/xlink" x="0px" y="0px"
	 viewBox="0 0 96 68.1" style="enable-background:new 0 0 96 68.1;" xml:space="preserve">
<style type="text/css">
	.st0{fill:#FFFFFF;}
	.st1{fill:#234CFF;}
	.st2{fill:#FFC107;}
</style>
<g>
	<g transform="scale(5.33333,5.33333)">
		<path class="st0" d="M17.9,11.1c0,0.9-0.8,1.7-1.7,1.7H1.8c-0.9,0-1.7-0.8-1.7-1.7V1.7C0.1,0.8,0.8,0,1.8,0h14.5
			c0.9,0,1.7,0.8,1.7,1.7V11.1z"/>
		<path class="st1" d="M5.2,4.3L4.1,7.6c0,0-0.3-1.4-0.3-1.6C3.2,4.6,2.2,4.6,2.2,4.6l1.1,4.3v0h1.3l1.9-4.7H5.2z M6.3,8.9h1.2
			l0.7-4.7H7L6.3,8.9z M15,4.3h-1.3l-2,4.7h1.2l0.3-0.7h1.5l0.1,0.7h1.1L15,4.3z M13.5,7.4l0.7-1.8l0.3,1.8H13.5z M10,5.6
			c0-0.3,0.2-0.5,0.8-0.5c0.4,0,0.8,0.3,0.8,0.3l0.2-1c0,0-0.6-0.2-1.1-0.2c-1.3,0-1.9,0.6-1.9,1.4c0,1.4,1.7,1.2,1.7,1.9
			c0,0.1-0.1,0.4-0.8,0.4C9,8,8.5,7.7,8.5,7.7L8.3,8.7c0,0,0.5,0.3,1.3,0.3c0.9,0,2.1-0.7,2.1-1.6C11.7,6.2,10,6.1,10,5.6z"/>
		<path class="st2" d="M4,6.8l-0.4-2c0,0-0.2-0.4-0.7-0.4S1,4.3,1,4.3S3.4,5,4,6.8z"/>
	</g>
</g>
</svg>
