<svg xmlns="http://www.w3.org/2000/svg" width="10.5" height="10.5" viewBox="0 0 10.5 10.5">
  <path id="Icon_awesome-whatsapp" data-name="Icon awesome-whatsapp" d="M8.927,2.276A5.2,5.2,0,0,0,.738,8.555L0,11.25l2.759-.724a5.187,5.187,0,0,0,2.487.633h0a5.253,5.253,0,0,0,5.252-5.2,5.224,5.224,0,0,0-1.573-3.68Zm-3.68,8.006a4.317,4.317,0,0,1-2.2-.6l-.157-.094-1.636.429.436-1.6-.1-.164a4.333,4.333,0,1,1,8.037-2.3,4.373,4.373,0,0,1-4.373,4.327ZM7.62,7.043c-.129-.066-.769-.38-.888-.422s-.206-.066-.293.066-.335.422-.412.511-.152.1-.281.033a3.539,3.539,0,0,1-1.77-1.547c-.134-.23.134-.213.382-.71a.241.241,0,0,0-.012-.227c-.033-.066-.293-.705-.4-.966s-.213-.218-.293-.223-.162,0-.248,0a.482.482,0,0,0-.347.162A1.461,1.461,0,0,0,2.6,4.8a2.547,2.547,0,0,0,.53,1.345A5.81,5.81,0,0,0,5.353,8.109a2.544,2.544,0,0,0,1.561.326,1.332,1.332,0,0,0,.877-.619A1.087,1.087,0,0,0,7.866,7.2c-.03-.059-.117-.091-.246-.155Z" transform="translate(0 -0.75)" fill="#fff"/>
</svg>
